<?xml version="1.0" encoding="utf-8"?>
<!-- Generator: Adobe Illustrator 16.0.0, SVG Export Plug-In . SVG Version: 6.00 Build 0)  -->
<!DOCTYPE svg PUBLIC "-//W3C//DTD SVG 1.1//EN" "http://www.w3.org/Graphics/SVG/1.1/DTD/svg11.dtd">
<svg version="1.1" id="Layer_1" xmlns:svgjs="http://svgjs.com/svgjs"
	 xmlns="http://www.w3.org/2000/svg" xmlns:xlink="http://www.w3.org/1999/xlink" x="0px" y="0px" width="512px" height="512px"
	 viewBox="0 0 512 512" enable-background="new 0 0 512 512" xml:space="preserve">
<g>
	<g>
		<g>
			<path fill="#37A1DA" d="M470.37,504.5H41.629V135.731c0-26.49,21.474-47.964,47.964-47.964h332.813
				c26.49,0,47.964,21.474,47.964,47.964L470.37,504.5L470.37,504.5z"/>
			<path fill="#37A1DA" d="M494.776,504.5H17.224v-42.086c0-66.569,53.966-120.536,120.537-120.536H374.24
				c66.571,0,120.537,53.966,120.537,120.536L494.776,504.5L494.776,504.5z"/>
			<path fill="#37A1DA" d="M374.239,341.879h-30c66.57,0,120.537,53.966,120.537,120.536V504.5h30v-42.086
				C494.776,395.844,440.81,341.879,374.239,341.879L374.239,341.879z"/>
			<g>
				<path fill="#FFF1F1" d="M410.109,318.56c5.93-1.272,12.363,0.396,16.97,5.004c7.224,7.222,7.224,20.018,0,27.24
					c-45.801,45.8-106.694,75.374-171.465,75.374c-64.329,0-124.928-29.28-170.632-74.545c-7.257-7.188-7.313-19.984-0.126-27.24
					c5.055-5.103,12.345-6.646,18.749-4.612"/>
				<path fill="#FFF1F1" d="M107.378,254.696H47.479c-15.062,0-27.271-12.21-27.271-27.272v-59.058
					c0-15.062,12.21-27.271,27.271-27.271h59.899V254.696z"/>
				<path fill="#FFF1F1" d="M404.62,254.696h59.899c15.062,0,27.271-12.21,27.271-27.272v-59.058
					c0-15.062-12.21-27.271-27.271-27.271H404.62V254.696z"/>
			</g>
			<ellipse fill="#37A1DA" cx="255.951" cy="200.013" rx="192.478" ry="192.478"/>
			<path fill="#FFFFFF" d="M256,77.115c-63.641,0.112-118.86,27.886-146.588,68.58c-1.312,1.925-2.034,4.19-2.034,6.519v106.199
				c0,2.329,0.722,4.594,2.034,6.52C137.139,305.627,192.36,333.4,256,333.513c63.64-0.112,118.859-27.887,146.588-68.581
				c1.311-1.926,2.033-4.19,2.033-6.52V152.214c0-2.328-0.722-4.594-2.033-6.519C374.86,105.001,319.64,77.227,256,77.115z"/>
			<path fill="#37A1DA" d="M256,7.5c-5.048,0-10.05,0.197-15,0.578c99.308,7.654,177.507,90.658,177.507,191.929
				c0,101.271-78.199,184.275-177.507,191.93c4.95,0.382,9.952,0.578,15,0.578c106.318,0,192.507-86.188,192.507-192.508
				C448.507,93.688,362.318,7.5,256,7.5z"/>
			<path fill="#FFFFFF" d="M402.587,145.696C374.86,105.001,319.64,77.227,256,77.115c-5.06,0.009-10.058,0.212-15,0.563
				c57.237,4.065,106.063,30.558,131.588,68.018c1.312,1.925,2.034,4.19,2.034,6.519v106.199c0,2.329-0.723,4.594-2.034,6.52
				c-25.523,37.46-74.351,63.952-131.588,68.018c4.942,0.352,9.94,0.555,15,0.563c63.64-0.112,118.859-27.887,146.588-68.581
				c1.312-1.926,2.033-4.19,2.033-6.52v-106.2C404.62,149.885,403.899,147.62,402.587,145.696z"/>
			<path fill="#FFFFFF" d="M405.376,504.5H106.623v-17.731c0-13.745,11.143-24.887,24.887-24.887h248.978
				c13.745,0,24.888,11.142,24.888,24.887L405.376,504.5L405.376,504.5z"/>
		</g>
		<g>
			<path fill="#03476B" d="M477.87,387.071V259.528c12.566-5.245,21.423-17.658,21.423-32.104v-59.058
				c0-14.445-8.856-26.856-21.423-32.102v-0.533c0-30.583-24.881-55.464-55.464-55.464l-6.203,0.128
				C379.696,31.622,321.471,0,255.999,0c-37.923,0-74.833,10.662-106.738,30.834c-3.501,2.214-4.545,6.847-2.331,10.348
				c2.213,3.502,6.848,4.544,10.347,2.332C186.781,24.859,220.918,15,255.999,15c102.013,0,185.007,82.994,185.007,185.007
				c0,102.014-82.994,185.008-185.007,185.008c-102.014,0-185.006-82.994-185.006-185.008c0-53.633,23.249-104.574,63.787-139.766
				c3.128-2.715,3.462-7.452,0.746-10.58c-2.717-3.128-7.452-3.463-10.581-0.747c-10.905,9.468-20.652,19.992-29.145,31.353h-6.208
				c-30.583,0-55.465,24.881-55.465,55.464v0.533c-12.565,5.244-21.421,17.657-21.421,32.102v59.058
				c0,14.445,8.855,26.857,21.421,32.104v127.689c-1.644,2.262-3.22,4.577-4.718,6.95c-12.879,20.407-19.688,44.007-19.688,68.247
				V504.5c0,4.143,3.357,7.5,7.5,7.5h477.552c4.144,0,7.5-3.357,7.5-7.5v-42.085C502.276,434.684,493.48,408.514,477.87,387.071
				L477.87,387.071z M432.384,318.262c-3.031-3.032-6.687-5.204-10.631-6.437c10.28-15.189,18.517-31.868,24.342-49.629h16.774
				v107.741c-7.799-7.448-16.607-13.984-26.315-19.389c2.222-3.988,3.441-8.61,3.441-13.364
				C439.995,329.996,437.221,323.099,432.384,318.262L432.384,318.262z M484.291,168.367v59.058
				c0,10.902-8.868,19.772-19.771,19.772h-14.153c3.677-15.138,5.639-30.938,5.639-47.189c0-17.769-2.342-35-6.711-51.411h15.225
				C475.423,148.595,484.291,157.465,484.291,168.367z M462.813,133.595h-18.156c-4.737-13.419-10.862-26.188-18.214-38.126
				C446.168,97.431,461.769,113.617,462.813,133.595z M255.999,400.014c62.583,0,118.536-28.901,155.237-74.049
				c0.148-0.022,0.296-0.04,0.445-0.072c3.673-0.79,7.444,0.324,10.095,2.975c2.046,2.046,3.22,5.077,3.22,8.316
				s-1.174,6.271-3.221,8.317c-22.777,22.776-48.481,40.72-76.401,53.33c-29.158,13.17-59.357,19.848-89.76,19.848
				c-59.508,0-118.23-25.703-165.354-72.374c-4.295-4.254-4.331-12.337-0.076-16.634c2.921-2.948,7.197-3.996,11.152-2.742
				c0.085,0.027,0.172,0.044,0.257,0.067C138.307,371.557,193.891,400.014,255.999,400.014z M65.904,262.197
				c5.907,18.01,14.3,34.901,24.782,50.263c-4.138,1.214-7.988,3.455-11.159,6.656c-8.184,8.265-9.634,21.556-4.393,31.618
				c-9.473,5.321-18.208,11.801-26.005,19.284V262.197H65.904z M85.505,95.473c-7.382,12.038-13.465,24.816-18.15,38.122h-18.17
				C50.228,113.635,65.803,97.458,85.505,95.473z M27.707,227.425v-59.058c0-10.902,8.869-19.771,19.771-19.771h15.247
				c-4.419,16.611-6.732,33.877-6.732,51.411c0,16.253,1.963,32.053,5.638,47.189H47.479
				C36.577,247.197,27.707,238.327,27.707,227.425z M487.276,497.001h-74.398v-10.232c0-17.858-14.529-32.387-32.389-32.387H193.066
				c-4.143,0-7.5,3.357-7.5,7.5c0,4.142,3.357,7.5,7.5,7.5h187.423c9.589,0,17.389,7.8,17.389,17.387v10.232H114.123v-10.232
				c0-9.587,7.8-17.387,17.387-17.387h31.556c4.144,0,7.5-3.358,7.5-7.5c0-4.143-3.356-7.5-7.5-7.5H131.51
				c-17.858,0-32.387,14.528-32.387,32.387v10.232H24.724v-34.585c0-42.35,23.138-80.487,60.53-100.112
				c22.619,21.267,47.809,38.217,74.987,50.421c30.969,13.905,63.058,20.956,95.372,20.956c32.546,0,64.821-7.125,95.935-21.177
				c27.094-12.237,52.184-29.201,74.704-50.459c37.667,19.548,61.023,57.892,61.023,100.37V497.001z"/>
			<path fill="#03476B" d="M103.213,141.473c-2.183,3.201-3.335,6.917-3.335,10.741v106.199c0,3.825,1.152,7.54,3.335,10.742
				c30.123,44.21,88.662,71.744,152.8,71.857c64.11-0.113,122.649-27.648,152.771-71.857c2.184-3.203,3.336-6.917,3.336-10.742
				v-106.2c0-3.823-1.152-7.539-3.336-10.741c-30.122-44.21-88.661-71.744-152.771-71.857c-0.009,0-0.019,0-0.027,0
				C191.875,69.728,133.336,97.262,103.213,141.473L103.213,141.473z M255.999,84.615c59.225,0.107,113.018,25.13,140.39,65.303
				c0.479,0.703,0.731,1.497,0.731,2.296v106.199c0,0.799-0.253,1.592-0.731,2.295c-27.374,40.176-81.173,65.199-140.376,65.305
				c-59.229-0.105-113.029-25.127-140.403-65.305c-0.479-0.702-0.73-1.496-0.73-2.295V152.214c0-0.8,0.253-1.593,0.73-2.296
				C142.982,109.745,196.775,84.723,255.999,84.615L255.999,84.615z"/>
			<path fill="#03476B" d="M149.43,162.344c1.841,0,3.684-0.674,5.132-2.032c22.191-20.831,60.115-33.302,101.427-33.359
				c41.333,0.058,79.258,12.528,101.448,33.358c3.021,2.835,7.768,2.685,10.602-0.335c2.835-3.021,2.685-7.767-0.335-10.602
				c-24.896-23.37-66.65-37.358-111.714-37.422c-45.042,0.063-86.798,14.052-111.692,37.422c-3.021,2.835-3.17,7.581-0.335,10.603
				C145.437,161.55,147.431,162.344,149.43,162.344L149.43,162.344z"/>
		</g>
	</g>
</g>
</svg>
