<svg xmlns="http://www.w3.org/2000/svg" version="1.1" xmlns:xlink="http://www.w3.org/1999/xlink" xmlns:svgjs="http://svgjs.com/svgjs" width="512" height="512" x="0" y="0" viewBox="0 0 64 64" style="enable-background:new 0 0 512 512" xml:space="preserve" class=""><g><path xmlns="http://www.w3.org/2000/svg" d="m28.451 54h17.098l-1.539-4h-14.02z" fill="#37a1da" data-original="#f0bc5e" style="" class=""></path><path xmlns="http://www.w3.org/2000/svg" d="m29.906 22.139h2.196v2h-2.196z" transform="matrix(.907 -.421 .421 .907 -6.856 15.183)" fill="#03476b" data-original="#000000" style="" class=""></path><path xmlns="http://www.w3.org/2000/svg" d="m33.492 18.432h11.018v2h-11.018z" transform="matrix(.907 -.421 .421 .907 -4.555 18.199)" fill="#03476b" data-original="#000000" style="" class=""></path><path xmlns="http://www.w3.org/2000/svg" d="m52.814 61c.241-.674.246-1.402-.014-2.078l-9.33-24.257c-.321.775-.78 1.477-1.341 2.083l8.804 22.893c.096.249.089.521-.02.766-.108.244-.306.432-.552.526-.507.191-1.105-.081-1.295-.572l-8.576-22.302c-.573.332-1.197.582-1.858.741l8.537 22.2h-20.338l8.538-22.2c-.661-.159-1.285-.409-1.858-.741l-8.577 22.3c-.19.493-.801.757-1.292.575-.25-.097-.448-.284-.556-.528s-.115-.517-.02-.766l8.805-22.893c-.562-.606-1.021-1.308-1.341-2.083l-9.33 24.258c-.26.676-.254 1.404-.014 2.078h-2.742c.344-.591.556-1.268.556-2v-22.556c.591.344 1.268.556 2 .556 2.206 0 4-1.794 4-4v-1.702l7.223-1.642-.443-1.95-2.402.546-2.587-6.468 17.923-8.306 4.139 10.348-9.003 2.046.443 1.95 16.167-3.674-.443-1.95-5.189 1.179-4.297-10.741 5.178-2.4-.841-1.814-15.456 7.162-1.193-3.34 1.121-.561c.716-.358 1.25-.974 1.503-1.735.254-.761.196-1.574-.162-2.29-.509-1.023-1.537-1.658-2.681-1.658-.462 0-.926.109-1.341.317l-8 4c-.716.358-1.25.975-1.504 1.734-.253.76-.195 1.573.163 2.291.51 1.023 1.538 1.658 2.683 1.658.463 0 .927-.109 1.341-.316l1.38-.69 1.131 3.167-6.07 2.813c-1.321-2.582-3.569-4.491-6.247-5.392 2.09-1.444 3.464-3.855 3.464-6.582 0-4.411-3.589-8-8-8s-8 3.589-8 8c0 2.732 1.378 5.146 3.474 6.59-4.339 1.474-7.474 5.579-7.474 10.41v5c0 2.206 1.794 4 4 4v24c0 2.206 1.794 4 4 4 1.2 0 2.266-.542 3-1.382.734.839 1.8 1.382 3 1.382h48v-2zm-29.814-28c0 1.103-.897 2-2 2s-2-.897-2-2v-.338l4-.909zm4.403-4.299-11.433 2.599c.007-.101.03-.197.03-.3 0-1.411-.739-2.647-1.846-3.36l10.819-5.014zm-.956-14.806c-.479.239-1.103.031-1.342-.447-.121-.243-.14-.507-.054-.764.085-.257.259-.458.501-.579l8-4c.139-.069.294-.105.448-.105.382 0 .725.212.895.554.119.238.138.509.053.763-.084.254-.262.459-.5.579zm4.077.198 1.895-.947 1.173 3.284-1.916.888zm-23.524-5.093c0-3.309 2.691-6 6-6s6 2.691 6 6-2.691 6-6 6-6-2.691-6-6zm-4 22v-5c0-4.962 4.038-9 9-9h2c3.39 0 6.407 1.872 7.951 4.823l-2.951 1.368v-2.191h-2v3.117l-6.22 2.883h-5.78v2h7c1.103 0 2 .897 2 2s-.897 2-2 2h-7c-1.103 0-2-.897-2-2zm10 28.004v-.004-19-1h-2v1 19c0 1.103-.897 2-2 2s-2-.897-2-2v-24h5c1.227 0 2.313-.567 3.048-1.44l1.952-.444v25.884c0 1.103-.897 2-2 2s-2-.896-2-1.996z" fill="#03476b" data-original="#000000" style="" class=""></path><path xmlns="http://www.w3.org/2000/svg" d="m20.472 25.764h2v2h-2z" transform="matrix(.895 -.447 .447 .895 -9.696 12.415)" fill="#03476b" data-original="#000000" style="" class=""></path><path xmlns="http://www.w3.org/2000/svg" d="m16.894 27.553h2v2h-2z" transform="matrix(.894 -.447 .447 .894 -10.88 11.017)" fill="#03476b" data-original="#000000" style="" class=""></path><path xmlns="http://www.w3.org/2000/svg" d="m59 26c-1.724 0-3.249-1.099-3.795-2.735l-4.993-13.98c-.344-1.032-.267-2.116.211-3.073.479-.957 1.299-1.669 2.312-2.007.408-.136.835-.205 1.266-.205 1.725 0 3.249 1.1 3.794 2.736l4.993 13.979c.345 1.034.268 2.118-.21 3.074s-1.299 1.668-2.312 2.006c-.407.136-.833.205-1.266.205z" fill="#37a1da" data-original="#f0bc5e" style="" class=""></path><path xmlns="http://www.w3.org/2000/svg" d="m37 39c-3.86 0-7-3.141-7-7 0-3.86 3.14-7 7-7s7 3.14 7 7c0 3.859-3.14 7-7 7zm0-9c-1.103 0-2 .897-2 2s.897 2 2 2 2-.897 2-2-.897-2-2-2z" fill="#37a1da" data-original="#f0bc5e" style="" class=""></path><path xmlns="http://www.w3.org/2000/svg" d="m37 35c-1.654 0-3-1.346-3-3s1.346-3 3-3 3 1.346 3 3-1.346 3-3 3zm0-4c-.551 0-1 .449-1 1s.449 1 1 1 1-.449 1-1-.449-1-1-1z" fill="#03476b" data-original="#000000" style="" class=""></path></g></svg>