<?xml version="1.0" encoding="utf-8"?>
<!-- Generator: Adobe Illustrator 16.0.0, SVG Export Plug-In . SVG Version: 6.00 Build 0)  -->
<!DOCTYPE svg PUBLIC "-//W3C//DTD SVG 1.1//EN" "http://www.w3.org/Graphics/SVG/1.1/DTD/svg11.dtd">
<svg version="1.1" id="Layer_1" xmlns:svgjs="http://svgjs.com/svgjs"
	 xmlns="http://www.w3.org/2000/svg" xmlns:xlink="http://www.w3.org/1999/xlink" x="0px" y="0px" width="512px" height="512px"
	 viewBox="0 0 512 512" enable-background="new 0 0 512 512" xml:space="preserve">
<g opacity="0.3">
	<path fill="#37A1DA" d="M227.608,432h136.784l-12.312-32H239.92L227.608,432z"/>
	<path fill="#03476B" d="M236.714,181.382l15.935-7.396l6.735,14.512l-15.934,7.396L236.714,181.382z"/>
	<path fill="#03476B" d="M268.656,166.534l79.947-37.109l6.735,14.513l-79.946,37.108L268.656,166.534z"/>
	<path fill="#03476B" d="M422.512,488c1.928-5.392,1.968-11.216-0.112-16.623L347.76,277.32c-2.568,6.2-6.24,11.816-10.728,16.664
		l70.432,183.145c0.768,1.991,0.712,4.168-0.16,6.128c-0.864,1.951-2.448,3.456-4.416,4.208c-4.056,1.527-8.84-0.648-10.36-4.576
		L323.92,304.472c-4.584,2.656-9.576,4.656-14.864,5.928L377.352,488H214.648l68.305-177.6c-5.288-1.271-10.28-3.271-14.864-5.928
		l-68.616,178.399c-1.52,3.944-6.408,6.057-10.336,4.601c-2-0.776-3.584-2.272-4.448-4.225c-0.863-1.951-0.92-4.136-0.16-6.128
		l70.44-183.144c-4.496-4.849-8.168-10.464-10.728-16.664L169.6,471.377c-2.08,5.407-2.032,11.231-0.112,16.623h-21.936
		c2.752-4.728,4.448-10.144,4.448-16V291.552c4.728,2.752,10.144,4.447,16,4.447c17.647,0,32-14.352,32-32v-13.616l57.784-13.136
		l-3.544-15.6l-19.217,4.368l-20.695-51.744l143.384-66.448l33.112,82.784L318.8,206.976l3.544,15.6l129.336-29.392l-3.544-15.601
		l-41.512,9.433l-34.376-85.929l41.424-19.199l-6.729-14.513l-123.647,57.296l-9.544-26.72l8.968-4.488
		c5.729-2.863,10-7.792,12.024-13.88c2.031-6.088,1.567-12.592-1.296-18.319C289.376,53.08,281.152,48,272,48
		c-3.696,0-7.408,0.872-10.729,2.536l-64,32c-5.728,2.864-10,7.8-12.031,13.872c-2.024,6.08-1.561,12.584,1.304,18.328
		c4.08,8.184,12.304,13.264,21.464,13.264c3.704,0,7.416-0.872,10.728-2.527l11.04-5.521l9.049,25.336l-48.561,22.504
		c-10.568-20.655-28.552-35.928-49.976-43.136C157.008,113.104,168,93.816,168,72c0-35.288-28.712-64-64-64S40,36.712,40,72
		c0,21.856,11.023,41.168,27.792,52.721C33.08,136.512,8,169.352,8,208v40c0,17.648,14.352,32,32,32v192c0,17.648,14.352,32,32,32
		c9.6,0,18.128-4.336,24-11.056C101.872,499.656,110.4,504,120,504h384v-16H422.512z M184,264c0,8.824-7.176,16-16,16
		s-16-7.176-16-16v-2.704l32-7.271V264z M219.224,229.608L127.76,250.4c0.056-0.809,0.24-1.576,0.24-2.4
		c0-11.288-5.912-21.176-14.769-26.88l86.553-40.112L219.224,229.608z M211.576,111.16c-3.832,1.912-8.824,0.248-10.736-3.576
		c-0.968-1.943-1.12-4.056-0.432-6.111c0.68-2.057,2.071-3.664,4.008-4.633l64-32C269.528,64.288,270.768,64,272,64
		c3.056,0,5.8,1.696,7.16,4.433c0.951,1.903,1.104,4.071,0.424,6.104c-0.672,2.032-2.097,3.672-4,4.632L211.576,111.16z
		 M244.192,112.744l15.16-7.576l9.384,26.272l-15.327,7.104L244.192,112.744z M56,72c0-26.472,21.527-48,48-48
		c26.472,0,48,21.528,48,48c0,26.473-21.528,48-48,48C77.528,120,56,98.472,56,72z M24,248v-40c0-39.695,32.304-72,72-72h16
		c27.12,0,51.256,14.977,63.607,38.584L152,185.528V168h-16v24.937L86.24,216H40v16h56c8.824,0,16,7.176,16,16s-7.176,16-16,16H40
		C31.176,264,24,256.824,24,248z M104,472.032V472V320v-8H88v8v152c0,8.824-7.176,16-16,16s-16-7.176-16-16V280h40
		c9.815,0,18.504-4.536,24.384-11.52L136,264.928V472c0,8.824-7.176,16-16,16S104,480.832,104,472.032L104,472.032z"/>
	<path fill="#03476B" d="M161.144,210.583l14.319-7.152l7.152,14.32l-14.32,7.151L161.144,210.583z"/>
	<path fill="#03476B" d="M132.316,224.782l14.304-7.152l7.152,14.305l-14.305,7.151L132.316,224.782z"/>
	<path fill="#37A1DA" d="M472,208c-13.793,0-25.992-8.792-30.36-21.88L401.696,74.28c-2.752-8.256-2.136-16.928,1.688-24.584
		c3.832-7.656,10.392-13.352,18.496-16.056c3.264-1.088,6.68-1.641,10.128-1.641c13.8,0,25.992,8.8,30.352,21.889l39.944,111.832
		c2.76,8.271,2.144,16.943-1.681,24.592c-3.823,7.647-10.392,13.344-18.495,16.048C478.871,207.448,475.464,208,472,208z"/>
	<path fill="#37A1DA" d="M296,312c-30.88,0-56-25.128-56-56c0-30.88,25.12-56,56-56s56,25.12,56,56C352,286.872,326.88,312,296,312z
		 M296,240c-8.824,0-16,7.176-16,16s7.176,16,16,16s16-7.176,16-16S304.824,240,296,240z"/>
	<path fill="#03476B" d="M296,280c-13.232,0-24-10.768-24-24c0-13.231,10.768-24,24-24c13.231,0,24,10.769,24,24
		C320,269.232,309.232,280,296,280z M296,248c-4.408,0-8,3.592-8,8s3.592,8,8,8s8-3.592,8-8S300.408,248,296,248z"/>
</g>
</svg>
