<?xml version="1.0" encoding="utf-8"?>
<!-- Generator: Adobe Illustrator 16.0.0, SVG Export Plug-In . SVG Version: 6.00 Build 0)  -->
<!DOCTYPE svg PUBLIC "-//W3C//DTD SVG 1.1//EN" "http://www.w3.org/Graphics/SVG/1.1/DTD/svg11.dtd">
<svg version="1.1" id="Layer_1" xmlns:svgjs="http://svgjs.com/svgjs"
	 xmlns="http://www.w3.org/2000/svg" xmlns:xlink="http://www.w3.org/1999/xlink" x="0px" y="0px" width="512px" height="512px"
	 viewBox="0 0 512 512" enable-background="new 0 0 512 512" xml:space="preserve">
<g opacity="0.3">
	<g>
		<g>
			<g>
				<path fill="#37A1DA" d="M184,496h-48v-64h48V496z"/>
			</g>
		</g>
		<g>
			<path fill="#37A1DA" d="M493.152,129.6L474.662,88H456c-17.648,0-32,14.354-32,32c0,8.824,7.176,16,16,16h55.23
				C494.752,133.808,494.072,131.664,493.152,129.6z"/>
		</g>
		<g>
			<path fill="#37A1DA" d="M224.04,8h-87.832C74.336,8,24,58.336,24,120.208c0,34.592,15.576,66.712,42.728,88.128l4.306,3.4
				l5.632-3.328C68.824,199.864,64,188.504,64,176c0-14.208,6.208-26.936,16.022-35.72L80,140.224V80.568
				C80,48.112,103.864,20.592,136,16h32c-32.138,4.592-56,32.112-56,64.568V128h10.688c4.2-12.104,13.058-22.16,24.648-27.832
				c8.136,7.602,18.854,11.832,29.992,11.832H248c0,0,0.496,0.672,1.296,1.816C267.48,104.568,280,85.72,280,63.96
				C280,33.104,254.896,8,224.04,8L224.04,8z"/>
		</g>
		<g>
			<path fill="#03476B" d="M500.464,126.352l-20.712-46.602C473.336,65.328,458.99,56,443.198,56h-163.83
				c0.376,2.608,0.632,5.248,0.632,7.96c0,2.729-0.2,5.416-0.584,8.04h163.782c9.474,0,18.08,5.592,21.938,14.256l20.712,46.602
				C487.272,136.064,488,139.488,488,143c0,13.784-11.218,25-25.002,25H342.88c-2.872-9.23-11.394-16-21.562-16h-44.896
				c-6.84-24.328-21.24-43.752-22.032-44.808L251.992,104H224.04v-0.08h-8.088c-8.802,0-15.96-7.159-15.96-15.96
				C200,79.16,207.16,72,215.96,72V56C198.336,56,184,70.336,184,87.96c0,5.84,1.688,11.248,4.432,15.96h-11.982
				c-8.416-0.208-16.386-3.336-22.722-8.88c-1.063-2.144-1.728-4.526-1.728-7.08c0-8.8,7.16-15.96,15.96-15.96H168l-0.04-16
				C150.336,56,136,70.336,136,87.96c0,3.072,0.576,5.984,1.384,8.801c-7.056,4.713-13.04,10.961-17.384,18.239V80.576
				c0-28.296,21.12-52.646,49.136-56.656L168,8h-32l-1.137,0.08C99.024,13.2,72,44.36,72,80.568v56.312
				c-9.88,10.104-16,23.904-16,39.12c0,30.88,25.12,56,56,56h8v48H40c-8.824,0-16,7.176-16,16v16c0,2.024,0.416,3.938,1.104,5.722
				C14.064,332.13,8,349.754,8,368.024V448c0,30.882,25.12,56,56,56h248V368.024c0-6.08-0.744-12.063-2.04-17.904
				c2.128-2.911,3.646-6.256,4.296-9.832L336.856,216H352c13.23,0,24-10.768,24-24v-8h87c22.606,0,41-18.392,41-41
				C504,137.232,502.816,131.632,500.464,126.352z M280,312h-16v-16h16V312z M88,424v-16h64v16H88z M104.976,312H72v-16h32v2.336
				C104,302.96,104.336,307.52,104.976,312z M136,263.12c8.704,8.904,20.344,14.896,33.336,16.448
				c1.352,4.022,3.704,7.56,6.814,10.32L160,302l-24-18V263.12z M120,136h16l0.008,80H120V136z M197.408,318.344l-21.218-8.488
				L194.664,296H200v2.336C200,305.208,199.072,311.912,197.408,318.344z M163.056,336h-6.112l-5.896-11.8l8.952-3.584l8.952,3.584
				L163.056,336z M216,272c0,4.4-3.584,7.984-7.984,8H192c-4.408,0-8-3.592-8-8s3.592-8,8-8h16C212.408,264,216,267.592,216,272z
				 M136.136,330.16l7.104,14.208l-2.735,6.842c-4.904-5.394-8.992-11.4-12.216-17.912L136.136,330.16z M160,366.944
				c-2.376-1.344-4.584-2.888-6.784-4.448l4.2-10.496h5.168l4.2,10.506C164.584,364.056,162.376,365.6,160,366.944z M179.504,351.21
				l-2.736-6.85l7.104-14.208l7.848,3.146C188.496,339.808,184.4,345.816,179.504,351.21z M216,298.336V296h32v16h-32.978
				C215.664,307.52,216,302.96,216,298.336z M230.528,280c0.896-2.52,1.474-5.184,1.474-8c0-3.592-0.85-6.968-2.272-10.032
				c7.544-2.238,14.464-6.326,20.192-12.048c1.416-1.416,2.695-2.928,3.912-4.472L257.128,280H230.528z M263.8,171.072l-15.8,7.904
				v36.992v0.038h-14.112c-7.984,0-15.16-4.438-18.728-11.574l-14.313,7.158c6.304,12.602,18.96,20.426,33.04,20.426h9.664
				c-1.376,2.358-2.952,4.614-4.937,6.6c-6.049,6.04-13.809,9.16-22.688,9.36L207.96,248H192c-10.186,0-18.85,6.394-22.328,15.36
				c-16.44-2.64-29.602-15.216-32.872-31.44c8.448-0.432,15.2-7.366,15.2-15.92v-80c0-8.824-7.176-16-16-16h-0.064
				c2.648-3.616,5.864-6.784,9.544-9.368c5.776,5.729,13.722,9.28,22.48,9.28h8.336c0.344,0.018,0.68,0.088,1.032,0.088h66.504
				C249.104,127.888,262.048,149.232,263.8,171.072z M128.84,25.744C113.56,39.296,104,59.04,104,80.568v40.072
				c-5.648,0.814-11.024,2.464-16,4.84V80.568C88,55.144,105.056,32.896,128.84,25.744z M72,176c0-19.312,13.768-35.472,32-39.19
				v78.384C85.768,211.472,72,195.312,72,176z M125.336,296l18.479,13.856l-21.216,8.488c-1.672-6.434-2.6-13.138-2.6-20.01V296
				H125.336z M40,296h16v16H40V296z M64,488c-22.058,0-40-17.942-40-40v-79.976c0-14.608,4.792-28.712,13.544-40.28
				C38.352,327.872,39.16,328,40,328h68.752c7.224,22.098,22.398,40.938,43.248,52.754V392H88v-25.888l-8.84-17.688l-14.313,7.16
				L72,369.888v58.8l-13.656,13.656l11.312,11.312L83.312,440h96l11.536-11.534c2.84-2.832,6.77-4.466,10.784-4.466
				c5.814,0,11.04,3.232,13.64,8.434l3.784,7.566H224c13.23,0,24,10.77,24,24c0,13.232-10.77,24-24,24H64z M296,488h-32V369.888
				l7.16-14.313l-14.313-7.16L248,366.112v65.992c-5.416-4.088-11.864-6.888-18.912-7.784c-5.48-10.096-15.904-16.32-27.456-16.32
				c-8.344,0-16.192,3.248-22.096,9.152L172.688,424H168v-43.246c20.848-11.816,36.032-30.656,43.248-52.754H280
				c0.84,0,1.646-0.118,2.456-0.246C291.208,339.32,296,353.416,296,368.024V488z M327.888,175.872l-27.32,150.266
				c-1.712-2.912-3.606-5.722-5.672-8.416c0.688-1.784,1.104-3.704,1.104-5.72V296c0-8.822-7.176-16-16-16h-6.8l-8.714-91.376
				l15.514-7.76v-4.944c0-2.654-0.192-5.296-0.464-7.92h41.782c3.682,0,6.682,3,6.682,6.672
				C328,175.064,327.968,175.456,327.888,175.872z M360,192c0,4.408-3.592,8-8,8h-12.232l2.912-16H360V192z"/>
			<path fill="#03476B" d="M224,159.92c13.23,0,24-10.768,24-24h-16c0,4.408-3.592,8-8,8s-8-3.592-8-8h-16
				C200,149.152,210.768,159.92,224,159.92z"/>
		</g>
		<g>
			<g>
				<path fill="#37A1DA" d="M304,136c-13.232,0-24-10.768-24-24c0-13.23,10.768-24,24-24c13.23,0,24,10.77,24,24
					C328,125.232,317.232,136,304,136z"/>
			</g>
		</g>
		<g>
			<g>
				<path fill="#37A1DA" d="M368,136c-13.232,0-24-10.768-24-24c0-13.23,10.768-24,24-24c13.23,0,24,10.77,24,24
					C392,125.232,381.232,136,368,136z"/>
			</g>
		</g>
	</g>
</g>
</svg>
