<svg xmlns="http://www.w3.org/2000/svg" version="1.1" xmlns:xlink="http://www.w3.org/1999/xlink" xmlns:svgjs="http://svgjs.com/svgjs" width="512" height="512" x="0" y="0" viewBox="0 0 62 61.997" style="enable-background:new 0 0 512 512" xml:space="preserve" class=""><g><g xmlns="http://www.w3.org/2000/svg"><g><path d="m39.038 20.503c-2.51-2.053-4.095-5.189-4.035-8.699-1.118-.663-2.4-.956-3.785-.747-1.272-2.28-3.943-3.546-6.612-2.887-1.133-1.373-2.806-2.173-4.606-2.173s-3.473.8-4.606 2.173c-2.666-.659-5.34.607-6.612 2.887-.268-.041-.525-.06-.781-.06-3.309 0-6 2.691-6 6 0 .171.008.345.025.521-1.279 1.135-2.026 2.767-2.026 4.479 0 1.939.945 3.769 2.527 4.894l.26.185h.22c0-.027-.007-.052-.007-.079 0-2.209 1.791-4 4-4 0-2.761 2.239-5 5-5l2.31.001c1.272 1.838 3.373 2.999 5.69 2.999h11c1.105 0 2 .895 2 2 2.209 0 4 1.791 4 4 0 .027-.007.052-.008.079h.22l.26-.185c1.583-1.125 2.528-2.954 2.528-4.894v-.475c-.275-.373-.595-.718-.962-1.019z" fill="#37a1da" data-original="#f0bc5e" style="" class=""></path></g><g><path d="m38.405 21.277c1.013.829 1.595 1.994 1.595 3.195v1.525c0 3.309 2.691 6 6 6s6-2.691 6-6v-1.53c0-1.207.563-2.355 1.544-3.149 2.832-2.29 4.456-5.688 4.456-9.321 0-3.411-1.459-6.671-4.002-8.947-2.542-2.273-5.958-3.355-9.375-2.976-5.265.588-9.67 4.802-10.475 10.021-.662 4.281.93 8.461 4.257 11.182zm7.595 8.72c-2.206 0-4-1.794-4-4h8c0 2.206-1.794 4-4 4zm-9.876-19.597c.67-4.341 4.337-7.848 8.72-8.338.393-.043.783-.065 1.169-.065 2.466 0 4.793.883 6.651 2.545 2.12 1.895 3.336 4.613 3.336 7.455 0 3.026-1.354 5.857-3.713 7.766-1.327 1.073-2.129 2.597-2.26 4.234h-8.055c-.135-1.63-.952-3.165-2.301-4.268-2.773-2.268-4.099-5.756-3.547-9.329z" fill="#03476b" data-original="#000000" style="" class=""></path><path d="m25 33.997v-2h-10v2c0 2.757 2.243 5 5 5s5-2.243 5-5zm-5 3c-1.654 0-3-1.346-3-3h6c0 1.655-1.346 3-3 3z" fill="#03476b" data-original="#000000" style="" class=""></path><path d="m17 28.997h2c0-2.757-2.243-5-5-5s-5 2.243-5 5h2c0-1.654 1.346-3 3-3s3 1.346 3 3z" fill="#03476b" data-original="#000000" style="" class=""></path><path d="m26 25.997c1.654 0 3 1.346 3 3h2c0-2.757-2.243-5-5-5s-5 2.243-5 5h2c0-1.654 1.346-3 3-3z" fill="#03476b" data-original="#000000" style="" class=""></path><path d="m26 51.997h6v2h-6z" fill="#03476b" data-original="#000000" style="" class=""></path><path d="m27 55.997h4v2h-4z" fill="#03476b" data-original="#000000" style="" class=""></path><path d="m47 15.997h-2c-.551 0-1-.449-1-1h-2c0 1.654 1.346 3 3 3v2h2v-2c1.654 0 3-1.346 3-3s-1.346-3-3-3h-2c-.551 0-1-.449-1-1s.449-1 1-1h2c.551 0 1 .449 1 1h2c0-1.654-1.346-3-3-3v-2h-2v2c-1.654 0-3 1.346-3 3s1.346 3 3 3h2c.551 0 1 .449 1 1s-.449 1-1 1z" fill="#03476b" data-original="#000000" style="" class=""></path><path d="m56 55.997h-2v-12h-6v12h-2v-8h-6v8h-1v-2c0-1.103-.897-2-2-2h-1v-3c0-1.654-1.346-3-3-3h-1c0-1.103-.897-2-2-2h-1.357c-.739-.581-1.531-1.081-2.364-1.499 4.469-1.398 7.721-5.577 7.721-10.501v-.101c2.279-.465 4-2.484 4-4.899 0-2.468-1.802-4.512-4.158-4.915-.389-1.205-1.509-2.085-2.842-2.085h-11c-2.56 0-4.823-1.631-5.632-4.06l-.419-1.256-1.897.633.419 1.256c.048.145.1.287.156.427h-.627c-3 0-5.485 2.215-5.924 5.093-2.316.436-4.076 2.467-4.076 4.907 0 2.414 1.721 4.434 4 4.899v.101c0 4.926 3.254 9.105 7.726 10.502-4.574 2.306-7.726 7.036-7.726 12.498 0 3.86 3.14 7 7 7h4 5 .171 13.829 1c1.103 0 2-.897 2-2v-2h23v-19h-6zm-52-29c0-1.302.839-2.402 2-2.816v5.631c-1.161-.413-2-1.513-2-2.815zm29 21c.551 0 1 .449 1 1v3.78c-.609.549-1 1.337-1 2.22v4c0 .352.072.686.184 1h-7.67c.3-.546.486-1.163.486-1.829v-2.343c0-1.446-.815-2.691-2-3.343v-3.486c0-.551.449-1 1-1h1c0 1.103.897 2 2 2h2c1.103 0 2-.897 2-2h1zm-2.999 0h-2.001v-2h2zm-10.001-5c.909 0 1.808.114 2.684.316-.496.999-1.525 1.684-2.684 1.684s-2.19-.686-2.685-1.686c.865-.199 1.761-.314 2.685-.314zm16-16c0 1.302-.839 2.402-2 2.816v-5.631c1.161.414 2 1.513 2 2.815zm-19 14c-4.962 0-9-4.038-9-9v-9c0-2.206 1.794-4 4-4h1.783c1.475 1.859 3.742 3 6.217 3h11c.551 0 1 .449 1 1v9c0 4.962-4.038 9-9 9zm-4 19c-2.757 0-5-2.243-5-5 0-4.989 3.062-9.273 7.404-11.081.766 1.813 2.562 3.081 4.596 3.081 2.032 0 3.825-1.265 4.593-3.074.617.256 1.212.562 1.78.919-.233.327-.373.724-.373 1.155h-1c-1.654 0-3 1.346-3 3v3.017c-.957.043-1.854.423-2.536 1.105l-.079.079c-.548-.725-1.409-1.201-2.385-1.201h-2v-4h-2v4.586l-2.707 2.707 1.414 1.414 2.707-2.707h2.586c.551 0 1 .449 1 1v4c0 .551-.449 1-1 1zm9 0h-2.184c.112-.314.184-.648.184-1v-3.586l.878-.878c.346-.345.805-.536 1.293-.536 1.008 0 1.829.82 1.829 1.829v2.343c0 1.008-.82 1.829-1.829 1.829h-.171zm15 0h-1c-.551 0-1-.449-1-1v-4c0-.551.449-1 1-1h1zm13-14h2v10h-2zm-8 4h2v6h-2zm16-9h2v15h-2z" fill="#03476b" data-original="#000000" style="" class=""></path><path d="m56 28.997v2h2.586l-7.586 7.586-2.964-2.964-10.705 9.635 1.338 1.486 9.295-8.365 3.036 3.036 9-9v2.586h2v-6z" fill="#03476b" data-original="#000000" style="" class=""></path></g></g></g></svg>