<?xml version="1.0" encoding="utf-8"?>
<!-- Generator: Adobe Illustrator 16.0.0, SVG Export Plug-In . SVG Version: 6.00 Build 0)  -->
<!DOCTYPE svg PUBLIC "-//W3C//DTD SVG 1.1//EN" "http://www.w3.org/Graphics/SVG/1.1/DTD/svg11.dtd">
<svg version="1.1" id="Layer_1" xmlns:svgjs="http://svgjs.com/svgjs"
	 xmlns="http://www.w3.org/2000/svg" xmlns:xlink="http://www.w3.org/1999/xlink" x="0px" y="0px" width="512px" height="512px"
	 viewBox="0 0 512 512" enable-background="new 0 0 512 512" xml:space="preserve">
<g opacity="0.3">
	<g>
		<g>
			<path fill="#37A1DA" d="M322.378,169.328c-20.728-16.954-33.816-42.852-33.321-71.837c-9.232-5.476-19.819-7.896-31.257-6.169
				c-10.504-18.828-32.562-29.283-54.603-23.841c-9.356-11.339-23.172-17.945-38.036-17.945s-28.681,6.606-38.037,17.945
				c-22.016-5.442-44.098,5.013-54.602,23.841c-2.214-0.339-4.336-0.496-6.45-0.496c-27.325,0-49.548,22.223-49.548,49.549
				c0,1.412,0.065,2.849,0.206,4.303C6.169,154.051,0,167.527,0,181.665c0,16.013,7.804,31.125,20.868,40.415l2.146,1.528h1.817
				c0-0.224-0.058-0.43-0.058-0.652c0-18.242,14.79-33.032,33.032-33.032c0-22.801,18.489-41.291,41.29-41.291l19.076,0.009
				c10.504,15.178,27.854,24.766,46.988,24.766H256c9.125,0,16.516,7.391,16.516,16.517c18.242,0,33.032,14.79,33.032,33.032
				c0,0.223-0.058,0.429-0.065,0.652h1.816l2.147-1.528c13.072-9.29,20.876-24.395,20.876-40.415v-3.922
				C328.052,174.662,325.409,171.813,322.378,169.328L322.378,169.328z"/>
		</g>
		<g>
			<path fill="#03476B" d="M317.151,175.719c8.365,6.846,13.172,16.467,13.172,26.385v12.593c0,27.326,22.223,49.549,49.549,49.549
				c27.325,0,49.548-22.223,49.548-49.549v-12.635c0-9.967,4.649-19.447,12.75-26.005c23.388-18.91,36.798-46.972,36.798-76.973
				c0-28.169-12.048-55.09-33.048-73.885c-20.992-18.771-49.202-27.706-77.42-24.576c-43.479,4.855-79.855,39.655-86.503,82.754
				C276.53,118.73,289.676,153.249,317.151,175.719L317.151,175.719z M379.871,247.729c-18.218,0-33.032-14.814-33.032-33.032
				h66.063C412.903,232.915,398.088,247.729,379.871,247.729z M298.315,85.896c5.532-35.849,35.814-64.81,72.01-68.855
				c3.245-0.355,6.466-0.537,9.654-0.537c20.363,0,39.58,7.292,54.924,21.017c17.507,15.649,27.549,38.095,27.549,61.564
				c0,24.988-11.182,48.367-30.662,64.132c-10.959,8.861-17.582,21.446-18.663,34.965h-66.519
				c-1.115-13.461-7.862-26.137-19.002-35.246C304.706,144.207,293.756,115.402,298.315,85.896z"/>
			<path fill="#03476B" d="M206.451,280.761v-16.516h-82.58v16.516c0,22.768,18.522,41.291,41.29,41.291
				S206.451,303.529,206.451,280.761z M165.161,305.536c-13.659,0-24.774-11.115-24.774-24.774h49.549
				C189.936,294.428,178.821,305.536,165.161,305.536z"/>
			<path fill="#03476B" d="M140.387,239.471h16.517c0-22.768-18.523-41.29-41.291-41.29s-41.29,18.522-41.29,41.29h16.517
				c0-13.659,11.115-24.774,24.773-24.774C129.272,214.697,140.387,225.812,140.387,239.471z"/>
			<path fill="#03476B" d="M214.709,214.697c13.659,0,24.774,11.115,24.774,24.774H256c0-22.768-18.523-41.29-41.291-41.29
				c-22.767,0-41.29,18.522-41.29,41.29h16.517C189.936,225.812,201.051,214.697,214.709,214.697z"/>
			<path fill="#03476B" d="M214.709,429.407h49.549v16.517h-49.549V429.407z"/>
			<path fill="#03476B" d="M222.968,462.439H256v16.517h-33.032V462.439z"/>
			<path fill="#03476B" d="M388.129,132.117h-16.517c-4.55,0-8.258-3.708-8.258-8.259h-16.516c0,13.659,11.115,24.774,24.773,24.774
				v16.517h16.517v-16.517c13.658,0,24.773-11.115,24.773-24.774c0-13.658-11.115-24.773-24.773-24.773h-16.517
				c-4.55,0-8.258-3.708-8.258-8.259c0-4.55,3.708-8.258,8.258-8.258h16.517c4.55,0,8.258,3.708,8.258,8.258h16.516
				c0-13.658-11.115-24.773-24.773-24.773V49.536h-16.517v16.517c-13.658,0-24.773,11.115-24.773,24.773
				c0,13.659,11.115,24.774,24.773,24.774h16.517c4.55,0,8.258,3.708,8.258,8.258C396.387,128.409,392.679,132.117,388.129,132.117z
				"/>
			<path fill="#03476B" d="M462.451,462.439h-16.517v-99.097h-49.548v99.097h-16.516v-66.064h-49.549v66.064h-8.258v-16.516
				c0-9.109-7.407-16.517-16.517-16.517h-8.258v-24.774c0-13.658-11.115-24.773-24.774-24.773h-8.258
				c0-9.109-7.407-16.517-16.517-16.517h-11.206c-6.103-4.798-12.643-8.927-19.521-12.379c36.905-11.545,63.76-46.056,63.76-86.718
				v-0.834c18.82-3.84,33.033-20.514,33.033-40.456c0-20.381-14.882-37.261-34.338-40.589c-3.212-9.951-12.461-17.218-23.469-17.218
				h-90.839c-21.141,0-39.829-13.469-46.51-33.528l-3.46-10.372l-15.665,5.228l3.46,10.372c0.396,1.197,0.825,2.37,1.288,3.526
				h-5.178c-24.774,0-45.296,18.292-48.921,42.059c-19.126,3.601-33.66,20.372-33.66,40.522c0,19.935,14.212,36.616,33.032,40.456
				v0.834c0,40.679,26.872,75.189,63.802,86.727c-37.772,19.043-63.802,58.104-63.802,103.209c0,31.876,25.931,57.807,57.807,57.807
				h33.032h41.29h1.412H297.29h8.258c9.109,0,16.517-7.407,16.517-16.517v-16.516H512V322.052h-49.549V462.439z M33.032,222.956
				c0-10.752,6.929-19.836,16.516-23.255v46.501C39.961,242.792,33.032,233.708,33.032,222.956z M272.516,396.375
				c4.551,0,8.258,3.708,8.258,8.258v31.216c-5.028,4.534-8.258,11.041-8.258,18.333v33.032c0,2.907,0.595,5.665,1.52,8.258h-63.339
				c2.478-4.509,4.013-9.604,4.013-15.104v-19.349c0-11.941-6.729-22.223-16.516-27.606v-28.788c0-4.55,3.708-8.258,8.258-8.258
				h8.258c0,9.108,7.408,16.516,16.517,16.516h16.516c9.109,0,16.517-7.407,16.517-16.516h8.258V396.375z M247.75,396.375h-16.524
				v-16.516h16.516L247.75,396.375z M165.161,355.085c7.507,0,14.931,0.941,22.164,2.609c-4.096,8.25-12.593,13.906-22.164,13.906
				s-18.085-5.665-22.173-13.923C150.132,356.034,157.531,355.085,165.161,355.085z M297.29,222.956
				c0,10.752-6.929,19.836-16.517,23.254v-46.501C290.362,203.128,297.29,212.204,297.29,222.956z M140.387,338.568
				c-40.977,0-74.322-33.346-74.322-74.322v-74.322c0-18.218,14.814-33.032,33.032-33.032h14.724
				c12.181,15.352,30.902,24.773,51.341,24.773H256c4.55,0,8.258,3.708,8.258,8.259v74.322c0,40.977-33.346,74.322-74.322,74.322
				H140.387z M107.355,495.471c-22.768,0-41.29-18.522-41.29-41.29c0-41.199,25.286-76.577,61.143-91.508
				c6.325,14.972,21.157,25.443,37.954,25.443c16.78,0,31.587-10.446,37.929-25.386c5.096,2.114,10.009,4.642,14.7,7.59
				c-1.925,2.7-3.081,5.979-3.081,9.538h-8.258c-13.658,0-24.774,11.115-24.774,24.773v24.915
				c-7.902,0.355-15.31,3.493-20.942,9.125l-0.652,0.652c-4.525-5.987-11.636-9.918-19.695-9.918h-16.516v-33.032h-16.517v37.872
				L85,456.601l11.677,11.677l22.354-22.354h21.355c4.551,0,8.258,3.708,8.258,8.258v33.032c0,4.55-3.707,8.258-8.258,8.258H107.355
				z M181.677,495.471h-18.035c0.925-2.593,1.52-5.351,1.52-8.258V457.6l7.25-7.251c2.857-2.849,6.648-4.426,10.678-4.426
				c8.324,0,15.104,6.771,15.104,15.104v19.349c0,8.324-6.771,15.104-15.104,15.104h-1.412V495.471z M305.548,495.471h-8.258
				c-4.55,0-8.258-3.708-8.258-8.258v-33.032c0-4.55,3.708-8.258,8.258-8.258h8.258V495.471z M412.903,379.859h16.517v82.58h-16.517
				V379.859z M346.839,412.891h16.516v49.548h-16.516V412.891z M478.967,338.568h16.517v123.871h-16.517V338.568z"/>
			<path fill="#03476B" d="M462.451,239.471v16.517h21.355l-62.646,62.646l-24.478-24.478l-88.402,79.567l11.05,12.271
				l76.759-69.079l25.071,25.071l74.322-74.322v21.355H512v-49.549H462.451z"/>
		</g>
	</g>
</g>
</svg>
