<svg xmlns="http://www.w3.org/2000/svg" version="1.1" xmlns:xlink="http://www.w3.org/1999/xlink" xmlns:svgjs="http://svgjs.com/svgjs" width="512" height="512" x="0" y="0" viewBox="0 0 64 64" style="enable-background:new 0 0 512 512" xml:space="preserve" class=""><g><g xmlns="http://www.w3.org/2000/svg"><g><circle cx="32" cy="48" fill="#37a1da" r="11" data-original="#f0bc5e" style="" class=""></circle></g><g><path d="m22.826 23.24c-.422 1.319-.256 2.768.461 3.969 1.351-.488 2.769-.819 4.229-.965.734-.073 1.368-.545 1.649-1.226l.557-1.347h.018c-3.316-.975-5.74-4.038-5.74-7.671v-6c0-.63.296-1.222.8-1.6l3.2-2.4h6l4.894 2.447c.678.339 1.106 1.032 1.106 1.789v5.764c0 3.633-2.423 6.695-5.74 7.671h.018l.557 1.347c.282.682.916 1.153 1.649 1.226 1.46.146 2.878.477 4.229.965.717-1.201.884-2.651.461-3.969l.085-.085c1.123-1.123 1.741-2.615 1.741-4.203 0-.759-.143-1.502-.425-2.207-1.045-2.613-1.575-5.364-1.575-8.178 0-4.172-3.395-7.567-7.567-7.567h-2.865c-4.173 0-7.568 3.395-7.568 7.567 0 2.813-.53 5.564-1.575 8.178-.282.705-.425 1.448-.425 2.207 0 1.588.618 3.08 1.741 4.203z" fill="#37a1da" data-original="#f0bc5e" style="" class=""></path></g><g><circle cx="28" cy="12" r="1" fill="#03476b" data-original="#000000" style="" class=""></circle><circle cx="36" cy="12" r="1" fill="#03476b" data-original="#000000" style="" class=""></circle><path d="m27.303 17.332c.54 2.16 2.471 3.668 4.697 3.668s4.157-1.508 4.697-3.668l.584-2.332h-10.562zm7.412-.332c-.367 1.186-1.462 2-2.715 2s-2.348-.814-2.715-2z" fill="#03476b" data-original="#000000" style="" class=""></path><path d="m57 22v-3h1c2.757 0 5-2.243 5-5v-1h-3c-1.13 0-2.162.391-3 1.026v-.026c0-2.757-2.243-5-5-5h-3v1c0 2.757 2.243 5 5 5h1v3 .026c-.838-.635-1.87-1.026-3-1.026h-3v1c0 2.757 2.243 5 5 5h1v4.078c-1.138.216-2.147.913-2.731 1.938l-2.316 4.054c-3.089-4.392-7.993-7.283-13.369-7.82-.367-.036-.684-.271-.825-.612l-.162-.391c3.176-1.393 5.403-4.563 5.403-8.247v-5.764c0-1.144-.636-2.172-1.658-2.684l-4.895-2.447-.895 1.789 4.895 2.447c.341.171.553.513.553.895v5.764c0 3.859-3.141 7-7 7s-7-3.141-7-7v-6c0-.313.149-.612.399-.8l2.663-1.997 4.423 2.654 1.029-1.715-5.577-3.346-3.737 2.805c-.752.562-1.2 1.46-1.2 2.399v6c0 3.684 2.227 6.854 5.404 8.245l-.161.391c-.142.342-.458.577-.825.613-5.434.543-10.385 3.49-13.467 7.961l-3.239-4.536c-.438-.611-1.036-1.073-1.712-1.356v-4.318-1-3h1c2.757 0 5-2.243 5-5v-1h-3c-1.13 0-2.162.391-3 1.026v-.026c0-2.757-2.243-5-5-5h-3v1c0 2.757 2.243 5 5 5h1v3 .026c-.838-.635-1.87-1.026-3-1.026h-3v1c0 2.757 2.243 5 5 5h1v4h-3.315c-1.481 0-2.685 1.204-2.685 2.685 0 1.234.836 2.306 2.034 2.604l2.277.569 2.853 5.706c1.367 2.737 4.118 4.436 7.178 4.436.92 0 1.84-.163 2.706-.472-.668 1.697-1.048 3.54-1.048 5.472 0 8.271 6.729 15 15 15s15-6.729 15-15c0-1.932-.38-3.775-1.048-5.472.867.309 1.786.472 2.706.472 3.06 0 5.811-1.699 7.178-4.436l2.853-5.706 2.277-.569c1.198-.299 2.034-1.37 2.034-2.604 0-1.481-1.204-2.685-2.685-2.685h-3.315v-4zm3-7h.829c-.413 1.164-1.525 2-2.829 2h-.829c.413-1.164 1.525-2 2.829-2zm-6-2c-1.304 0-2.416-.836-2.829-2h.829c1.304 0 2.416.836 2.829 2zm-42 2h.829c-.413 1.164-1.525 2-2.829 2h-.829c.413-1.164 1.525-2 2.829-2zm-6-2c-1.304 0-2.416-.836-2.829-2h.829c1.304 0 2.416.836 2.829 2zm0 8c-1.304 0-2.416-.836-2.829-2h.829c1.304 0 2.416.836 2.829 2zm26 4c.574 0 1.133-.06 1.677-.163l.233.564c.142.343.359.632.605.893l-.007.022c-.137.41-.519.684-.949.684h-3.117c-.431 0-.813-.274-.948-.683l-.008-.024c.245-.261.462-.55.605-.893l.233-.563c.543.103 1.102.163 1.676.163zm-4.384 2.239c.032-.003.061-.018.093-.022.478 1.074 1.538 1.783 2.732 1.783h3.117c1.194 0 2.253-.708 2.733-1.783.032.004.06.019.093.022 3.96.396 7.631 2.225 10.343 5.055l-4.041 5.195c-.816-.83-1.733-1.556-2.723-2.179l.608-1.215c.281-.563.43-1.192.43-1.821 0-1.089-.424-2.112-1.193-2.882l-.1-.1-1.414 1.414.1.1c.39.392.606.914.606 1.468 0 .32-.076.642-.219.928l-.579 1.156c-1.604-.732-3.357-1.185-5.202-1.308v-2.05h-2v2.051c-1.846.123-3.599.576-5.203 1.308l-.578-1.156c-.143-.287-.219-.608-.219-.929 0-.555.216-1.076.607-1.468l.1-.1-1.414-1.414-.1.1c-.769.77-1.193 1.794-1.193 2.882 0 .629.148 1.258.43 1.822l.607 1.214c-.99.623-1.906 1.35-2.723 2.18l-4.041-5.196c2.712-2.829 6.383-4.659 10.343-5.055zm9.384 20.761c0 1.697-.271 3.383-.769 5h-8.461c-.499-1.617-.77-3.303-.77-5s.271-3.383.769-5h8.461c.499 1.617.77 3.303.77 5zm-5 12.334-1.601-2.134c-.745-.993-1.366-2.072-1.874-3.2h6.95c-.509 1.128-1.13 2.207-1.874 3.2zm-3.475-19.334c.509-1.128 1.13-2.207 1.874-3.2l1.601-2.134 1.601 2.134c.745.993 1.366 2.072 1.874 3.2zm1.331-5.808-1.056 1.409c-1.012 1.349-1.824 2.836-2.443 4.399h-5.294c1.945-3.028 5.107-5.192 8.793-5.808zm5.344 1.409-1.056-1.408c3.686.616 6.848 2.78 8.793 5.808h-5.294c-.619-1.564-1.431-3.051-2.443-4.4zm-17.164 3.763c-.832.416-1.765.636-2.694.636-2.297 0-4.362-1.276-5.389-3.33l-3.265-6.528-3.17-.792c-.305-.078-.518-.351-.518-.665 0-.378.307-.685.685-.685h3.771c.645 0 1.253.313 1.628.837l4.99 6.987.95-1.589c.286-.478.6-.936.93-1.379l4.038 5.192c-.134.18-.277.353-.404.539zm1.967 2.636h5.687c-.446 1.626-.69 3.308-.69 5s.244 3.374.69 5h-5.687c-.644-1.54-1.003-3.229-1.003-5s.359-3.46 1.003-5zm1.06 12h5.294c.619 1.563 1.431 3.05 2.443 4.399l1.056 1.408c-3.686-.615-6.848-2.779-8.793-5.807zm13.081 5.808 1.056-1.408c1.012-1.349 1.824-2.836 2.443-4.399h5.294c-1.945 3.027-5.107 5.191-8.793 5.807zm9.853-7.808h-5.687c.445-1.626.69-3.308.69-5s-.244-3.374-.69-5h5.687c.644 1.54 1.003 3.229 1.003 5s-.359 3.46-1.003 5zm17.003-23.315c0 .314-.213.588-.519.665l-3.17.792-3.265 6.528c-1.025 2.054-3.091 3.33-5.388 3.33-.93 0-1.862-.22-2.694-.636l-1.552-.777c-.127-.186-.269-.36-.404-.54l4.038-5.191c.33.443.644.901.93 1.38l1.044 1.744 3.985-6.974c.354-.62 1.02-1.006 1.736-1.006h4.574c.378 0 .685.307.685.685zm-7-8.685c-1.304 0-2.416-.836-2.829-2h.829c1.304 0 2.416.836 2.829 2z" fill="#03476b" data-original="#000000" style="" class=""></path></g></g></g></svg>