<?xml version="1.0" encoding="utf-8"?>
<!-- Generator: Adobe Illustrator 16.0.0, SVG Export Plug-In . SVG Version: 6.00 Build 0)  -->
<!DOCTYPE svg PUBLIC "-//W3C//DTD SVG 1.1//EN" "http://www.w3.org/Graphics/SVG/1.1/DTD/svg11.dtd">
<svg version="1.1" id="Layer_1" xmlns:svgjs="http://svgjs.com/svgjs"
	 xmlns="http://www.w3.org/2000/svg" xmlns:xlink="http://www.w3.org/1999/xlink" x="0px" y="0px" width="512px" height="512px"
	 viewBox="0 0 512 512" enable-background="new 0 0 512 512" xml:space="preserve">
<g opacity="0.3">
	<g>
		<g>
			<circle fill="#37A1DA" cx="256" cy="384" r="88"/>
		</g>
		<g>
			<path fill="#37A1DA" d="M182.608,185.92c-3.376,10.553-2.048,22.145,3.688,31.752c10.808-3.903,22.151-6.552,33.832-7.72
				c5.872-0.584,10.943-4.36,13.191-9.808l4.456-10.776h0.145C211.392,181.568,192,157.064,192,128V80
				c0-5.04,2.368-9.775,6.399-12.8L224,48h48l39.151,19.576c5.425,2.712,8.849,8.256,8.849,14.313V128
				c0,29.064-19.384,53.561-45.92,61.368h0.144l4.456,10.776c2.256,5.456,7.328,9.224,13.192,9.808
				c11.68,1.168,23.023,3.816,33.832,7.72c5.735-9.607,7.071-21.208,3.688-31.752l0.68-0.68c8.984-8.984,13.929-20.92,13.929-33.624
				c0-6.072-1.145-12.016-3.4-17.656C332.24,113.056,328,91.048,328,68.536C328,35.16,300.84,8,267.464,8h-22.92
				C211.16,8,184,35.16,184,68.536c0,22.504-4.24,44.512-12.601,65.424C169.144,139.6,168,145.544,168,151.616
				c0,12.704,4.943,24.64,13.928,33.624L182.608,185.92z"/>
		</g>
		<g>
			<circle fill="#03476B" cx="224" cy="96" r="8"/>
			<circle fill="#03476B" cx="288" cy="96" r="8"/>
			<path fill="#03476B" d="M218.424,138.656C222.744,155.936,238.192,168,256,168c17.808,0,33.256-12.063,37.576-29.344L298.248,120
				h-84.496L218.424,138.656z M277.72,136c-2.936,9.488-11.696,16-21.72,16c-10.024,0-18.784-6.512-21.721-16H277.72z"/>
			<path fill="#03476B" d="M456,176v-24h8c22.056,0,40-17.943,40-40v-8h-24c-9.04,0-17.297,3.128-24,8.208V112
				c0-22.056-17.944-40-40-40h-24v8c0,22.057,17.943,40,40,40h8v24v0.208c-6.704-5.08-14.961-8.208-24-8.208h-24v8
				c0,22.057,17.943,40,40,40h8v32.624c-9.104,1.729-17.177,7.305-21.849,15.504l-18.528,32.433
				C374.912,229.424,335.68,206.296,292.672,202c-2.937-0.288-5.472-2.168-6.601-4.896l-1.296-3.128
				C310.184,182.832,328,157.472,328,128V81.888c0-9.152-5.088-17.376-13.265-21.473L275.576,40.84l-7.16,14.313l39.16,19.576
				c2.728,1.368,4.424,4.104,4.424,7.16V128c0,30.872-25.128,56-56,56s-56-25.128-56-56V80c0-2.504,1.191-4.896,3.191-6.399
				l21.305-15.977l35.384,21.232l8.231-13.72l-44.615-26.769L193.6,60.808C187.584,65.304,184,72.488,184,80v48
				c0,29.473,17.815,54.832,43.231,65.96l-1.288,3.128c-1.136,2.736-3.664,4.616-6.6,4.904
				c-43.472,4.344-83.08,27.92-107.736,63.688l-25.912-36.288c-3.504-4.889-8.287-8.584-13.695-10.849V184v-8v-24h8
				c22.056,0,40-17.943,40-40v-8H96c-9.04,0-17.296,3.128-24,8.208V112c0-22.056-17.944-40-40-40H8v8c0,22.057,17.943,40,40,40h8v24
				v0.208C49.296,139.128,41.04,136,32,136H8v8c0,22.057,17.943,40,40,40h8v32H29.48C17.632,216,8,225.632,8,237.48
				c0,9.872,6.688,18.448,16.271,20.832l18.216,4.552l22.824,45.648c10.937,21.896,32.944,35.488,57.424,35.488
				c7.36,0,14.721-1.305,21.648-3.776c-5.344,13.576-8.384,28.32-8.384,43.776c0,66.168,53.832,120,120,120s120-53.832,120-120
				c0-15.456-3.04-30.2-8.384-43.776c6.936,2.472,14.287,3.776,21.647,3.776c24.479,0,46.488-13.593,57.424-35.488l22.824-45.648
				l18.216-4.552C497.312,255.92,504,247.352,504,237.48c0-11.849-9.633-21.48-21.48-21.48H456v-32V176z M480,120h6.632
				c-3.305,9.313-12.2,16-22.632,16h-6.633C460.672,126.688,469.568,120,480,120z M432,104c-10.433,0-19.328-6.688-22.633-16H416
				c10.432,0,19.327,6.688,22.632,16H432z M96,120h6.632c-3.304,9.313-12.2,16-22.632,16h-6.632C76.672,126.688,85.568,120,96,120z
				 M48,104c-10.433,0-19.328-6.688-22.632-16H32c10.432,0,19.328,6.688,22.632,16H48z M48,168c-10.433,0-19.328-6.688-22.632-16H32
				c10.432,0,19.328,6.688,22.632,16H48z M256,200c4.592,0,9.063-0.479,13.416-1.304l1.863,4.512
				c1.137,2.744,2.872,5.057,4.841,7.145l-0.057,0.176c-1.096,3.28-4.151,5.472-7.592,5.472h-24.936
				c-3.448,0-6.504-2.191-7.584-5.464l-0.064-0.191c1.96-2.089,3.696-4.4,4.84-7.145l1.864-4.504
				C246.936,199.52,251.408,200,256,200z M220.928,217.912c0.256-0.023,0.488-0.144,0.744-0.176
				c3.824,8.592,12.304,14.264,21.855,14.264h24.937c9.552,0,18.023-5.664,21.864-14.264c0.256,0.032,0.479,0.152,0.743,0.176
				c31.681,3.168,61.049,17.8,82.744,40.44l-32.328,41.56c-6.527-6.64-13.863-12.448-21.783-17.432l4.863-9.721
				c2.248-4.504,3.44-9.535,3.44-14.567c0-8.712-3.392-16.896-9.544-23.056l-0.8-0.801l-11.313,11.313l0.8,0.8
				c3.12,3.136,4.849,7.312,4.849,11.744c0,2.56-0.608,5.136-1.752,7.424l-4.632,9.248c-12.832-5.856-26.856-9.48-41.616-10.464V248
				h-16v16.408c-14.769,0.984-28.792,4.608-41.624,10.464l-4.624-9.248c-1.145-2.296-1.752-4.864-1.752-7.432
				c0-4.44,1.728-8.608,4.855-11.744l0.801-0.8l-11.313-11.313l-0.8,0.801c-6.152,6.159-9.544,14.352-9.544,23.056
				c0,5.032,1.184,10.063,3.439,14.576l4.856,9.712c-7.92,4.983-15.248,10.8-21.784,17.439l-32.328-41.567
				C159.88,235.72,189.248,221.08,220.928,217.912L220.928,217.912z M296,384c0,13.576-2.168,27.064-6.152,40H222.16
				c-3.992-12.936-6.16-26.424-6.16-40c0-13.575,2.168-27.063,6.151-40h67.688C293.832,356.936,296,370.425,296,384L296,384z
				 M256,482.673L243.192,465.6c-5.96-7.944-10.928-16.576-14.991-25.601h55.6c-4.072,9.024-9.04,17.656-14.992,25.601L256,482.673z
				 M228.2,328c4.071-9.023,9.039-17.655,14.991-25.6L256,285.328l12.808,17.072c5.96,7.944,10.928,16.576,14.992,25.6H228.2z
				 M238.848,281.536l-8.448,11.272c-8.096,10.792-14.592,22.688-19.544,35.191h-42.352
				C184.064,303.776,209.36,286.464,238.848,281.536z M281.6,292.808l-8.448-11.265c29.488,4.929,54.784,22.24,70.345,46.465
				h-42.353C296.192,315.496,289.696,303.6,281.6,292.808L281.6,292.808z M144.288,322.912c-6.656,3.328-14.12,5.089-21.553,5.089
				c-18.376,0-34.896-10.208-43.111-26.641l-26.12-52.224l-25.36-6.336c-2.439-0.624-4.144-2.809-4.144-5.32
				c0-3.024,2.456-5.48,5.479-5.48h30.168c5.16,0,10.024,2.504,13.024,6.696l39.92,55.896l7.6-12.713
				c2.288-3.823,4.801-7.487,7.44-11.031l32.304,41.536c-1.072,1.439-2.216,2.824-3.231,4.312L144.288,322.912z M160.024,344.001
				h45.496c-3.567,13.008-5.52,26.464-5.52,40c0,13.535,1.952,26.991,5.52,40h-45.496c-5.151-12.32-8.023-25.832-8.023-40
				C152,369.832,154.872,356.32,160.024,344.001z M168.504,440.001h42.352c4.952,12.504,11.448,24.399,19.544,35.191l8.448,11.264
				C209.36,481.536,184.064,464.224,168.504,440.001L168.504,440.001z M273.152,486.465L281.6,475.2
				c8.096-10.792,14.592-22.688,19.544-35.191h42.353C327.936,464.224,302.64,481.536,273.152,486.465L273.152,486.465z
				 M351.976,424.001H306.48c3.561-13.009,5.521-26.465,5.521-40c0-13.536-1.952-26.992-5.521-40h45.496
				c5.152,12.319,8.024,25.831,8.024,40C360,398.169,357.128,411.68,351.976,424.001z M488,237.48c0,2.512-1.704,4.704-4.152,5.32
				l-25.36,6.336l-26.12,52.224c-8.199,16.433-24.728,26.641-43.104,26.641c-7.44,0-14.896-1.761-21.552-5.089l-12.416-6.216
				c-1.017-1.487-2.152-2.88-3.232-4.319l32.305-41.528c2.64,3.544,5.151,7.208,7.439,11.04l8.352,13.951l31.88-55.792
				c2.832-4.96,8.16-8.048,13.889-8.048h36.592C485.544,232,488,234.456,488,237.48z M432,168c-10.433,0-19.328-6.688-22.633-16H416
				c10.432,0,19.327,6.688,22.632,16H432z"/>
		</g>
	</g>
</g>
</svg>
