<?xml version="1.0" encoding="utf-8"?>
<!-- Generator: Adobe Illustrator 16.0.0, SVG Export Plug-In . SVG Version: 6.00 Build 0)  -->
<!DOCTYPE svg PUBLIC "-//W3C//DTD SVG 1.1//EN" "http://www.w3.org/Graphics/SVG/1.1/DTD/svg11.dtd">
<svg version="1.1" id="Layer_1" xmlns:svgjs="http://svgjs.com/svgjs"
	 xmlns="http://www.w3.org/2000/svg" xmlns:xlink="http://www.w3.org/1999/xlink" x="0px" y="0px" width="512px" height="512px"
	 viewBox="0 0 512 512" enable-background="new 0 0 512 512" xml:space="preserve">
<g opacity="0.3">
	<g id="Twotone">
		<g id="Color_copy">
			<path fill="#37A1DA" d="M392,328v160H104V328c0-35.346,28.652-64,64-64h40v8l40,32l7.358-5.92L288,272v-8h40
				C363.346,264,392,292.654,392,328z"/>
			<path fill="#37A1DA" d="M352,104c0.001,16.978-6.731,33.262-18.722,45.28c-1.662,1.652-3.427,3.202-5.278,4.64V112h-33.36
				c-14.219-0.011-28.191-3.704-40.56-10.72C241.677,94.303,231.309,84.211,224,72l-8.48,1.2c-13.188,1.921-25.251,8.506-34,18.562
				c-5.095,5.885-8.885,12.782-11.12,20.238c-1.611,5.181-2.422,10.575-2.398,16v25.92c-12.996-10.381-21.434-25.418-23.521-41.92
				c-0.32-2.653-0.48-5.326-0.479-8c0-44.183,35.816-80,80-80h48C316.183,24,352,59.817,352,104L352,104z"/>
			<path fill="#37A1DA" d="M208,240v5.28c-0.121-0.06-0.229-0.142-0.32-0.24C207.906,243.37,208.013,241.685,208,240z"/>
			<path fill="#37A1DA" d="M320,264l-32,72l-40-32l40-32v-8H320z"/>
			<path fill="#37A1DA" d="M176,264l32,72l40-32l-40-32v-8H176z"/>
			<path fill="#37A1DA" d="M440,160l-16-8l-16,8v-32c0-4.418,3.58-8,8-8h16c4.418,0,8,3.582,8,8V160z"/>
		</g>
		<g id="Stroke_Close_copy">
			<path fill="#03476B" d="M160,360c-4.419,0-8,3.582-8,8v120c0,4.42,3.581,8,8,8c4.418,0,8-3.58,8-8V368
				C168,363.582,164.418,360,160,360z"/>
			<path fill="#03476B" d="M194.344,146.344c-3.069,3.178-2.981,8.241,0.197,11.312c3.1,2.994,8.015,2.994,11.113,0
				c5.719-5.702,14.973-5.702,20.688,0c3.178,3.069,8.242,2.981,11.312-0.197c2.994-3.1,2.994-8.015,0-11.113
				C225.689,134.4,206.311,134.4,194.344,146.344z"/>
			<path fill="#03476B" d="M258.344,146.344c-3.069,3.178-2.981,8.241,0.196,11.312c3.101,2.994,8.016,2.994,11.114,0
				c5.719-5.702,14.973-5.702,20.688,0c3.178,3.069,8.242,2.981,11.312-0.196c2.995-3.101,2.995-8.016,0-11.114
				C289.689,134.4,270.311,134.4,258.344,146.344z"/>
			<path fill="#03476B" d="M251.72,63.024C267.668,79.07,289.376,88.064,312,88c4.418,0,8-3.581,8-8c0-4.418-3.582-8-8-8
				c-18.381,0.049-36.019-7.26-48.978-20.296l-1.376-1.368c-3.074-3.173-8.139-3.254-11.313-0.18
				c-3.173,3.074-3.254,8.139-0.181,11.313c0.064,0.065,0.131,0.132,0.196,0.194L251.72,63.024z"/>
			<path fill="#03476B" d="M495.608,368c-0.938-2.896-3.441-5.009-6.456-5.446l-62.176-9.032l-27.776-56.36
				c-1.62-2.938-4.911-4.539-8.224-4c-12.649-22.938-36.78-37.177-62.976-37.16h-32v-6.336c24.923-16.22,39.969-43.928,40-73.664
				v-18.526c15.267-13.58,24.001-33.039,24-53.474c-0.059-48.577-39.423-87.941-88-88h-48c-48.577,0.059-87.943,39.423-88,88h-16
				c-4.419,0-8,3.582-8,8v23.424c-1.88,0.729-3.77,1.521-5.602,2.36l-16.584-16.576c-3.124-3.123-8.188-3.123-11.312,0L33.2,166.464
				c-3.123,3.124-3.123,8.188,0,11.313l16.584,16.576c-0.85,1.88-1.602,3.768-2.36,5.646H24c-4.419,0-8,3.582-8,8v64
				c0,4.419,3.581,8,8,8h23.424c0.728,1.88,1.512,3.77,2.36,5.648L33.2,302.224c-3.123,3.124-3.123,8.188,0,11.312l45.264,45.257
				c3.124,3.122,8.188,3.122,11.312,0L96,352.568V488c0,4.42,3.581,8,8,8c4.418,0,8-3.58,8-8V328c0.035-30.913,25.086-55.965,56-56
				h2.8l29.888,67.248c1.793,4.039,6.521,5.859,10.559,4.067c0.628-0.278,1.218-0.638,1.755-1.067l27-21.6V480c0,4.42,3.581,8,8,8
				c4.418,0,8-3.58,8-8V320.648l27,21.6c3.449,2.763,8.482,2.204,11.245-1.244c0.429-0.536,0.788-1.126,1.065-1.756L325.2,272h2.8
				c22.874,0.039,43.41,14.025,51.824,35.298l-22.802,46.198l-62.176,9.032c-4.372,0.635-7.402,4.694-6.768,9.066
				c0.254,1.743,1.073,3.354,2.336,4.582l44.992,43.824L324.8,481.952c-0.753,4.354,2.165,8.494,6.519,9.247
				c1.735,0.301,3.521,0.021,5.081-0.799L384,465.352V488c0,4.419,3.581,8,8,8c4.418,0,8-3.581,8-8v-22.647l47.6,25.048
				c3.912,2.053,8.748,0.546,10.801-3.367c0.818-1.56,1.101-3.346,0.799-5.081l-10.606-61.95l45.008-43.824
				C495.765,374.052,496.541,370.885,495.608,368L495.608,368z M280,268.16l-32,25.602l-32-25.602v-10.271
				c20.555,8.148,43.443,8.148,64,0V268.16z M320,176c0,39.766-32.235,72-72,72c-39.766,0-72-32.234-72-72v-48
				c0.101-23.522,17.375-43.442,40.646-46.872l3.4-0.479c16.907,24.559,44.784,39.264,74.6,39.352H320V176z M224,32h48
				c39.746,0.044,71.956,32.254,72,72c-0.001,10.134-2.768,20.075-8,28.752V112c0-4.418-3.582-8-8-8h-33.354
				c-26.11-0.075-50.293-13.768-63.792-36.12c-1.658-2.762-4.812-4.259-8-3.8l-8.479,1.216C183.241,69.881,160.131,96.53,160,128
				v4.752c-5.234-8.677-8-18.618-8-28.752C152.044,64.254,184.254,32.044,224,32L224,32z M84.12,341.824l-33.952-33.942
				l14.942-14.93c2.453-2.457,3.041-6.215,1.456-9.304c-2.339-4.534-4.306-9.251-5.88-14.104c-1.065-3.305-4.143-5.545-7.616-5.544
				H32v-48h21.07c3.475,0.001,6.551-2.237,7.616-5.544c1.574-4.853,3.541-9.568,5.88-14.104c1.585-3.089,0.997-6.849-1.456-9.306
				L50.168,172.12l33.952-33.944l14.936,14.938c2.457,2.452,6.216,3.041,9.304,1.456c4.537-2.337,9.253-4.306,14.104-5.888
				c3.299-1.068,5.534-4.142,5.536-7.608V120h9.792c3.331,14.494,11.093,27.592,22.208,37.474V176v0.608
				c-34.995-4.479-66.994,20.261-71.473,55.255c-2.639,20.623,4.925,41.24,20.271,55.265C100.456,299.124,95.99,313.388,96,328
				v1.944L84.12,341.824z M119.32,275.08c-19.521-17.718-20.983-47.907-3.266-67.43c11.499-12.67,28.899-18.217,45.61-14.538
				c4.656,23.237,18.475,43.621,38.336,56.552V256h-32c-18.041,0.004-35.415,6.818-48.648,19.08H119.32z M211.104,323.28
				L188.312,272H200c-0.001,2.432,1.103,4.729,3,6.248L235.2,304L211.104,323.28z M284.896,323.28L260.8,304l32.192-25.752
				c1.898-1.517,3.007-3.815,3.008-6.248h11.688L284.896,323.28z M392,444.112c-1.298,0.001-2.576,0.313-3.729,0.912l-29.6,15.576
				L392,413.794l33.336,46.808l-29.602-15.576C394.582,444.426,393.3,444.112,392,444.112L392,444.112z M420.512,368.728l31.2,4.528
				L400,389.17v-54.186l14.494,29.36C415.656,366.707,417.906,368.345,420.512,368.728L420.512,368.728z M363.488,368.728
				c2.604-0.383,4.854-2.021,6.018-4.384L384,334.984v54.186l-51.688-15.912L363.488,368.728z M325.304,387.832l53.752,16.554
				l-32.584,45.744l5.408-31.544c0.446-2.596-0.413-5.242-2.296-7.08L325.304,387.832z M432.118,418.586l5.408,31.544
				l-32.584-45.744l53.752-16.552L434.4,411.506C432.522,413.346,431.67,415.993,432.118,418.586L432.118,418.586z"/>
			<path fill="#03476B" d="M392,248h80c4.418,0,8-3.581,8-8V128c0-4.418-3.582-8-8-8h-26.226c-2.835-4.934-8.085-7.981-13.774-8h-16
				c-5.691,0.019-10.941,3.066-13.776,8H392c-13.255,0-24,10.745-24,24v80C368,237.255,378.745,248,392,248z M432,128v19.058
				l-4.426-2.218c-2.251-1.125-4.899-1.125-7.15,0l-4.426,2.218V128H432z M384,144c0-4.418,3.581-8,8-8h8v24
				c-0.004,4.419,3.576,8.002,7.995,8.004c1.242,0.001,2.469-0.288,3.579-0.844L424,160.944l12.424,6.216
				c3.952,1.976,8.757,0.372,10.731-3.58c0.556-1.11,0.845-2.337,0.845-3.58v-24h16v96h-72c-4.419,0-8-3.581-8-8V144z"/>
			<path fill="#03476B" d="M408,208h24c4.418,0,8-3.581,8-8c0-4.418-3.582-8-8-8h-24c-4.42,0-8,3.582-8,8
				C400,204.419,403.58,208,408,208z"/>
			<path fill="#03476B" d="M269.558,205.557c3.069-3.179,2.981-8.242-0.196-11.313c-3.101-2.994-8.016-2.994-11.114,0
				c-5.719,5.702-14.973,5.702-20.688,0c-3.178-3.068-8.242-2.98-11.312,0.196c-2.995,3.101-2.995,8.016,0,11.115
				C238.213,217.502,257.591,217.502,269.558,205.557z"/>
		</g>
	</g>
</g>
</svg>
