<?xml version="1.0" encoding="utf-8"?>
<!-- Generator: Adobe Illustrator 16.0.0, SVG Export Plug-In . SVG Version: 6.00 Build 0)  -->
<!DOCTYPE svg PUBLIC "-//W3C//DTD SVG 1.1//EN" "http://www.w3.org/Graphics/SVG/1.1/DTD/svg11.dtd">
<svg version="1.1" id="Layer_1" xmlns:svgjs="http://svgjs.com/svgjs"
	 xmlns="http://www.w3.org/2000/svg" xmlns:xlink="http://www.w3.org/1999/xlink" x="0px" y="0px" width="512px" height="512px"
	 viewBox="0 0 512 512" enable-background="new 0 0 512 512" xml:space="preserve">
<g>
	<g id="Twotone">
		<g id="Color_copy">
			<path fill="#37A1DA" d="M392,328v160H104V328c0-35.346,28.653-64,64-64h40v8l40,32l7.359-5.92L288,272v-8h40
				C363.346,264,392,292.654,392,328z"/>
			<path fill="#37A1DA" d="M352,104c0.001,16.977-6.731,33.261-18.721,45.28c-1.663,1.652-3.427,3.202-5.279,4.64V112h-33.36
				c-14.219-0.011-28.192-3.704-40.56-10.72C241.677,94.303,231.309,84.211,224,72l-8.48,1.2c-13.188,1.921-25.251,8.506-34,18.561
				c-5.095,5.885-8.885,12.783-11.12,20.239c-1.612,5.18-2.422,10.575-2.399,16v25.92c-12.996-10.381-21.433-25.418-23.521-41.92
				c-0.321-2.654-0.481-5.326-0.479-8c0-44.183,35.817-80,80-80h48C316.183,24,352,59.817,352,104L352,104z"/>
			<path fill="#37A1DA" d="M208,240v5.28c-0.121-0.06-0.229-0.142-0.32-0.24C207.906,243.37,208.013,241.685,208,240z"/>
			<path fill="#37A1DA" d="M320,264l-32,72l-40-32l40-32v-8H320z"/>
			<path fill="#37A1DA" d="M176,264l32,72l40-32l-40-32v-8H176z"/>
			<path fill="#37A1DA" d="M440,160l-16-8l-16,8v-32c0-4.418,3.581-8,8-8h16c4.418,0,8,3.582,8,8V160z"/>
		</g>
		<g id="Stroke_Close_copy">
			<path fill="#03476B" d="M160,360c-4.419,0-8,3.582-8,8v120c0,4.419,3.581,8,8,8c4.418,0,8-3.581,8-8V368
				C168,363.582,164.418,360,160,360z"/>
			<path fill="#03476B" d="M194.344,146.344c-3.069,3.178-2.981,8.242,0.197,11.312c3.1,2.994,8.015,2.994,11.114,0
				c5.718-5.702,14.972-5.702,20.688,0c3.178,3.069,8.242,2.981,11.312-0.197c2.994-3.1,2.994-8.015,0-11.114
				C225.689,134.4,206.311,134.4,194.344,146.344z"/>
			<path fill="#03476B" d="M258.344,146.344c-3.069,3.178-2.981,8.242,0.196,11.312c3.101,2.994,8.016,2.994,11.115,0
				c5.718-5.702,14.972-5.702,20.688,0c3.178,3.069,8.242,2.981,11.312-0.196c2.995-3.101,2.995-8.016,0-11.115
				C289.689,134.4,270.311,134.4,258.344,146.344z"/>
			<path fill="#03476B" d="M251.72,63.024C267.668,79.07,289.376,88.064,312,88c4.418,0,8-3.581,8-8c0-4.418-3.582-8-8-8
				c-18.381,0.049-36.018-7.26-48.977-20.296l-1.376-1.368c-3.074-3.173-8.139-3.254-11.313-0.18
				c-3.173,3.074-3.254,8.139-0.18,11.313c0.064,0.066,0.13,0.132,0.196,0.195L251.72,63.024z"/>
			<path fill="#03476B" d="M495.608,368c-0.939-2.896-3.442-5.009-6.456-5.447l-62.176-9.032l-27.776-56.36
				c-1.62-2.938-4.912-4.539-8.224-4c-12.65-22.938-36.78-37.177-62.976-37.16h-32v-6.336c24.923-16.22,39.969-43.928,40-73.664
				v-18.527c15.267-13.58,24.001-33.039,24-53.473c-0.058-48.577-39.423-87.942-88-88h-48c-48.577,0.058-87.943,39.423-88,88h-16
				c-4.419,0-8,3.582-8,8v23.424c-1.88,0.729-3.769,1.521-5.601,2.36l-16.584-16.576c-3.124-3.123-8.188-3.123-11.312,0
				L33.2,166.464c-3.123,3.124-3.123,8.188,0,11.313l16.584,16.576c-0.849,1.88-1.601,3.768-2.36,5.647H24c-4.419,0-8,3.582-8,8v64
				c0,4.419,3.581,8,8,8h23.424c0.728,1.88,1.512,3.769,2.36,5.648L33.2,302.224c-3.123,3.124-3.123,8.188,0,11.312l45.264,45.256
				c3.124,3.123,8.188,3.123,11.312,0L96,352.568V488c0,4.419,3.581,8,8,8c4.418,0,8-3.581,8-8V328
				c0.035-30.913,25.086-55.965,56-56h2.8l29.888,67.248c1.793,4.039,6.52,5.859,10.558,4.067c0.628-0.278,1.218-0.638,1.755-1.067
				l27-21.6V480c0,4.419,3.581,8,8,8c4.418,0,8-3.581,8-8V320.648l27,21.6c3.449,2.762,8.483,2.204,11.245-1.245
				c0.429-0.536,0.788-1.126,1.066-1.755L325.2,272h2.8c22.874,0.039,43.41,14.025,51.824,35.297l-22.801,46.199l-62.176,9.032
				c-4.372,0.635-7.402,4.694-6.768,9.066c0.254,1.743,1.074,3.354,2.336,4.582l44.992,43.824L324.8,481.952
				c-0.753,4.354,2.165,8.494,6.519,9.247c1.735,0.301,3.521,0.02,5.081-0.799L384,465.352v22.648c0,4.418,3.581,8,8,8
				c4.418,0,8-3.582,8-8v-22.648l47.6,25.048c3.912,2.053,8.748,0.546,10.801-3.367c0.818-1.56,1.1-3.346,0.799-5.081
				l-10.607-61.951l45.008-43.824C495.765,374.052,496.542,370.885,495.608,368L495.608,368z M280,268.16l-32,25.601l-32-25.601
				v-10.271c20.555,8.149,43.444,8.149,64,0V268.16z M320,176c0,39.765-32.235,72-72,72s-72-32.235-72-72v-48
				c0.101-23.523,17.375-43.443,40.647-46.872l3.4-0.479c16.907,24.559,44.784,39.264,74.6,39.352H320V176z M224,32h48
				c39.746,0.044,71.956,32.254,72,72c-0.001,10.134-2.767,20.075-8,28.752V112c0-4.418-3.582-8-8-8h-33.353
				c-26.111-0.075-50.293-13.768-63.792-36.12c-1.658-2.762-4.812-4.259-8-3.8l-8.479,1.216C183.241,69.881,160.131,96.53,160,128
				v4.752c-5.234-8.677-8-18.618-8-28.752C152.044,64.254,184.254,32.044,224,32L224,32z M84.12,341.824l-33.952-33.943
				l14.943-14.929c2.453-2.457,3.041-6.215,1.456-9.304c-2.339-4.534-4.306-9.251-5.88-14.104c-1.066-3.305-4.143-5.545-7.616-5.544
				H32v-48h21.071c3.474,0.001,6.55-2.238,7.616-5.544c1.574-4.853,3.541-9.569,5.88-14.104c1.585-3.089,0.997-6.848-1.456-9.305
				L50.168,172.12l33.952-33.944l14.936,14.937c2.457,2.452,6.216,3.041,9.304,1.456c4.537-2.337,9.253-4.306,14.104-5.888
				c3.299-1.068,5.534-4.141,5.536-7.608V120h9.792c3.331,14.494,11.093,27.592,22.208,37.473V176v0.608
				c-34.995-4.479-66.994,20.261-71.472,55.255c-2.639,20.623,4.924,41.24,20.271,55.265C100.456,299.124,95.99,313.388,96,328
				v1.944L84.12,341.824z M119.32,275.08c-19.521-17.718-20.984-47.907-3.266-67.43c11.499-12.67,28.899-18.217,45.61-14.538
				c4.657,23.237,18.475,43.621,38.336,56.552V256h-32c-18.041,0.004-35.415,6.818-48.648,19.08H119.32z M211.104,323.28
				L188.312,272H200c-0.001,2.431,1.103,4.729,3,6.248L235.2,304L211.104,323.28z M284.896,323.28L260.8,304l32.192-25.752
				c1.899-1.517,3.007-3.816,3.008-6.248h11.688L284.896,323.28z M392,444.112c-1.298,0.001-2.576,0.313-3.729,0.912l-29.6,15.576
				L392,413.793l33.336,46.808l-29.601-15.576C394.582,444.425,393.3,444.112,392,444.112L392,444.112z M420.512,368.728l31.2,4.528
				L400,389.169v-54.185l14.495,29.36C415.657,366.707,417.907,368.345,420.512,368.728L420.512,368.728z M363.488,368.728
				c2.604-0.383,4.854-2.021,6.017-4.384L384,334.984v54.185l-51.688-15.912L363.488,368.728z M325.304,387.832l53.752,16.553
				l-32.584,45.744l5.408-31.544c0.446-2.595-0.413-5.242-2.296-7.08L325.304,387.832z M432.119,418.585l5.408,31.544
				l-32.584-45.744l53.752-16.552L434.4,411.505C432.522,413.346,431.67,415.993,432.119,418.585L432.119,418.585z"/>
			<path fill="#03476B" d="M392,248h80c4.418,0,8-3.581,8-8V128c0-4.418-3.582-8-8-8h-26.225c-2.835-4.934-8.085-7.982-13.775-8h-16
				c-5.691,0.018-10.941,3.066-13.776,8H392c-13.255,0-24,10.745-24,24v80C368,237.255,378.745,248,392,248z M432,128v19.057
				l-4.425-2.217c-2.251-1.125-4.9-1.125-7.151,0l-4.425,2.217V128H432z M384,144c0-4.418,3.581-8,8-8h8v24
				c-0.003,4.419,3.577,8.002,7.996,8.004c1.242,0.001,2.468-0.288,3.579-0.844L424,160.944l12.424,6.216
				c3.952,1.975,8.757,0.372,10.732-3.58c0.555-1.111,0.844-2.337,0.844-3.58v-24h16v96h-72c-4.419,0-8-3.581-8-8V144z"/>
			<path fill="#03476B" d="M408,208h24c4.418,0,8-3.581,8-8c0-4.418-3.582-8-8-8h-24c-4.419,0-8,3.582-8,8
				C400,204.419,403.581,208,408,208z"/>
			<path fill="#03476B" d="M269.558,205.557c3.069-3.178,2.981-8.242-0.196-11.312c-3.101-2.994-8.016-2.994-11.115,0
				c-5.718,5.702-14.972,5.702-20.688,0c-3.178-3.069-8.242-2.981-11.312,0.196c-2.995,3.101-2.995,8.016,0,11.115
				C238.213,217.502,257.591,217.502,269.558,205.557z"/>
		</g>
	</g>
</g>
</svg>
