<?xml version="1.0" encoding="utf-8"?>
<!-- Generator: Adobe Illustrator 16.0.0, SVG Export Plug-In . SVG Version: 6.00 Build 0)  -->
<!DOCTYPE svg PUBLIC "-//W3C//DTD SVG 1.1//EN" "http://www.w3.org/Graphics/SVG/1.1/DTD/svg11.dtd">
<svg version="1.1" id="Layer_1" xmlns:svgjs="http://svgjs.com/svgjs"
	 xmlns="http://www.w3.org/2000/svg" xmlns:xlink="http://www.w3.org/1999/xlink" x="0px" y="0px" width="512px" height="512px"
	 viewBox="0 0 512 512" enable-background="new 0 0 512 512" xml:space="preserve">
<g opacity="0.3">
	<g>
		<path fill="#37A1DA" d="M232,464h32v-88h-56c-13.072,0-24.696,6.305-32,16.024c-7.305-9.72-18.929-16.024-32-16.024H88v88h32
			c17.672,0,32,14.328,32,32h48C200,478.328,214.328,464,232,464z"/>
		<path fill="#37A1DA" d="M384,208c-22.057,0-40-17.943-40-40c0-22.056,17.943-40,40-40c22.056,0,40,17.944,40,40
			C424,190.056,406.056,208,384,208z"/>
		<path fill="#37A1DA" d="M176,24C109.832,24,56,77.832,56,144v88h9.128c-0.664-2.567-1.128-5.224-1.128-8c0-17.672,14.328-32,32-32
			v-16l24-16c0,0,32,24,56,24s56-24,56-24l24,16v16c17.672,0,32,14.328,32,32c0,2.776-0.464,5.433-1.128,8H296v-88
			C296,77.832,242.168,24,176,24z"/>
	</g>
	<circle fill="#03476B" cx="136" cy="208" r="8"/>
	<circle fill="#03476B" cx="216" cy="208" r="8"/>
	<path fill="#03476B" d="M504,203.056l-48-24V165.04c0-56.352-24.32-109.96-66.736-147.063L384,13.368l-5.265,4.608
		C336.32,55.088,312,108.688,312,165.04v14.008l-16,8v17.889l16-8V272h-32v-16.208c9.655-7.312,16-18.784,16-31.792
		c0-19.312-13.769-35.472-32-39.191V171.72l-32.272-21.513L227.2,153.6C218.888,159.832,193.504,176,176,176
		c-17.448,0-42.872-16.168-51.2-22.399l-4.528-3.393L88,171.72v13.088c-18.232,3.72-32,19.88-32,39.191
		c0,19.912,14.672,36.336,33.744,39.368c3.68,16.688,13.191,31.832,27.063,42.232L136,320v17.753l-85.576,21.399
		C25.448,365.392,8,387.736,8,413.48V504h336v-90.52c0-15.032-6.072-28.8-16-38.984V320h112v48h16v-48h16v48h16v-48h16V203.056z
		 M488,212.944V272h-32v-75.056L488,212.944z M384,34.816c11.775,11.16,21.84,23.792,30.096,37.448
		c-18.616,9.855-41.576,9.855-60.192,0C362.16,58.608,372.224,45.976,384,34.816z M346.168,86.408C357.776,92.672,370.68,96,384,96
		c13.319,0,26.224-3.328,37.831-9.592C433.648,110.632,440,137.472,440,165.04V304H423.24l-8-80h-62.487l-8,80H328V165.04
		C328,137.472,334.352,110.632,346.168,86.408L346.168,86.408z M407.159,304H360.84l6.399-64h33.513L407.159,304z M312,288v16h-32
		v-16H312z M280,320v33.753l-64-16V320l19.191-14.392c13.872-10.4,23.376-25.552,27.064-42.232c0.568-0.088,1.176-0.063,1.744-0.176
		V320H280z M152,331.36c5.728,3.017,12.176,4.64,18.664,4.64h10.672c6.488,0,12.936-1.632,18.664-4.647v9.328l-24,24l-24-24V331.36z
		 M280,224c0,10.416-6.712,19.216-16,22.528V201.48C273.288,204.784,280,213.584,280,224z M72,224c0-10.416,6.712-19.216,16-22.527
		v45.048C78.712,243.216,72,234.416,72,224z M104,248v-67.72l15.872-10.584C130.12,176.64,155.152,192,176,192
		c20.848,0,45.88-15.359,56.128-22.304L248,180.28V248c0,17.528-8.376,34.28-22.4,44.809L195.736,315.2
		c-4.136,3.097-9.239,4.8-14.399,4.8h-10.672c-5.16,0-10.265-1.703-14.4-4.8L126.4,292.8C112.376,282.28,104,265.528,104,248z
		 M54.296,374.673l87.248-21.816L176,387.312l34.456-34.456l87.248,21.816C315.536,379.136,328,395.089,328,413.48V456h-32v-32h-16
		v32h-48c-19.313,0-35.473,13.769-39.192,32H184v-96h-16v96h-8.809c-3.72-18.231-19.872-32-39.191-32H72v-32H56v32H24v-42.52
		C24,395.089,36.464,379.136,54.296,374.673L54.296,374.673z M24,472h96c10.416,0,19.216,6.713,22.527,16H24V472z M209.472,488
		c3.313-9.287,12.112-16,22.528-16h96v16H209.472z M312,362.992c-3.313-1.567-6.752-2.928-10.424-3.848L296,357.753V320h16V362.992z
		 M456,304v-16h32v16H456z"/>
	<path fill="#03476B" d="M208,264h-16c0,8.824-7.176,16-16,16s-16-7.176-16-16h-16c0,17.648,14.352,32,32,32
		C193.648,296,208,281.648,208,264z"/>
	<path fill="#03476B" d="M456,384h16v16h-16V384z"/>
	<path fill="#03476B" d="M456,416h16v16h-16V416z"/>
	<path fill="#03476B" d="M408,336h16v16h-16V336z"/>
	<path fill="#03476B" d="M408,368h16v16h-16V368z"/>
	<path fill="#03476B" d="M344,336h16v16h-16V336z"/>
	<path fill="#03476B" d="M344,368h16v16h-16V368z"/>
</g>
</svg>
