<svg xmlns="http://www.w3.org/2000/svg" version="1.1" xmlns:xlink="http://www.w3.org/1999/xlink" xmlns:svgjs="http://svgjs.com/svgjs" width="512" height="512" x="0" y="0" viewBox="0 0 64 64" style="enable-background:new 0 0 512 512" xml:space="preserve" class=""><g><g xmlns="http://www.w3.org/2000/svg" fill="#f0bc5e"><path d="m29 58h4v-11h-7c-1.634 0-3.087.788-4 2.003-.913-1.215-2.366-2.003-4-2.003h-7v11h4c2.209 0 4 1.791 4 4h6c0-2.209 1.791-4 4-4z" fill="#37a1da" data-original="#f0bc5e" style="" class=""></path><path d="m48 26c-2.757 0-5-2.243-5-5s2.243-5 5-5 5 2.243 5 5-2.243 5-5 5z" fill="#37a1da" data-original="#f0bc5e" style="" class=""></path><path d="m22 3c-8.271 0-15 6.729-15 15v11h1.141c-.083-.321-.141-.653-.141-1 0-2.209 1.791-4 4-4v-2l3-2s4 3 7 3 7-3 7-3l3 2v2c2.209 0 4 1.791 4 4 0 .347-.058.679-.141 1h1.141v-11c0-8.271-6.729-15-15-15z" fill="#37a1da" data-original="#f0bc5e" style="" class=""></path></g><circle xmlns="http://www.w3.org/2000/svg" cx="17" cy="26" r="1" fill="#03476b" data-original="#000000" style="" class=""></circle><circle xmlns="http://www.w3.org/2000/svg" cx="27" cy="26" r="1" fill="#03476b" data-original="#000000" style="" class=""></circle><path xmlns="http://www.w3.org/2000/svg" d="m63 25.382-6-3v-1.752c0-7.044-3.04-13.745-8.342-18.383l-.658-.576-.658.576c-5.302 4.639-8.342 11.339-8.342 18.383v1.751l-2 1v2.236l2-1v9.383h-4v-2.026c1.207-.914 2-2.348 2-3.974 0-2.414-1.721-4.434-4-4.899v-1.636l-4.034-2.689-.566.424c-1.039.779-4.212 2.8-6.4 2.8-2.181 0-5.359-2.021-6.4-2.8l-.566-.424-4.034 2.689v1.636c-2.279.465-4 2.485-4 4.899 0 2.489 1.834 4.542 4.218 4.921.46 2.086 1.649 3.979 3.383 5.279l2.399 1.8v2.219l-10.697 2.675c-3.122.78-5.303 3.573-5.303 6.791v11.315h42v-11.315c0-1.879-.759-3.6-2-4.873v-6.812h14v6h2v-6h2v6h2v-6h2zm-2 1.236v7.382h-4v-9.382zm-13-22.266c1.472 1.395 2.73 2.974 3.762 4.681-2.327 1.232-5.197 1.232-7.524 0 1.032-1.707 2.29-3.286 3.762-4.681zm-4.729 6.449c1.451.783 3.064 1.199 4.729 1.199s3.278-.416 4.729-1.199c1.477 3.028 2.271 6.383 2.271 9.829v17.37h-2.095l-1-10h-7.811l-1 10h-2.094v-17.37c0-3.446.794-6.801 2.271-9.829zm7.624 27.199h-5.79l.8-8h4.189zm-11.895-2v2h-4v-2zm-4 4v4.219l-8-2v-2.219l2.399-1.799c1.734-1.3 2.922-3.194 3.383-5.279.071-.011.147-.008.218-.022v7.1zm-16 1.42c.716.377 1.522.58 2.333.58h1.334c.811 0 1.617-.204 2.333-.581v1.166l-3 3-3-3zm16-13.42c0 1.302-.839 2.402-2 2.816v-5.631c1.161.413 2 1.513 2 2.815zm-26 0c0-1.302.839-2.402 2-2.816v5.631c-1.161-.413-2-1.513-2-2.815zm4 3v-8.465l1.984-1.323c1.281.868 4.41 2.788 7.016 2.788s5.735-1.92 7.016-2.788l1.984 1.323v8.465c0 2.191-1.047 4.285-2.8 5.601l-3.733 2.799c-.517.387-1.155.6-1.8.6h-1.334c-.645 0-1.283-.213-1.8-.6l-3.733-2.8c-1.753-1.315-2.8-3.409-2.8-5.6zm-6.213 15.834 10.906-2.727 4.307 4.307 4.307-4.307 10.906 2.727c2.229.558 3.787 2.552 3.787 4.851v5.315h-4v-4h-2v4h-6c-2.414 0-4.434 1.721-4.899 4h-1.101v-12h-2v12h-1.101c-.465-2.279-2.484-4-4.899-4h-6v-4h-2v4h-4v-5.315c0-2.299 1.558-4.293 3.787-4.851zm-3.787 12.166h12c1.302 0 2.402.839 2.816 2h-14.816zm23.184 2c.414-1.161 1.514-2 2.816-2h12v2zm12.816-15.626c-.414-.196-.844-.366-1.303-.481l-.697-.174v-4.719h2zm18-7.374v-2h4v2z" fill="#03476b" data-original="#000000" style="" class=""></path><path xmlns="http://www.w3.org/2000/svg" d="m26 33h-2c0 1.103-.897 2-2 2s-2-.897-2-2h-2c0 2.206 1.794 4 4 4s4-1.794 4-4z" fill="#03476b" data-original="#000000" style="" class=""></path><path xmlns="http://www.w3.org/2000/svg" d="m57 48h2v2h-2z" fill="#03476b" data-original="#000000" style="" class=""></path><path xmlns="http://www.w3.org/2000/svg" d="m57 52h2v2h-2z" fill="#03476b" data-original="#000000" style="" class=""></path><path xmlns="http://www.w3.org/2000/svg" d="m51 42h2v2h-2z" fill="#03476b" data-original="#000000" style="" class=""></path><path xmlns="http://www.w3.org/2000/svg" d="m51 46h2v2h-2z" fill="#03476b" data-original="#000000" style="" class=""></path><path xmlns="http://www.w3.org/2000/svg" d="m43 42h2v2h-2z" fill="#03476b" data-original="#000000" style="" class=""></path><path xmlns="http://www.w3.org/2000/svg" d="m43 46h2v2h-2z" fill="#03476b" data-original="#000000" style="" class=""></path></g></svg>