<?xml version="1.0" encoding="utf-8"?>
<!-- Generator: Adobe Illustrator 16.0.0, SVG Export Plug-In . SVG Version: 6.00 Build 0)  -->
<!DOCTYPE svg PUBLIC "-//W3C//DTD SVG 1.1//EN" "http://www.w3.org/Graphics/SVG/1.1/DTD/svg11.dtd">
<svg version="1.1" id="Layer_1" xmlns:svgjs="http://svgjs.com/svgjs"
	 xmlns="http://www.w3.org/2000/svg" xmlns:xlink="http://www.w3.org/1999/xlink" x="0px" y="0px" width="512px" height="512px"
	 viewBox="0 0 512 512" enable-background="new 0 0 512 512" xml:space="preserve">
<g>
	<path fill="#37A1DA" d="M97.501,99.171l-20,73.329v30l30-30c11,0,20-9,20-20v-55L97.501,99.171z"/>
	<path fill="#37A1DA" d="M44.047,74.118l-32.181,52.808c-2.768,4.539-4.365,9.868-4.365,15.574c0,16.568,13.431,30,30,30h20l20,30
		v-30c11,0,20-9,20-20V74.118H44.047z"/>
	<path fill="#FFFFFF" d="M82.501,62.5v80c24.853,0,45-20.146,45-45c0-5.261-0.912-10.307-2.571-15L82.501,62.5z"/>
	<path fill="#37A1DA" d="M82.501,52.5l14.143,30h28.286C118.751,65.024,102.093,52.5,82.501,52.5z"/>
	<path fill="#FFFFFF" d="M40.072,82.5c-1.658,4.693-2.57,9.739-2.57,15c0,24.854,20.146,45,45,45c8.284,0,15-20.146,15-45
		c0-5.261-0.305-10.307-0.857-15l-14.143-20L40.072,82.5z"/>
	<path fill="#37A1DA" d="M82.501,52.5c-19.592,0-36.25,12.524-42.43,30h56.572C94.584,65.024,89.032,52.5,82.501,52.5z"/>
	<path fill="#37A1DA" d="M107.504,172.5h-30v120h50v-100C127.504,181.454,118.549,172.5,107.504,172.5z"/>
	<path fill="#37A1DA" d="M77.504,172.5h-20c-11.046,0-20,8.954-20,20v100h60v-100C97.504,181.454,88.549,172.5,77.504,172.5z"/>
	<path fill="#7DD9FF" d="M127.504,262.5h-30l15,90h30v-50.335C142.504,286.954,136.832,273.075,127.504,262.5z"/>
	<path fill="#A8E5FF" d="M97.504,262.5h-60c-9.329,10.575-15,24.454-15,39.665V352.5h90v-50.335
		C112.504,286.954,106.832,273.075,97.504,262.5z"/>
	<polygon fill="#37A1DA" points="157.504,132.5 157.504,162.5 202.504,162.5 202.504,132.5 180.004,117.5 	"/>
	<rect x="157.5" y="87.5" fill="#37A1DA" width="45" height="45"/>
	<polygon fill="#37A1DA" points="459.501,117.5 504.5,117.5 504.5,57.5 459.501,57.5 429.501,87 	"/>
	<g>
		<polygon fill="#37A1DA" points="384.501,117.5 459.501,117.5 459.501,57.5 414.501,57.5 		"/>
		<polygon fill="#37A1DA" points="277.504,117.5 232.504,117.5 232.504,57.5 277.504,57.5 307.504,87 		"/>
	</g>
	<polygon fill="#37A1DA" points="352.504,117.5 277.504,117.5 277.504,57.5 322.504,57.5 	"/>
	<polygon fill="#37A1DA" points="369.501,167.5 384.501,57.5 414.501,57.5 414.501,167.5 	"/>
	<rect x="322.5" y="57.5" fill="#37A1DA" width="61.998" height="108"/>
	<g>
		<path fill="#37A1DA" d="M368.502,401.697c-34.081,0-66.101-13.249-90.157-37.307c-2.929-2.929-2.929-7.678,0-10.606
			c2.931-2.929,7.679-2.929,10.607,0c21.224,21.226,49.476,32.914,79.55,32.914s58.326-11.688,79.551-32.914
			c2.93-2.929,7.678-2.929,10.606,0c2.93,2.93,2.93,7.678,0,10.606C434.603,388.448,402.584,401.697,368.502,401.697z"/>
		<path fill="#37A1DA" d="M368.502,361.697c-23.396,0-45.37-9.088-61.872-25.591c-2.929-2.929-2.929-7.678,0-10.606
			c2.931-2.93,7.679-2.929,10.606,0c13.669,13.67,31.875,21.197,51.266,21.197s37.597-7.527,51.266-21.197
			c2.929-2.928,7.678-2.93,10.605,0c2.931,2.93,2.931,7.678,0.002,10.606C413.872,352.608,391.899,361.697,368.502,361.697z"/>
		<path fill="#37A1DA" d="M368.502,321.713c-12.163,0-24.327-4.631-33.588-13.892c-2.93-2.929-2.93-7.678,0-10.606
			s7.678-2.929,10.606,0c12.671,12.672,33.289,12.674,45.962,0c2.931-2.929,7.678-2.929,10.607,0c2.929,2.93,2.929,7.679,0,10.606
			C392.83,317.082,380.666,321.713,368.502,321.713z"/>
	</g>
	<path id="SVGCleanerId_0" fill="#03476B" d="M210.004,156.29V87.5c0-4.142-3.357-7.5-7.5-7.5h-45c-4.144,0-7.5,3.358-7.5,7.5v75
		c0,4.143,3.356,7.5,7.5,7.5h45c4.136,0,7.5,3.364,7.5,7.5c0,4.137-3.364,7.5-7.5,7.5h-68.548c-1.375-4.841-4.042-9.14-7.608-12.501
		c5.322-5.018,8.654-12.124,8.654-19.999V97.615c0-0.039,0.003-0.077,0.003-0.115c0-28.948-23.552-52.5-52.5-52.5
		c-18.691,0-35.121,9.826-44.426,24.576c-0.154,0.203-0.301,0.416-0.437,0.639l-32.18,52.808c-3.573,5.86-5.462,12.596-5.462,19.478
		c0,19.207,14.517,35.078,33.153,37.24c-2.008,3.816-3.15,8.156-3.15,12.76v67.259c-9.693,11.989-15,26.936-15,42.406V352.5
		c0,4.143,3.356,7.5,7.5,7.5h22.5v129.095l-24.872,8.291c-3.929,1.31-6.053,5.557-4.743,9.486c1.048,3.144,3.974,5.131,7.114,5.131
		c0.786,0,1.586-0.125,2.373-0.388l30-10c3.062-1.021,5.128-3.887,5.128-7.114V360h45v134.5c0,3.229,2.064,6.095,5.128,7.115l30,10
		c0.787,0.263,1.587,0.388,2.373,0.388c3.141,0,6.065-1.988,7.114-5.131c1.31-3.93-0.814-8.177-4.743-9.486l-24.872-8.291V360h22.5
		c4.143,0,7.5-3.357,7.5-7.5v-50.335c0-15.47-5.308-30.417-15-42.406V200h67.5c12.406,0,22.5-10.093,22.5-22.5
		C225.004,167.723,218.733,159.386,210.004,156.29z M107.504,180c6.893,0,12.5,5.607,12.5,12.5V255h-75v-62.5
		c0-6.893,5.606-12.5,12.5-12.5H107.504z M45.759,90h73.491c0.491,2.412,0.751,4.907,0.754,7.461
		c-0.002,0.039-0.002,0.154-0.002,0.154C119.938,118.24,103.143,135,82.504,135c-20.678,0-37.5-16.821-37.5-37.5
		C45.004,94.932,45.265,92.424,45.759,90z M82.504,60c12.242,0,23.131,5.898,29.979,15h-59.96C59.373,65.898,70.262,60,82.504,60z
		 M15.001,142.5c0-4.126,1.131-8.162,3.27-11.671l13.097-21.49C36.751,132.602,57.627,150,82.504,150
		c14.678,0,27.961-6.062,37.497-15.805V152.5c0,6.894-5.607,12.5-12.5,12.5H57.504c-0.003,0-20.003,0-20.003,0
		C25.095,165,15.001,154.907,15.001,142.5z M135.004,345h-105v-42.835c0-11.687,3.905-22.981,11.038-32.165h82.923
		c7.134,9.185,11.039,20.479,11.039,32.165V345z M195.004,95v30h-30V95H195.004z M165.004,140h30v15h-30V140z"/>
	<circle fill="#03476B" cx="82.5" cy="322.5" r="7.5"/>
	<circle fill="#03476B" cx="82.5" cy="292.5" r="7.5"/>
	<path id="SVGCleanerId_1" fill="#03476B" d="M504.5,50h-85.364l-12.927-25.854c-1.271-2.541-3.867-4.146-6.708-4.146h-22.5V7.5
		c0-4.142-3.357-7.5-7.5-7.5c-4.144,0-7.5,3.358-7.5,7.5V20h-24.497c-2.841,0-5.438,1.605-6.708,4.146L317.869,50h-85.365
		c-4.144,0-7.5,3.358-7.5,7.5v60c0,4.143,3.356,7.5,7.5,7.5h82.5v33.513c-23.598,16.428-42.331,40.434-52.995,68.018
		c-0.893,2.307-0.59,4.905,0.81,6.945c1.398,2.04,3.712,3.259,6.187,3.259h42.304l52.418,43.283c0.322,0.266,0.67,0.501,1.034,0.711
		c0.03,0.018,0.06,0.038,0.09,0.055c0.338,0.189,0.693,0.347,1.062,0.482c0.054,0.02,0.106,0.041,0.162,0.059
		c0.353,0.121,0.718,0.217,1.093,0.284c0.061,0.011,0.121,0.018,0.182,0.028c0.377,0.058,0.761,0.098,1.154,0.098
		c0.393,0,0.775-0.039,1.152-0.098c0.063-0.011,0.123-0.018,0.185-0.028c0.374-0.067,0.737-0.163,1.09-0.284
		c0.056-0.019,0.111-0.041,0.167-0.061c0.365-0.136,0.719-0.292,1.054-0.48c0.034-0.019,0.066-0.041,0.101-0.061
		c0.36-0.209,0.706-0.441,1.024-0.705c0.001-0.001,52.421-43.284,52.421-43.284H468c2.475,0,4.787-1.219,6.187-3.259
		s1.702-4.639,0.81-6.945c-10.662-27.585-29.396-51.591-52.994-68.019V125h82.5c4.143,0,7.5-3.357,7.5-7.5v-60
		C512,53.358,508.644,50,504.5,50z M497,80h-29.999V65H497V80z M330.004,155V65h76.997v90H330.004z M315.004,80h-30V65h30V80z
		 M422.001,65h30v15h-30V65z M342.14,35h52.727l7.499,15H334.64L342.14,35z M270.004,65v15h-30V65H270.004z M240.004,95h30v15h-30
		V95z M285.004,110V95h30v15H285.004z M361.002,258.316l-26.136-21.581h26.137L361.002,258.316z M376.002,258.315v-21.581h26.136
		L376.002,258.315z M456.568,221.734h-176.13C290.6,200.77,306.05,182.722,324.806,170h87.394
		C430.954,182.721,446.405,200.77,456.568,221.734z M422.001,95h30v15h-30V95z M467.001,110V95H497v15H467.001z"/>
	<path fill="#03476B" d="M368.502,321.713c12.164,0,24.328-4.631,33.589-13.892c2.929-2.929,2.929-7.678,0-10.606
		c-2.931-2.929-7.678-2.929-10.607,0c-12.673,12.674-33.291,12.672-45.962,0c-2.93-2.929-7.678-2.929-10.606,0
		c-2.93,2.93-2.93,7.679,0,10.606"/>
	<g>
		<path id="SVGCleanerId_0_1_" fill="#03476B" d="M210.004,156.29V87.5c0-4.142-3.357-7.5-7.5-7.5h-45c-4.144,0-7.5,3.358-7.5,7.5
			v75c0,4.143,3.356,7.5,7.5,7.5h45c4.136,0,7.5,3.364,7.5,7.5c0,4.137-3.364,7.5-7.5,7.5h-68.548
			c-1.375-4.841-4.042-9.14-7.608-12.501c5.322-5.018,8.654-12.124,8.654-19.999V97.615c0-0.039,0.003-0.077,0.003-0.115
			c0-28.948-23.552-52.5-52.5-52.5c-18.691,0-35.121,9.826-44.426,24.576c-0.154,0.203-0.301,0.416-0.437,0.639l-32.18,52.808
			c-3.573,5.86-5.462,12.596-5.462,19.478c0,19.207,14.517,35.078,33.153,37.24c-2.008,3.816-3.15,8.156-3.15,12.76v67.259
			c-9.693,11.989-15,26.936-15,42.406V352.5c0,4.143,3.356,7.5,7.5,7.5h22.5v129.095l-24.872,8.291
			c-3.929,1.31-6.053,5.557-4.743,9.486c1.048,3.144,3.974,5.131,7.114,5.131c0.786,0,1.586-0.125,2.373-0.388l30-10
			c3.062-1.021,5.128-3.887,5.128-7.114V360h45v134.5c0,3.229,2.064,6.095,5.128,7.115l30,10c0.787,0.263,1.587,0.388,2.373,0.388
			c3.141,0,6.065-1.988,7.114-5.131c1.31-3.93-0.814-8.177-4.743-9.486l-24.872-8.291V360h22.5c4.143,0,7.5-3.357,7.5-7.5v-50.335
			c0-15.47-5.308-30.417-15-42.406V200h67.5c12.406,0,22.5-10.093,22.5-22.5C225.004,167.723,218.733,159.386,210.004,156.29z
			 M107.504,180c6.893,0,12.5,5.607,12.5,12.5V255h-75v-62.5c0-6.893,5.606-12.5,12.5-12.5H107.504z M45.759,90h73.491
			c0.491,2.412,0.751,4.907,0.754,7.461c-0.002,0.039-0.002,0.154-0.002,0.154C119.938,118.24,103.143,135,82.504,135
			c-20.678,0-37.5-16.821-37.5-37.5C45.004,94.932,45.265,92.424,45.759,90z M82.504,60c12.242,0,23.131,5.898,29.979,15h-59.96
			C59.373,65.898,70.262,60,82.504,60z M15.001,142.5c0-4.126,1.131-8.162,3.27-11.671l13.097-21.49
			C36.751,132.602,57.627,150,82.504,150c14.678,0,27.961-6.062,37.497-15.805V152.5c0,6.894-5.607,12.5-12.5,12.5H57.504
			c-0.003,0-20.003,0-20.003,0C25.095,165,15.001,154.907,15.001,142.5z M135.004,345h-105v-42.835
			c0-11.687,3.905-22.981,11.038-32.165h82.923c7.134,9.185,11.039,20.479,11.039,32.165V345z M195.004,95v30h-30V95H195.004z
			 M165.004,140h30v15h-30V140z"/>
	</g>
	<circle fill="#03476B" cx="82.5" cy="322.5" r="7.5"/>
	<circle fill="#03476B" cx="82.5" cy="292.5" r="7.5"/>
	<g>
		<path id="SVGCleanerId_1_1_" fill="#03476B" d="M504.5,50h-85.364l-12.927-25.854c-1.271-2.541-3.867-4.146-6.708-4.146h-22.5V7.5
			c0-4.142-3.357-7.5-7.5-7.5c-4.144,0-7.5,3.358-7.5,7.5V20h-24.497c-2.841,0-5.438,1.605-6.708,4.146L317.869,50h-85.365
			c-4.144,0-7.5,3.358-7.5,7.5v60c0,4.143,3.356,7.5,7.5,7.5h82.5v33.513c-23.598,16.428-42.331,40.434-52.995,68.018
			c-0.893,2.307-0.59,4.905,0.81,6.945c1.398,2.04,3.712,3.259,6.187,3.259h42.304l52.418,43.283
			c0.322,0.266,0.67,0.501,1.034,0.711c0.03,0.018,0.06,0.038,0.09,0.055c0.338,0.189,0.693,0.347,1.062,0.482
			c0.054,0.02,0.106,0.041,0.162,0.059c0.353,0.121,0.718,0.217,1.093,0.284c0.061,0.011,0.121,0.018,0.182,0.028
			c0.377,0.058,0.761,0.098,1.154,0.098c0.393,0,0.775-0.039,1.152-0.098c0.063-0.011,0.123-0.018,0.185-0.028
			c0.374-0.067,0.737-0.163,1.09-0.284c0.056-0.019,0.111-0.041,0.167-0.061c0.365-0.136,0.719-0.292,1.054-0.48
			c0.034-0.019,0.066-0.041,0.101-0.061c0.36-0.209,0.706-0.441,1.024-0.705c0.001-0.001,52.421-43.284,52.421-43.284H468
			c2.475,0,4.787-1.219,6.187-3.259s1.702-4.639,0.81-6.945c-10.662-27.585-29.396-51.591-52.994-68.019V125h82.5
			c4.143,0,7.5-3.357,7.5-7.5v-60C512,53.358,508.644,50,504.5,50z M497,80h-29.999V65H497V80z M330.004,155V65h76.997v90H330.004z
			 M315.004,80h-30V65h30V80z M422.001,65h30v15h-30V65z M342.14,35h52.727l7.499,15H334.64L342.14,35z M270.004,65v15h-30V65
			H270.004z M240.004,95h30v15h-30V95z M285.004,110V95h30v15H285.004z M361.002,258.316l-26.136-21.581h26.137L361.002,258.316z
			 M376.002,258.315v-21.581h26.136L376.002,258.315z M456.568,221.734h-176.13C290.6,200.77,306.05,182.722,324.806,170h87.394
			C430.954,182.721,446.405,200.77,456.568,221.734z M422.001,95h30v15h-30V95z M467.001,110V95H497v15H467.001z"/>
	</g>
	<path fill="#03476B" d="M448.053,353.783c-21.225,21.226-49.477,32.914-79.551,32.914s-58.326-11.688-79.55-32.914
		c-2.93-2.929-7.678-2.929-10.607,0c-2.929,2.93-2.929,7.678,0,10.606c24.058,24.058,56.076,37.307,90.157,37.307
		c34.082,0,66.101-13.249,90.157-37.307c2.93-2.929,2.93-7.678,0-10.606S450.982,350.854,448.053,353.783z"/>
	<path fill="#03476B" d="M306.63,325.5c-2.929,2.93-2.929,7.678,0,10.606c16.502,16.502,38.476,25.591,61.872,25.591
		s45.37-9.088,61.873-25.591c2.929-2.929,2.929-7.678-0.002-10.606c-2.929-2.93-7.678-2.928-10.605,0
		c-13.669,13.67-31.875,21.197-51.266,21.197s-37.597-7.527-51.266-21.197C314.309,322.571,309.561,322.57,306.63,325.5z"/>
	<path fill="#03476B" d="M402.091,307.822c2.929-2.929,2.929-7.678,0-10.606c-2.931-2.929-7.678-2.929-10.607,0
		c-12.673,12.674-33.291,12.672-45.962,0c-2.93-2.929-7.678-2.929-10.606,0c-2.93,2.93-2.93,7.679,0,10.606
		c9.261,9.26,21.425,13.892,33.588,13.892C380.666,321.713,392.83,317.082,402.091,307.822z"/>
</g>
</svg>
