<?xml version="1.0" encoding="utf-8"?>
<!-- Generator: Adobe Illustrator 16.0.0, SVG Export Plug-In . SVG Version: 6.00 Build 0)  -->
<!DOCTYPE svg PUBLIC "-//W3C//DTD SVG 1.1//EN" "http://www.w3.org/Graphics/SVG/1.1/DTD/svg11.dtd">
<svg version="1.1" id="Layer_1" xmlns:svgjs="http://svgjs.com/svgjs"
	 xmlns="http://www.w3.org/2000/svg" xmlns:xlink="http://www.w3.org/1999/xlink" x="0px" y="0px" width="512px" height="512px"
	 viewBox="0 0 512 512" enable-background="new 0 0 512 512" xml:space="preserve">
<g>
	<path fill="#37A1DA" d="M247.661,504.41H57.094c-8.835,0-15.998-7.162-15.998-15.998v-13.718
		c0-61.459,49.822-111.281,111.281-111.281c61.46,0,111.281,49.823,111.281,111.281v13.718
		C263.659,497.248,256.496,504.41,247.661,504.41z"/>
	<path fill="#37A1DA" d="M152.378,363.413c-5.15,0-10.217,0.358-15.181,1.035c54.276,7.405,96.101,53.938,96.101,110.246v13.718
		c0,8.835-7.162,15.998-15.998,15.998h30.361c8.835,0,15.998-7.162,15.998-15.998v-13.718
		C263.659,413.236,213.837,363.413,152.378,363.413z"/>
	<path fill="#FFFFFF" d="M402.887,7.591c-50.304,0-91.083,40.779-91.083,91.084c0,18.467,5.501,35.646,14.945,50l-14.604,29.689
		c-1.937,7.224,4.675,13.834,11.898,11.898l29.946-14.731c14.127,9.007,30.903,14.228,48.897,14.228
		c50.305,0,91.084-40.779,91.084-91.084S453.191,7.591,402.887,7.591z"/>
	<path fill="#37A1DA" d="M402.887,7.591c-5.173,0-10.242,0.438-15.18,1.266c43.077,7.229,75.902,44.686,75.902,89.818
		c0,45.123-32.814,82.575-75.88,89.813c4.931,0.827,9.992,1.271,15.157,1.271c50.305,0,91.084-40.779,91.084-91.084
		S453.191,7.591,402.887,7.591z"/>
	<path fill="#03476B" d="M413.354,95.262c-6.602,5.162-6.722,8.763-6.722,15.005c0,2.281-1.2,4.922-7.083,4.922
		c-4.921,0-6.601-1.801-6.601-8.043c0-10.323,4.561-15.244,8.042-18.245c3.961-3.361,10.684-7.082,10.684-13.564
		c0-5.521-4.803-8.162-10.804-8.162c-12.243,0-9.604,9.243-16.085,9.243c-3.241,0-7.202-2.161-7.202-6.842
		c0-6.482,7.442-16.084,23.647-16.084c15.364,0,25.567,8.522,25.567,19.806S416.595,92.742,413.354,95.262z M408.913,132.714
		c0,4.921-4.082,9.243-9.243,9.243s-9.122-4.322-9.122-9.243c0-5.041,4.081-9.243,9.122-9.243S408.913,127.673,408.913,132.714z"/>
	<path fill="#F7F7F7" d="M152.334,394.716c-12.023,0-21.771-9.747-21.771-21.771v-21.357c0-12.023,9.747-21.771,21.771-21.771
		c12.022,0,21.77,9.747,21.77,21.771v21.357C174.103,384.969,164.357,394.716,152.334,394.716z"/>
	<ellipse fill="#FFFFFF" cx="256.542" cy="251.402" rx="30.678" ry="30.678"/>
	<ellipse fill="#FFFFFF" cx="48.792" cy="251.328" rx="30.684" ry="30.684"/>
	<path fill="#F7F7F7" d="M150.533,364.507c-55.709,0-100.869-45.16-100.869-100.869l0.461-67.608
		c0.228-33.326,27.309-60.221,60.634-60.221h80.466c33.649,0,60.863,27.4,60.634,61.05l-0.457,66.78
		C251.403,319.346,206.242,364.507,150.533,364.507z"/>
	<path fill="#FFFFFF" d="M191.225,135.807h-30.361c33.649,0,60.863,27.399,60.634,61.049l-0.457,66.781
		c0,50.549-37.183,92.411-85.688,99.732c4.952,0.746,10.021,1.136,15.181,1.136c55.709,0,100.869-45.16,100.869-100.869
		l0.457-66.781C252.089,163.208,224.875,135.807,191.225,135.807L191.225,135.807z"/>
	<path fill="#37A1DA" d="M251.604,209.909l0.055-7.975c0-55.709-45.16-100.869-100.869-100.869S49.92,146.225,49.92,201.934
		l-0.055,7.975l4.979-2.719c21.437-11.703,46.81-13.841,69.903-5.893c15.97,5.496,33.496,4.174,48.459-3.656
		c24.27-12.7,53.848-9.19,74.471,8.836L251.604,209.909z"/>
	<path fill="#37A1DA" d="M150.789,101.066c-5.16,0-10.229,0.39-15.181,1.136c45.373,6.849,80.832,43.921,85.225,90.054
		c9.728,2.55,18.945,7.317,26.847,14.224l3.924,3.431l0.055-7.975C251.658,146.226,206.498,101.066,150.789,101.066z"/>
	<path fill="#03476B" d="M406.786,0.076C350.61-2.1,304.213,42.97,304.213,98.675c0,17.864,4.779,35.21,13.859,50.444
		l-13.066,26.562l-0.075,0.278c-1.611,6.008-0.145,12.535,4.197,16.99c3.333,3.421,7.739,5.251,12.322,5.251
		c1.51,0,3.04-0.199,4.558-0.605l0.717-0.192l26.883-13.225c14.947,8.629,31.893,13.171,49.279,13.171
		c55.704,0,100.774-46.396,98.599-102.573C499.502,43.562,457.999,2.059,406.786,0.076L406.786,0.076z M402.887,182.168
		c-15.941,0-31.438-4.509-44.817-13.037c-2.236-1.425-5.053-1.581-7.431-0.411l-29.048,14.29c-0.727,0.038-1.238-0.302-1.563-0.629
		c-0.327-0.326-0.667-0.845-0.63-1.564l14.173-28.81c1.182-2.402,1.004-5.251-0.469-7.487l-0.011-0.017
		c-9.981-15.167-14.721-33.1-13.512-51.435c2.823-42.834,38.31-76.811,81.224-77.861c46.987-1.15,85.578,36.737,85.578,83.469
		C486.381,144.714,448.925,182.168,402.887,182.168L402.887,182.168z"/>
	<path fill="#03476B" d="M259.338,213.157l-0.089-11.222c0-59.805-48.655-108.46-108.46-108.46c-19.02,0-37.735,4.996-54.121,14.449
		c-3.631,2.095-4.877,6.736-2.782,10.367c2.094,3.631,6.737,4.876,10.367,2.782c14.084-8.124,30.176-12.418,46.536-12.418
		c48.794,0,88.958,37.658,92.953,85.394c-22.149-14.206-50.146-15.643-74.054-3.133c-13.057,6.833-28.537,8-42.47,3.204
		c-22.784-7.843-47.766-6.62-69.597,3.218c1.086-22.364,10.085-43.425,25.615-59.729c2.892-3.035,2.774-7.841-0.261-10.732
		c-3.036-2.891-7.841-2.773-10.732,0.262c-19.29,20.252-29.915,46.814-29.915,74.742l0.085,11.689
		c-18.116,3.011-31.977,18.783-31.977,37.74c0,19.91,15.286,36.311,34.738,38.099c8.269,33.798,32.415,61.429,64.056,74.508
		c-12.718,4.962-24.574,12.107-34.946,21.152c-3.16,2.755-3.488,7.55-0.733,10.709c1.501,1.722,3.607,2.603,5.725,2.603
		c1.77,0,3.547-0.616,4.985-1.87c11.278-9.835,24.563-17.095,38.807-21.294c1.165,15.13,13.84,27.088,29.264,27.088
		c15.438,0,28.121-11.979,29.266-27.13c43.658,12.787,74.47,53.258,74.47,99.519v13.718c0,4.636-3.772,8.408-8.408,8.408h-28.501
		v-20.762c0-4.191-3.398-7.59-7.591-7.59c-4.191,0-7.59,3.398-7.59,7.59v20.762h-94.231v-20.762c0-4.191-3.398-7.59-7.591-7.59
		c-4.191,0-7.59,3.398-7.59,7.59v20.762H57.094c-4.636,0-8.407-3.772-8.407-8.408v-13.718c0-20.421,5.927-40.176,17.142-57.129
		c2.313-3.496,1.354-8.205-2.143-10.518c-3.497-2.313-8.206-1.354-10.52,2.143c-12.861,19.444-19.661,42.095-19.661,65.504v13.718
		c0,13.007,10.581,23.588,23.588,23.588H247.66c13.007,0,23.589-10.581,23.589-23.588v-13.718
		c0-50.254-31.726-94.547-77.646-111.525c30.738-13.351,54.124-40.529,62.262-73.625c0.232,0.021,0.466,0.035,0.703,0.035
		c21.101,0,38.268-17.166,38.268-38.268C294.835,231.144,279.15,214.582,259.338,213.157L259.338,213.157z M25.618,251.312
		c0-10.51,7.063-19.396,16.69-22.178l-0.235,34.503c0,3.344,0.16,6.65,0.459,9.917C32.791,270.846,25.618,261.904,25.618,251.312
		L25.618,251.312z M152.334,387.125c-7.819,0-14.18-6.36-14.18-14.18v-1.56c4.063,0.464,8.193,0.711,12.379,0.711
		c5.429,0,10.763-0.406,15.979-1.18v2.027C166.513,380.764,160.152,387.125,152.334,387.125L152.334,387.125z M150.533,356.917
		c-51.435,0-93.279-41.845-93.279-93.227l0.337-49.351l0.89-0.485c19.518-10.656,42.771-12.616,63.798-5.378
		c17.863,6.148,37.709,4.651,54.448-4.108c21.66-11.334,47.55-8.263,65.957,7.826l1.471,1.285l-0.342,50.159
		C243.813,315.072,201.967,356.917,150.533,356.917z M258.471,274.315c0.342-3.496,0.522-7.04,0.522-10.625l0.24-35.306
		c11.479,1.327,20.421,11.101,20.421,22.929C279.655,263.402,270.314,273.343,258.471,274.315z"/>
	<path fill="#03476B" d="M102.866,262.06c-4.192,0-7.591,3.398-7.591,7.591v7.225c0,4.192,3.398,7.591,7.591,7.591
		c4.191,0,7.59-3.398,7.59-7.591v-7.225C110.456,265.459,107.058,262.06,102.866,262.06z"/>
	<path fill="#03476B" d="M194.047,262.06c-4.191,0-7.59,3.398-7.59,7.591v7.225c0,4.192,3.398,7.591,7.59,7.591
		c4.192,0,7.591-3.398,7.591-7.591v-7.225C201.638,265.459,198.24,262.06,194.047,262.06z"/>
	<path fill="#03476B" d="M155.435,315.374c7.475,0,14.369-4.064,17.995-10.606c2.032-3.667,0.706-8.286-2.961-10.317
		c-1.166-0.646-2.427-0.953-3.672-0.953c-2.669,0-5.26,1.412-6.646,3.913c-0.951,1.718-2.759,2.783-4.717,2.783
		c-1.953,0-3.758-1.063-4.711-2.772c-2.04-3.661-6.662-4.976-10.324-2.935c-3.662,2.04-4.977,6.663-2.936,10.325
		C141.095,311.327,147.981,315.374,155.435,315.374L155.435,315.374z"/>
	<path fill="#03476B" d="M112.566,233.973c-9.189-3.969-19.715-3.118-28.158,2.279c-3.532,2.258-4.565,6.952-2.308,10.483
		c1.448,2.267,3.899,3.503,6.403,3.503c1.398,0,2.814-0.387,4.081-1.196c4.188-2.678,9.407-3.101,13.96-1.134
		c3.849,1.662,8.315-0.109,9.978-3.957C118.186,240.103,116.413,235.636,112.566,233.973L112.566,233.973z"/>
	<path fill="#03476B" d="M194.73,248.068c4.867-1.016,9.896,0.441,13.453,3.897c3.007,2.92,7.813,2.852,10.733-0.156
		c2.92-3.007,2.851-7.813-0.156-10.733c-5.677-5.514-13.205-8.506-20.956-8.506c-2.054,0-4.123,0.211-6.178,0.639
		c-4.104,0.857-6.736,4.878-5.879,8.981C186.606,246.294,190.627,248.923,194.73,248.068L194.73,248.068z"/>
</g>
</svg>
