<?xml version="1.0" encoding="utf-8"?>
<!-- Generator: Adobe Illustrator 16.0.0, SVG Export Plug-In . SVG Version: 6.00 Build 0)  -->
<!DOCTYPE svg PUBLIC "-//W3C//DTD SVG 1.1//EN" "http://www.w3.org/Graphics/SVG/1.1/DTD/svg11.dtd">
<svg version="1.1" id="Layer_1" xmlns:v="https://vecta.io/nano"
	 xmlns="http://www.w3.org/2000/svg" xmlns:xlink="http://www.w3.org/1999/xlink" x="0px" y="0px" width="80px" height="80px"
	 viewBox="216 216 80 80" enable-background="new 216 216 80 80" xml:space="preserve">
<path fill="#0071DC" d="M293.979,249.903c-0.354-0.355-0.863-0.509-1.355-0.41l-12.935,2.604c-0.543,0.109-0.981,0.507-1.141,1.037
	c-0.16,0.53-0.017,1.104,0.374,1.495l1.75,1.75l-6.867,6.869l-5.316-5.318c-0.283-0.28-0.663-0.439-1.063-0.439
	c-0.396,0-0.78,0.159-1.062,0.439l-6.523,6.524l2.447-8.792c0.594-2.138,0.165-4.377-1.177-6.143
	c-0.822-1.083-1.906-1.881-3.134-2.338l1.956-5.588c0.539,0.047,1.08,0.072,1.611,0.072c4.332,0,8.559-1.528,11.896-4.301
	l0.358-0.297c1.761-1.462,2.063-4.004,0.686-5.786c-0.688-0.898-1.714-1.475-2.839-1.596c-1.134-0.125-2.241,0.207-3.118,0.936
	l-0.406,0.338c-0.598,0.498-1.253,0.927-1.946,1.276c-2.314,1.167-5.206,0.647-7.126-1.253c2.795-0.865,4.831-3.473,4.831-6.547
	c0-3.778-3.074-6.852-6.854-6.852c-3.777,0-6.852,3.074-6.852,6.852c0,1.504,0.488,2.895,1.312,4.025
	c-1.559,0.336-2.961,1.139-4.035,2.276c-0.064,0.054-0.124,0.115-0.177,0.181c-2.646,3.25-6.173,5.582-10.2,6.741
	c-1.091,0.314-1.954,1.038-2.472,1.956l-3.075-3.076c-1.346-1.346-3.535-1.345-4.882,0l-4.025,4.026l0,0l0,0l-4.026,4.025
	c-0.652,0.652-1.011,1.519-1.011,2.442c-0.003,0.916,0.361,1.794,1.011,2.44l11.092,11.091c0.646,0.651,1.525,1.015,2.44,1.013
	c0.916,0.002,1.795-0.361,2.441-1.013l4.169-4.168l-1.977,5.183c-0.295,0.774,0.092,1.643,0.868,1.937
	c0.175,0.065,0.356,0.099,0.534,0.099c0.605,0,1.175-0.365,1.403-0.967l4.922-12.905h9.396h1.625c1.272,0,2.444,0.581,3.211,1.594
	c0.771,1.013,1.017,2.298,0.676,3.523l-3.41,12.252c-0.153,0.553-0.66,0.938-1.233,0.938c-0.513,0-0.83-0.281-0.973-0.449
	c-0.144-0.168-0.371-0.525-0.291-1.031l1.815-11.408c0.13-0.819-0.428-1.588-1.247-1.719c-0.079-0.011-0.156-0.017-0.236-0.017
	h-3.558c-0.565,0-1.083,0.319-1.339,0.823l-11.73,23.208c-0.293,0.584-0.932,0.914-1.586,0.826l-0.071-0.009
	c-0.447-0.062-0.835-0.318-1.065-0.705c-0.23-0.385-0.271-0.856-0.109-1.274l0.925-2.424c0.295-0.775-0.094-1.643-0.868-1.938
	c-0.774-0.297-1.641,0.094-1.937,0.869l-0.925,2.424c-0.891,2.287,0.242,4.865,2.53,5.755c0.336,0.132,0.688,0.222,1.046,0.267
	l0.071,0.012c0.206,0.025,0.411,0.039,0.613,0.039c1.7,0,3.281-0.949,4.058-2.49l11.312-22.381h0.876l-1.538,9.67
	c-0.197,1.24,0.157,2.497,0.971,3.453c0.524,0.613,1.203,1.058,1.954,1.297l-16.719,16.721c-0.281,0.281-0.439,0.661-0.439,1.06
	c0,0.399,0.158,0.78,0.439,1.062l4.305,4.305c0.582,0.588,1.53,0.59,2.116,0.008c0.002-0.004,0.004-0.006,0.006-0.008l8.276-8.275
	c0.586-0.588,0.586-1.537,0-2.123c-0.586-0.584-1.536-0.584-2.123,0l-7.214,7.213l-2.183-2.181l27.51-27.51l5.316,5.316
	c0.282,0.282,0.664,0.438,1.063,0.438s0.781-0.156,1.061-0.438l8.99-8.991c0.588-0.586,0.588-1.536,0-2.122l-0.83-0.832l7.977-1.605
	l-1.605,7.977l-1.235-1.234c-0.585-0.586-1.536-0.586-2.122,0l-12.234,12.234l-5.316-5.316c-0.586-0.588-1.537-0.588-2.124,0
	l-8.563,8.563c-0.585,0.584-0.585,1.535,0,2.121c0.587,0.587,1.536,0.587,2.126,0l7.498-7.5l5.316,5.316
	c0.588,0.586,1.537,0.586,2.123,0l12.234-12.234l2.154,2.154c0.393,0.393,0.966,0.535,1.496,0.373
	c0.529-0.158,0.929-0.596,1.037-1.139l2.604-12.935C294.49,250.768,294.334,250.258,293.979,249.903L293.979,249.903z
	 M257.028,220.583c2.123,0,3.85,1.727,3.85,3.85c0,2.123-1.727,3.851-3.85,3.851c-2.123,0-3.85-1.728-3.85-3.851
	S254.905,220.583,257.028,220.583z M242.177,247.185l-1.827-1.827c0.867-0.283,1.719-0.606,2.554-0.969L242.177,247.185z
	 M237.112,241.98c-0.177-0.616,0.18-1.261,0.795-1.438c2.467-0.711,4.769-1.808,6.842-3.241l-0.848,3.258
	c-1.687,0.932-3.484,1.679-5.352,2.216c-0.035,0.01-0.071,0.019-0.107,0.025c-0.276,0.053-0.554-0.002-0.786-0.135l-0.439-0.439
	C237.173,242.148,237.137,242.066,237.112,241.98L237.112,241.98z M228.77,238.659c0.083-0.084,0.199-0.132,0.318-0.132
	c0.115,0,0.23,0.044,0.318,0.132l5.47,5.471c0.251,0.344,0.554,0.646,0.897,0.897l4.724,4.725c0.176,0.175,0.176,0.461,0,0.637
	l-2.964,2.964l-3.298-3.297l0.628-0.628c0.586-0.585,0.586-1.536,0-2.123l-3.377-3.378c-0.587-0.586-1.537-0.586-2.124,0
	l-0.628,0.628l-2.931-2.931L228.77,238.659z M230.823,249.224c-0.105,0.106-0.249,0.166-0.398,0.166
	c-0.088,0-0.255-0.021-0.398-0.166l0,0l-0.459-0.459c-0.144-0.144-0.165-0.311-0.165-0.398c0-0.149,0.059-0.293,0.165-0.399
	l0.857-0.857l1.256,1.256L230.823,249.224z M232.446,258.439c-0.109,0.109-0.232,0.133-0.318,0.133
	c-0.119,0-0.234-0.047-0.318-0.133l-11.092-11.091c-0.109-0.109-0.132-0.233-0.132-0.318c-0.001-0.12,0.046-0.235,0.132-0.319
	l2.965-2.964l3.071,3.07c-0.23,0.478-0.353,1.004-0.353,1.55c0,0.953,0.371,1.847,1.044,2.521l0.458,0.459l0,0
	c0.667,0.671,1.575,1.046,2.521,1.044c0.545,0,1.071-0.122,1.548-0.353l3.438,3.437L232.446,258.439L232.446,258.439z
	 M253.885,246.737h-8.489l3.083-11.853c0.552-2.119,2.465-3.599,4.655-3.599c1.352,0,2.604,0.546,3.523,1.536
	c2.82,3.039,7.293,3.898,10.871,2.092c0.898-0.452,1.74-1.005,2.513-1.647l0.407-0.337c0.244-0.204,0.553-0.297,0.869-0.261
	c0.318,0.035,0.6,0.193,0.794,0.446c0.376,0.489,0.275,1.226-0.229,1.643l-0.356,0.297c-2.803,2.327-6.346,3.609-9.98,3.609
	c-0.789,0-1.596-0.064-2.398-0.188c-0.715-0.112-1.408,0.304-1.646,0.987l-2.547,7.276H253.885z M254.648,278.936
	c-0.395,0-0.782,0.159-1.061,0.439c-0.28,0.278-0.44,0.667-0.44,1.062c0.001,0.396,0.16,0.777,0.44,1.061
	c0.278,0.278,0.666,0.439,1.061,0.439c0.399-0.001,0.78-0.159,1.061-0.439c0.279-0.279,0.439-0.666,0.439-1.061
	C256.143,279.609,255.474,278.939,254.648,278.936L254.648,278.936z M236.021,269.23c0.395,0,0.782-0.16,1.061-0.438
	c0.279-0.281,0.44-0.667,0.44-1.063c0-0.394-0.161-0.782-0.44-1.061c-0.28-0.279-0.666-0.439-1.061-0.439s-0.782,0.16-1.062,0.439
	c-0.28,0.281-0.438,0.662-0.438,1.061c0,0.396,0.159,0.783,0.438,1.063C235.241,269.072,235.623,269.23,236.021,269.23
	L236.021,269.23z"/>
</svg>
