<?xml version="1.0" encoding="utf-8"?>
<!-- Generator: Adobe Illustrator 16.0.0, SVG Export Plug-In . SVG Version: 6.00 Build 0)  -->
<!DOCTYPE svg PUBLIC "-//W3C//DTD SVG 1.1//EN" "http://www.w3.org/Graphics/SVG/1.1/DTD/svg11.dtd">
<svg version="1.1" id="Layer_1" xmlns:svgjs="http://svgjs.com/svgjs"
	 xmlns="http://www.w3.org/2000/svg" xmlns:xlink="http://www.w3.org/1999/xlink" x="0px" y="0px" width="80px" height="80px"
	 viewBox="216 216 80 80" enable-background="new 216 216 80 80" xml:space="preserve">
<g>
	<g id="XMLID_176_">
		<path id="XMLID_183_" fill="#0071DC" d="M256.259,286.324c-13.037,0-24.402-8.322-28.521-20.327l3.356,1.464l1.805-4.136
			l-9.346-4.078l-5.974,8.965l3.755,2.503l2.146-3.221c4.744,13.787,17.802,23.342,32.78,23.342
			c16.733,0,31.072-11.924,34.094-28.357l-4.44-0.814C283.287,275.951,270.815,286.324,256.259,286.324L256.259,286.324z"/>
		<path id="XMLID_255_" fill="#0071DC" d="M256.259,225.68c12.908,0,24.244,8.233,28.432,20.107l-3.983-1.637l-1.717,4.174
			l9.964,4.095l5.472-8.604l-3.809-2.422l-1.73,2.723c-4.863-13.561-17.85-22.948-32.628-22.948
			c-16.563,0-30.875,11.783-34.032,28.016l4.43,0.861C229.402,235.927,241.851,225.68,256.259,225.68L256.259,225.68z"/>
		<path id="XMLID_258_" fill="#0071DC" d="M240.448,277.28h31.61v-37.049l-5.39-5.312h-26.221V277.28z M244.96,239.432h19.859
			l2.726,2.688v30.647H244.96V239.432z"/>
		<path id="XMLID_263_" fill="#0071DC" d="M251.095,244.31h10.327v4.513h-10.327V244.31z"/>
		<path id="XMLID_264_" fill="#0071DC" d="M251.095,253.843h10.327v4.512h-10.327V253.843z"/>
		<path id="XMLID_265_" fill="#0071DC" d="M251.095,263.376h10.327v4.513h-10.327V263.376z"/>
	</g>
</g>
</svg>
