<svg xmlns="http://www.w3.org/2000/svg" version="1.1" xmlns:xlink="http://www.w3.org/1999/xlink" xmlns:svgjs="http://svgjs.com/svgjs" width="512" height="512" x="0" y="0" viewBox="0 0 64 64" style="enable-background:new 0 0 512 512" xml:space="preserve"><g><rect xmlns="http://www.w3.org/2000/svg" fill="#B3BEC4" height="46" rx="6" width="60" x="2" y="2" data-original="#b3bec4" style=""></rect><path xmlns="http://www.w3.org/2000/svg" d="m56 2h-48a6 6 0 0 0 -6 6v29h60v-29a6 6 0 0 0 -6-6z" fill="#4596EC" data-original="#4596ec" style=""></path><path xmlns="http://www.w3.org/2000/svg" d="m54 29v-27h-46a6 6 0 0 0 -6 6v24h49a3 3 0 0 0 3-3z" fill="#6AABF0" data-original="#6aabf0" style=""></path><path xmlns="http://www.w3.org/2000/svg" d="m12 19v-3h-4v4h4.1a4.988 4.988 0 0 1 -.1-1z" fill="#B3BEC4" data-original="#b3bec4" style=""></path><path xmlns="http://www.w3.org/2000/svg" d="m22 16v3a4.988 4.988 0 0 1 -.1 1h4.1v-4z" fill="#B3BEC4" data-original="#b3bec4" style=""></path><path xmlns="http://www.w3.org/2000/svg" d="m20 12a4 4 0 0 1 -4 4h-4v3a5 5 0 0 0 10 0v-3.555a3.982 3.982 0 0 1 -2-3.445z" fill="#FDD9A1" data-original="#fdd9a1" style=""></path><path xmlns="http://www.w3.org/2000/svg" d="m14 24h6a6 6 0 0 1 6 6v4a0 0 0 0 1 0 0h-18a0 0 0 0 1 0 0v-4a6 6 0 0 1 6-6z" fill="#D4483F" data-original="#d4483f" style=""></path><path xmlns="http://www.w3.org/2000/svg" d="m11 29h2v5h-2z" fill="#B73831" data-original="#b73831" style=""></path><path xmlns="http://www.w3.org/2000/svg" d="m21 29h2v5h-2z" fill="#B73831" data-original="#b73831" style=""></path><path xmlns="http://www.w3.org/2000/svg" d="m14 24a3 3 0 0 0 3 3 3 3 0 0 0 3-3z" fill="#FDD9A1" data-original="#fdd9a1" style=""></path><path xmlns="http://www.w3.org/2000/svg" d="m36 24a4 4 0 0 1 -4-4v-10a4 4 0 0 1 4-4h16a4 4 0 0 1 4 4v10a4 4 0 0 1 -4 4h-6l-4 4v-4z" fill="#E0E0E0" data-original="#e0e0e0" style=""></path><path xmlns="http://www.w3.org/2000/svg" d="m52 6h-16a4 4 0 0 0 -4 4v10a3.977 3.977 0 0 0 .141 1h17.859a3 3 0 0 0 3-3v-11.859a3.977 3.977 0 0 0 -1-.141z" fill="#F3F3F3" data-original="#f3f3f3" style=""></path><path xmlns="http://www.w3.org/2000/svg" d="m41 10v10l8-5z" fill="#D4483F" data-original="#d4483f" style=""></path><g xmlns="http://www.w3.org/2000/svg" fill="#F3F3F3"><path d="m37 27h2v2h-2z" fill="#F3F3F3" data-original="#f3f3f3" style=""></path><path d="m33 27h2v2h-2z" fill="#F3F3F3" data-original="#f3f3f3" style=""></path><path d="m29 27h2v2h-2z" fill="#F3F3F3" data-original="#f3f3f3" style=""></path></g><path xmlns="http://www.w3.org/2000/svg" d="m22 56h20a3 3 0 0 1 3 3v3a0 0 0 0 1 0 0h-26a0 0 0 0 1 0 0v-3a3 3 0 0 1 3-3z" fill="#B3BEC4" data-original="#b3bec4" style=""></path><path xmlns="http://www.w3.org/2000/svg" d="m25 48h14v8h-14z" fill="#D1D8DC" data-original="#d1d8dc" style=""></path><circle xmlns="http://www.w3.org/2000/svg" cx="56" cy="42" fill="#94A4AD" r="2" data-original="#94a4ad" style=""></circle><path xmlns="http://www.w3.org/2000/svg" d="m26 21h-7v-2h6v-5a8 8 0 0 0 -16 0v6h-2v-6a10 10 0 0 1 20 0v6a1 1 0 0 1 -1 1z" fill="#667D8A" data-original="#667d8a" style=""></path><path xmlns="http://www.w3.org/2000/svg" d="m20 12a4 4 0 0 0 4 4v-1a7 7 0 0 0 -7-7 7 7 0 0 0 -7 7v1h6a4 4 0 0 0 4-4z" fill="#667D8A" data-original="#667d8a" style=""></path></g></svg>