<svg xmlns="http://www.w3.org/2000/svg" version="1.1" xmlns:xlink="http://www.w3.org/1999/xlink" xmlns:svgjs="http://svgjs.com/svgjs" width="512" height="512" x="0" y="0" viewBox="0 0 512 512" style="enable-background:new 0 0 512 512" xml:space="preserve" class=""><g><g xmlns="http://www.w3.org/2000/svg"><g clip-rule="evenodd" fill-rule="evenodd"><g><path d="m360.75 374.249c-16.55 0-25.221 1.684-31.133 11.923l-7.827 13.557c-6.908 11.965-15.583 12.777-33.728 12.777-32.5 0-40.061 0-72.56 0-29.063 0-29.625 40.493 0 40.493h281.617c-5.726-28.317-16.317-54.869-30.862-78.75z" fill="#FF5D7D" data-original="#ff5d7d" style=""></path><path d="m329.617 386.172c5.911-10.239 14.583-11.923 31.133-11.923h105.506c-11.739-19.273-26.053-36.806-42.463-52.121l4.535-12.98c3.055-8.746 2.575-18.291-5.261-23.233l-40.96-25.835c-7.836-4.942-16.657-1.264-23.233 5.261l-9.209 9.137c-28.87-11.902-60.498-18.478-93.665-18.478-6.781 0-13.498.274-20.14.813-54.614 4.428-104.18 26.701-142.874 60.973l-12.264-6.945c-8.061-4.565-17.539-5.793-23.799 1.037l-21.541 23.504c-6.26 6.829-4.212 16.165 1.037 23.798l9.813 14.272c-22.975 37.409-36.232 81.428-36.232 128.548h492c0-16.78-1.681-33.166-4.883-49.001h-281.616c-29.625 0-29.063-40.493 0-40.493h72.56c18.145 0 26.821-.812 33.728-12.777zm-191.74-15.021c11.046 0 20 8.955 20 20 0 11.046-8.954 19.999-20 19.999s-20-8.953-20-19.999c0-11.045 8.954-19.999 20-20z" fill="#FF7B79" data-original="#ff7b79" style=""></path><path d="m157.876 391.152c0-11.046-8.954-20-20-20s-20 8.954-20 20 8.954 19.999 20 19.999 20-8.954 20-19.999z" fill="#FF5D7D" data-original="#ff5d7d" style=""></path></g><path d="m318.45 75.097-32.548-32.549-32.549-32.548c-17.976 17.976-17.976 47.121 0 65.097s47.121 17.976 65.097 0z" fill="#FFFFFF" data-original="#ffffff" style=""></path><path d="m316 124.49h-120v40h.041 119.919.04z" fill="#A7BDCD" data-original="#a7bdcd" style=""></path><path d="m315.96 164.49h-119.919c-62.386 22.036-108.998 77.475-118.329 144.835-1.129 8.147-1.712 16.466-1.712 24.923h100v-40.001c0-44.183 35.817-80 80-80s80 35.817 80 80v40.001h99.903.097c0-78.386-50.11-145.058-120.04-169.758z" fill="#FFFFFF" data-original="#ffffff" style=""></path><path d="m256 214.246c-44.183 0-80 35.817-80 80v40.001h160v-40.001c0-44.182-35.817-80-80-80z" fill="#A7BDCD" data-original="#a7bdcd" style=""></path></g><g><path d="m445.962 330.444c-1.529-76.478-49.067-144.774-119.962-172.866v-33.088c0-5.522-4.478-10-10-10h-50v-19.584c6.397 2.421 13.147 3.647 19.901 3.647 14.349 0 28.696-5.462 39.62-16.385 1.875-1.876 2.929-4.419 2.929-7.071s-1.054-5.196-2.929-7.071l-25.477-25.477 14.023-14.023c3.905-3.905 3.905-10.237 0-14.143-3.906-3.904-10.236-3.904-14.143 0l-14.023 14.023-25.477-25.477c-1.876-1.875-4.419-2.929-7.071-2.929s-5.196 1.054-7.071 2.929c-21.749 21.75-21.837 57.074-.281 78.943v32.618h-50c-5.522 0-10 4.478-10 10v33.088c-60.413 23.938-103.863 77.07-116.338 139.582-7.804-.429-14.903 2.277-20.111 7.96l-21.542 23.504c-8.718 9.511-8.653 23.391.169 36.222l6.181 8.989c-22.5 38.841-34.36 83.008-34.36 128.165 0 5.522 4.478 10 10 10h492c5.522 0 10-4.478 10-10 0-63.646-23.435-124.422-66.038-171.556zm-191.611-305.303 24.479 24.479 24.479 24.479c-13.691 7.548-31.288 5.524-42.886-6.073-11.595-11.596-13.619-29.194-6.072-42.885zm-48.351 109.349h100v20h-100zm-8.199 40h116.399c63.799 23.243 107.541 82.449 111.506 149.758h-79.706v-20.002h27.998c5.522 0 10-4.478 10-10s-4.478-10-10-10h-28.557c-4.991-44.937-43.196-80-89.441-80s-84.451 35.063-89.441 80h-28.557c-5.522 0-10 4.478-10 10s4.478 10 10 10h27.998l.001 20.002h-79.707c3.966-67.307 47.708-126.515 111.507-149.758zm-11.8 149.758-.001-30.002c0-35.202 26.124-64.406 60-69.274v99.276zm79.999-99.276c33.876 4.869 60 34.073 60 69.274v30.002h-60zm-245.789 267.028c1.691-40.143 13.547-79.127 34.542-113.315 2.069-3.369 1.959-7.642-.281-10.899l-9.813-14.271c-1.24-1.804-5.042-7.953-1.905-11.376l21.541-23.504c.661-.721 1.492-1.183 2.478-1.405-.506 5.622-.773 11.298-.773 17.018 0 5.522 4.478 10 10 10h355.487c25.62 28.473 43.664 62.317 53.046 98.751h-85.709c-5.522 0-10 4.478-10 10s4.478 10 10 10h89.942c1.591 9.547 2.615 19.228 3.025 29.001z" fill="#000000" data-original="#000000" style="" class=""></path><path d="m415.143 384.249c5.522 0 10-4.478 10-10s-4.478-10-10-10h-54.393c-16.427 0-30.759 1.273-39.793 16.923l-7.827 13.557c-3.697 6.403-6.264 7.777-25.068 7.777h-72.561c-20.79 0-32.009 15.659-32.009 30.393 0 14.958 10.995 30.101 32.009 30.101h93.322c5.522 0 10-4.478 10-10s-4.478-10-10-10h-93.322c-8.854 0-12.008-5.218-12.008-10.101 0-4.794 3.145-10.393 12.008-10.393h72.561c16.521 0 32.125 0 42.389-17.777l7.827-13.557c2.84-4.919 5.668-6.923 22.473-6.923z" fill="#000000" data-original="#000000" style="" class=""></path><path d="m137.877 361.151c-16.542 0-30 13.458-30 30s13.458 30 30 30 30-13.458 30-30-13.458-30-30-30zm0 40c-5.514 0-10-4.486-10-10s4.486-10 10-10 10 4.486 10 10-4.486 10-10 10z" fill="#000000" data-original="#000000" style="" class=""></path><path d="m100.405 448.323-.005-.005c-4.243-3.534-10.546-2.96-14.082 1.283-3.535 4.243-2.959 10.551 1.283 14.087 1.87 1.558 4.14 2.317 6.396 2.317 2.865 0 5.711-1.225 7.688-3.598 3.537-4.242 2.963-10.548-1.28-14.084z" fill="#000000" data-original="#000000" style="" class=""></path><path d="m353.827 442.999h-.008c-5.522 0-9.996 4.478-9.996 10s4.481 10 10.004 10 10-4.478 10-10-4.477-10-10-10z" fill="#000000" data-original="#000000" style="" class=""></path></g></g></g></svg>