<?xml version="1.0" encoding="utf-8"?>
<!-- Generator: Adobe Illustrator 16.0.0, SVG Export Plug-In . SVG Version: 6.00 Build 0)  -->
<!DOCTYPE svg PUBLIC "-//W3C//DTD SVG 1.1//EN" "http://www.w3.org/Graphics/SVG/1.1/DTD/svg11.dtd">
<svg version="1.1" id="Layer_1" xmlns:svgjs="http://svgjs.com/svgjs"
	 xmlns="http://www.w3.org/2000/svg" xmlns:xlink="http://www.w3.org/1999/xlink" x="0px" y="0px" width="512px" height="512px"
	 viewBox="0 0 512 512" enable-background="new 0 0 512 512" xml:space="preserve">
<g>
	<g>
		<g>
			<g>
				<path fill="#37A1DA" d="M503.741,355.097v148.645h-24.774l-90.838-132.129l66.064-57.807L503.741,355.097z"/>
			</g>
			<g>
				<path fill="#37A1DA" d="M130.065,487.226l2.064,16.516H33.032l8.258-66.064h82.581L130.065,487.226z"/>
			</g>
			<g>
				<path fill="#03476B" d="M74.323,156.903v136.011v0.165c0,2.808,0.578,5.533,1.651,8.093l11.645,27.169
					c-20.397-20.231-34.52-46.162-40.217-74.652l-3.221-16.104c-0.496-2.478-1.486-4.79-2.891-6.771V57.806
					c0-9.084,7.433-16.516,16.517-16.516H338.58c9.084,0,16.517,7.432,16.517,16.516v15.029v125.688
					c-6.359,0.825-12.388,3.799-17.012,8.423l-3.716,3.716c-5.038-3.221-8.589-4.211-12.305-4.211v-90.839
					c0-4.542-3.717-8.258-8.259-8.258H82.58c-4.542,0-8.258,3.716-8.258,8.258V156.903z"/>
			</g>
			<g>
				<path fill="#03476B" d="M130.478,437.677h183.329c4.541,0,8.258-3.716,8.258-8.258v-73.167l0.082-0.082
					c10.075,5.863,21.224,9.662,32.95,11.313V470.71c0,9.084-7.433,16.517-16.517,16.517H130.065l-6.193-49.549l0.908-2.313
					L130.478,437.677z"/>
			</g>
			<g>
				<path fill="#37A1DA" d="M313.807,437.677H74.323V115.613c0-4.559,3.699-8.258,8.258-8.258h231.227
					c4.558,0,8.258,3.699,8.258,8.258V429.42C322.065,433.978,318.365,437.677,313.807,437.677z"/>
			</g>
			<g>
				<path fill="#03476B" d="M289.032,346.839v49.549c0,4.542-3.717,8.258-8.259,8.258h-49.548c-4.542,0-8.258-3.716-8.258-8.258
					v-49.549c0-4.542,3.716-8.258,8.258-8.258h49.548C285.316,338.581,289.032,342.297,289.032,346.839z"/>
			</g>
			<g>
				<path fill="#03476B" d="M267.809,239.484l21.306,18.663c-2.973-1.404-6.358-2.147-9.744-2.147
					c-6.441,0-12.305,2.643-16.517,6.854c-4.211,4.212-6.854,10.075-6.854,16.516v0.744c0,5.78,2.064,11.313,5.863,15.524
					l8.836,9.91h-39.474c-4.542,0-8.258-3.716-8.258-8.258V256v-8.258c0-4.542,3.716-8.258,8.258-8.258h36.501H267.809z"/>
			</g>
			<g>
				<path fill="#03476B" d="M244.439,194.89c-2.726,2.808-4.542,6.441-4.955,11.562h-8.258c-4.542,0-8.258-3.717-8.258-8.259v-41.29
					v-8.258c0-4.542,3.716-8.258,8.258-8.258h49.548c4.542,0,8.259,3.716,8.259,8.258v49.548c0,3.964-2.643,7.103-6.359,8.094
					l-13.543-12.058c-3.138-2.725-7.185-4.294-11.313-4.294h-1.321C251.788,189.935,247.576,191.835,244.439,194.89L244.439,194.89z
					"/>
			</g>
			<g>
				<path fill="#FFFFFF" d="M334.369,210.663l3.716-3.716c4.624-4.624,10.653-7.598,17.012-8.423
					c1.403-0.248,2.725-0.331,4.129-0.331c7.928,0,15.525,3.139,21.141,8.754l10.818,10.818c25.27,25.27,45.501,55.081,59.54,87.948
					l3.469,8.093l-66.064,57.807l-32.124-4.047c-0.33,0-0.578-0.082-0.908-0.082c-11.727-1.651-22.875-5.45-32.95-11.313
					c-8.506-4.707-16.186-10.9-22.792-18.333l-28.655-32.289l-8.836-9.91c-3.799-4.211-5.863-9.744-5.863-15.525v-0.743
					c0-6.44,2.643-12.304,6.854-16.516c4.212-4.212,10.075-6.854,16.517-6.854c3.386,0,6.771,0.743,9.744,2.147l-21.306-18.663
					h-0.082l-22.462-19.654c-3.634-3.304-5.781-7.928-5.781-12.883c0-0.165,0-0.33,0-0.495c0.413-5.12,2.229-8.754,4.955-11.562
					c3.138-3.056,7.35-4.955,12.057-4.955h1.321c4.129,0,8.176,1.569,11.313,4.294l13.543,12.058l16.599,14.699l8.672-8.671
					c3.798-3.799,8.836-5.863,14.121-5.863C325.781,206.452,329.331,207.442,334.369,210.663L334.369,210.663z"/>
			</g>
			<g>
				<path fill="#FFFFFF" d="M87.618,328.341l-11.645-27.169c-1.073-2.56-1.651-5.285-1.651-8.093v-0.165
					c0-5.616,2.313-10.735,5.946-14.452c3.716-3.633,8.836-5.945,14.451-5.945c7.763,0,14.782,4.377,18.25,11.313l2.643,5.202
					l10.57,21.059c7.02,14.121,11.562,29.316,13.296,45.007c0.578,5.037,0.908,10.239,0.908,15.359
					c0,17.095-3.303,34.106-9.662,50.044l-5.945,14.864l-0.908,2.313H41.29C19.406,377.559,8.258,314.137,8.258,250.219v-9.084
					c0-5.037,1.982-9.579,5.285-12.883c3.304-3.303,7.845-5.285,12.883-5.285c6.11,0,11.644,3.056,14.864,7.846
					c1.404,1.981,2.395,4.294,2.891,6.771l3.221,16.103C53.099,282.178,67.221,308.108,87.618,328.341z"/>
			</g>
			<g>
				<path fill="#37A1DA" d="M439.163,8.259h-19.488c-35.675,0-64.578,28.902-64.578,64.577c0,10.736,2.725,21.224,7.68,30.39
					c4.872,9.249,12.14,17.343,21.059,23.288l20.81,13.874h8.258h33.032h8.259l20.81-13.874
					c17.921-11.974,28.738-32.124,28.738-53.678C503.741,37.161,474.838,8.259,439.163,8.259z"/>
			</g>
			<g>
				<path fill="#FFFFFF" d="M455.019,90.839h-14.038l-1.569-15.772c-0.083-0.496-0.083-1.074-0.083-1.569
					c0-8.589,6.938-15.69,15.69-15.69c8.671,0,15.69,7.02,15.69,15.69v1.651C470.709,83.819,463.69,90.839,455.019,90.839
					L455.019,90.839z"/>
			</g>
			<g>
				<path fill="#FFFFFF" d="M403.82,57.806c9.249,0,16.516,8.011,15.607,17.26l-1.569,15.772H403.82
					c-8.671,0-15.69-7.02-15.69-15.69v-1.651C388.129,64.826,395.149,57.806,403.82,57.806z"/>
			</g>
		</g>
		<g>
			<path fill="#FFFFFF" d="M165.161,66.064h66.064v16.517h-66.064V66.064z"/>
			<path fill="#FFFFFF" d="M99.097,148.645h33.032v16.516H99.097V148.645z"/>
			<path fill="#FFFFFF" d="M148.645,148.645h49.549v16.516h-49.549V148.645z"/>
			<path fill="#FFFFFF" d="M99.097,181.677h82.58v16.516h-82.58V181.677z"/>
			<path fill="#FFFFFF" d="M99.097,247.742h33.032v16.517H99.097V247.742z"/>
			<path fill="#FFFFFF" d="M148.645,247.742h49.549v16.517h-49.549V247.742z"/>
			<path fill="#03476B" d="M458.306,302.452c-14.543-33.949-35.163-64.413-61.283-90.525l-10.817-10.817
				c-6.219-6.219-14.237-9.844-22.858-10.777v-71.539c4.525,5.532,9.794,10.512,15.904,14.592l17.136,11.421v20.355
				c0,18.218,14.814,33.032,33.032,33.032c18.217,0,33.032-14.814,33.032-33.032v-20.355l17.127-11.421
				c20.299-13.527,32.421-36.179,32.421-60.581C511.999,32.661,479.339,0,439.197,0H419.65c-28.102,0-52.496,16.037-64.627,39.416
				c-4.386-3.923-10.108-6.384-16.442-6.384H57.807c-13.659,0-24.774,11.115-24.774,24.774v157.853
				c-2.139-0.562-4.336-0.949-6.623-0.949C11.85,214.71,0,226.56,0,241.119v9.06c0,64.421,11.082,127.769,32.858,188.358L23.676,512
				h117.81l-2.064-16.516H338.58c13.659,0,24.774-11.115,24.774-24.774v-93.869l20.075,2.511L474.623,512h37.376V351.224
				l-50.993-42.496L458.306,302.452z M385.346,223.603c24.625,24.617,44.064,53.339,57.781,85.355l1.106,2.585l-58.764,51.415
				l-28.466-3.56c-19.885-2.485-38.169-12.106-51.48-27.078l-37.459-42.141c-2.452-2.759-3.807-6.326-3.807-10.826
				c0-8.324,6.771-15.096,15.104-15.096c4.029,0,7.828,1.568,10.677,4.418l26.187,26.194l11.677-11.677l-26.194-26.195
				c-2.238-2.237-4.822-3.964-7.539-5.417l-43.438-38.004c-1.899-1.659-2.989-4.07-2.989-6.606c0-4.83,3.938-8.778,8.778-8.778
				h1.255c2.155,0,4.228,0.793,5.838,2.222l69.483,61.763l10.976-12.338l-32.802-29.159l2.536-2.552
				c4.401-4.418,12.098-4.418,16.516,0l18.936,18.936l11.677-11.677l-14.566-14.567c8.349-6.062,20.728-5.45,28.159,1.974
				L385.346,223.603z M146.234,396.387h51.96v-16.517h-49.994c0.206-3.146,0.445-6.284,0.445-9.455c0-2.354-0.091-4.707-0.206-7.061
				h49.755v-16.517h-51.555c-2.354-14.021-6.756-27.714-13.106-40.432l-4.558-9.116h52.702v-16.517h-60.961l-0.338-0.669
				c-4.881-9.777-14.708-15.848-25.642-15.848c-4.36,0-8.456,1.058-12.156,2.809V115.613h231.227v84.149
				c-4.328,1.255-8.398,3.402-11.678,6.689l-3.229,3.229l-3.749-3.336c1.362-2.411,2.139-5.194,2.139-8.151v-49.548
				c0-9.108-7.407-16.517-16.516-16.517h-49.549c-9.108,0-16.517,7.408-16.517,16.517v49.548c0,9.109,7.408,16.517,16.517,16.517
				h1.354c1.396,4.311,3.799,8.258,7.275,11.306l5.962,5.21h-14.592c-9.108,0-16.517,7.408-16.517,16.517v49.549
				c0,9.108,7.408,16.516,16.517,16.516h35.749l14.766,16.615c-0.322-0.017-0.636-0.099-0.967-0.099h-49.548
				c-9.108,0-16.517,7.407-16.517,16.516v49.549c0,9.108,7.408,16.516,16.517,16.516h49.548c9.109,0,16.517-7.407,16.517-16.516
				v-48.871c5.054,5.054,10.563,9.563,16.517,13.378v68.525H136.068l2.346-5.855C141.948,414.728,144.525,405.644,146.234,396.387
				L146.234,396.387z M232.886,198.193h-1.66v-49.548h49.548v44.924l-6.185-5.491c-4.642-4.13-10.612-6.4-16.813-6.4h-1.256
				C245.677,181.677,236.478,188.581,232.886,198.193z M252.878,297.291h-21.652v-49.549h33.462l2.733,2.387
				c-11.528,4.765-19.68,16.219-19.68,30.026C247.741,286.291,249.583,292.203,252.878,297.291z M280.782,396.387h-49.557v-49.549
				h49.549L280.782,396.387z M410.384,82.581h-6.564c-4.097,0-7.433-3.336-7.433-7.433v-1.651c0-4.096,3.336-7.433,7.433-7.433
				c2.122,0,4.087,0.867,5.508,2.444c1.429,1.578,2.098,3.617,1.883,5.724L410.384,82.581z M447.62,74.232
				c-0.215-2.114,0.454-4.146,1.883-5.724c1.429-1.577,3.386-2.444,5.516-2.444c4.097,0,7.433,3.337,7.433,7.433v1.651
				c0,4.097-3.336,7.433-7.433,7.433h-6.557L447.62,74.232z M429.419,181.677c-9.108,0-16.517-7.407-16.517-16.517v-16.516h33.032
				v16.516C445.935,174.27,438.528,181.677,429.419,181.677z M422.029,132.129l3.303-33.032h8.176l3.303,33.032H422.029z
				 M419.642,16.516h19.547c31.042,0,56.295,25.253,56.295,56.287c0,18.869-9.373,36.376-25.071,46.84l-17.111,11.412l-3.195-31.959
				h4.913c13.205,0,23.949-10.743,23.949-23.948v-1.651c0-13.213-10.744-23.948-23.949-23.948c-6.755,0-13.229,2.874-17.755,7.878
				c-4.525,5.005-6.738,11.734-6.069,18.448l0.661,6.706h-4.873l0.669-6.706c0.669-6.714-1.544-13.443-6.069-18.448
				c-4.533-5.004-11.008-7.878-17.763-7.878c-13.205,0-23.948,10.743-23.948,23.948v1.651c0,13.213,10.743,23.948,23.948,23.948
				h4.913l-3.196,31.959l-17.11-11.412c-15.698-10.455-25.071-27.962-25.071-46.84C363.355,41.769,388.608,16.516,419.642,16.516
				L419.642,16.516z M57.807,49.549H338.58c4.551,0,8.259,3.699,8.259,8.258v134.342c-5.137,1.768-9.869,4.551-13.907,8.398
				c-0.851-0.338-1.734-0.52-2.609-0.775v-84.158c0-9.108-7.407-16.517-16.516-16.517H82.58c-9.108,0-16.516,7.408-16.516,16.517
				V283.73c-4.732-10.017-8.324-20.611-10.529-31.652l-3.229-16.145c-0.529-2.643-1.52-5.096-2.759-7.375V57.806
				C49.548,53.248,53.256,49.549,57.807,49.549z M16.516,241.119c0-5.458,4.443-9.894,9.894-9.894c4.698,0,8.778,3.345,9.703,7.953
				l3.229,16.145c5.896,29.481,20.191,56.271,41.299,77.65l3.601,8.398c3.658,8.556,3.378,18.234-0.784,26.55l14.773,7.391
				c6.334-12.667,6.771-27.408,1.189-40.431L83.572,297.91c-0.66-1.536-0.991-3.155-0.991-4.979c0-6.706,5.459-12.156,12.156-12.156
				c4.633,0,8.795,2.576,10.867,6.714l13.155,26.311c8.745,17.49,13.37,37.063,13.37,56.617c0,16.178-3.047,31.991-9.06,47.013
				l-4.789,11.991H47.211c-20.307-57.724-30.695-117.983-30.695-179.241V241.119z M42.389,495.484l6.193-49.549h67.997l6.193,49.549
				H42.389z M338.58,478.968H137.357l-4.129-33.032h180.579c9.108,0,16.516-7.407,16.516-16.516v-60.053
				c5.326,2.139,10.852,3.84,16.517,5.029v96.313C346.839,475.268,343.131,478.968,338.58,478.968z M495.484,495.484h-12.173
				l-84.215-122.492l55.229-48.334l41.158,34.313V495.484z"/>
		</g>
	</g>
</g>
</svg>
