<?xml version="1.0" encoding="utf-8"?>
<!-- Generator: Adobe Illustrator 16.0.0, SVG Export Plug-In . SVG Version: 6.00 Build 0)  -->
<!DOCTYPE svg PUBLIC "-//W3C//DTD SVG 1.1//EN" "http://www.w3.org/Graphics/SVG/1.1/DTD/svg11.dtd">
<svg version="1.1" id="Layer_1" xmlns:svgjs="http://svgjs.com/svgjs"
	 xmlns="http://www.w3.org/2000/svg" xmlns:xlink="http://www.w3.org/1999/xlink" x="0px" y="0px" width="512px" height="512px"
	 viewBox="0 0 512 512" enable-background="new 0 0 512 512" xml:space="preserve">
<g>
	<path fill="#37A1DA" d="M500.434,121.195L391.805,12.566L213.18,214.14L11.574,392.793c-11.852,11.855,2.852,45.785,32.848,75.781
		c30,29.996,63.926,44.703,75.781,32.848L298.86,299.816L500.434,121.195z"/>
	<path opacity="0.2" fill="#03476B" d="M460.594,81.355L259.02,259.98L61.403,483.648c24.875,19.473,49.152,27.426,58.801,17.773
		L298.86,299.816l201.574-178.621L460.594,81.355z"/>
	<path fill="#FFFFFF" d="M467.582,45.418c-29.996-30-63.926-44.703-75.781-32.852c-11.855,11.855,2.852,45.785,32.852,75.781
		c29.996,29.996,63.922,44.703,75.777,32.848S497.578,75.414,467.582,45.418z"/>
	<path fill="#EFEFEF" d="M392.223,42.898c5.859,13.883,17.156,30.172,32.43,45.445c15.277,15.277,31.566,26.574,45.449,32.43
		c3.578-10.809-7.055-32.289-26.32-51.555S403.031,39.32,392.223,42.898z"/>
	<path fill="#FFFFFF" d="M211.535,190.515c6.563-0.359,12.668-3.469,16.813-8.566c7.504-9.227,20.754-11.324,30.742-4.871
		c5.52,3.566,12.289,4.641,18.641,2.953c11.492-3.051,23.445,3.039,27.73,14.129c2.367,6.133,7.215,10.977,13.344,13.344
		c11.094,4.289,17.184,16.238,14.129,27.734c-1.688,6.352-0.613,13.121,2.953,18.641c6.457,9.988,4.359,23.234-4.867,30.738
		c-5.098,4.148-8.211,10.254-8.566,16.816c-0.652,11.875-10.133,21.359-22.012,22.008c-6.559,0.359-12.668,3.469-16.813,8.566
		c-7.504,9.227-20.754,11.324-30.742,4.871c-5.52-3.566-12.285-4.641-18.637-2.953c-11.496,3.051-23.445-3.035-27.734-14.129
		c-2.367-6.133-7.215-10.977-13.344-13.344c-11.094-4.289-17.184-16.238-14.129-27.734c1.688-6.352,0.613-13.121-2.953-18.641
		c-6.457-9.988-4.359-23.234,4.867-30.738c5.098-4.148,8.211-10.254,8.57-16.816C190.176,200.648,199.66,191.164,211.535,190.515z"
		/>
	<path fill="#FFFFFF" d="M291.098,221.867c-19.391-19.395-50.832-19.395-70.227,0c-19.391,19.391-19.391,50.832,0,70.223
		c19.395,19.395,50.836,19.395,70.227,0C310.492,272.699,310.492,241.258,291.098,221.867z"/>
	<path fill="#03476B" d="M313.149,256.98c0-15.27-5.945-29.621-16.742-40.418c-22.285-22.285-58.547-22.285-80.832,0
		c-22.289,22.285-22.289,58.547,0,80.832c11.141,11.145,25.777,16.715,40.414,16.715c14.641,0,29.277-5.57,40.418-16.715
		C307.203,286.601,313.149,272.246,313.149,256.98z M226.18,286.785c-7.961-7.961-12.348-18.547-12.348-29.809
		c0-11.258,4.387-21.844,12.348-29.809c8.219-8.219,19.012-12.328,29.809-12.328s21.594,4.113,29.809,12.328
		c7.965,7.965,12.348,18.551,12.348,29.809c0,11.262-4.383,21.848-12.348,29.809C269.36,303.226,242.617,303.226,226.18,286.785z"/>
	<path fill="#03476B" d="M506.586,87.125c-6.57-15.16-18.539-31.855-33.699-47.016c-15.156-15.156-31.855-27.125-47.012-33.695
		c-17.027-7.383-30.813-7.199-38.934,0.453c-0.113,0.094-0.223,0.191-0.328,0.293c-0.035,0.035-0.078,0.066-0.113,0.102
		c-0.051,0.055-0.094,0.113-0.148,0.164c-0.051,0.059-0.109,0.109-0.16,0.168l-0.926,1.047c-0.063,0.074-0.133,0.141-0.195,0.219
		l-46.504,52.48c-2.746,3.098-2.461,7.84,0.641,10.586c1.426,1.266,3.203,1.887,4.969,1.887c2.074,0,4.137-0.852,5.617-2.523
		l31.934-36.039c0.832,3.32,2.016,6.82,3.551,10.473c0.012,0.031,0.02,0.063,0.035,0.094c0.02,0.051,0.043,0.098,0.063,0.148
		c0.098,0.227,0.18,0.445,0.277,0.672c0.277,0.637,0.574,1.277,0.867,1.918c0.039,0.078,0.07,0.156,0.109,0.234
		c0.402,0.875,0.828,1.754,1.266,2.637c0.055,0.105,0.105,0.211,0.156,0.316c0.422,0.844,0.863,1.695,1.316,2.543
		c0.082,0.152,0.156,0.301,0.238,0.453c0.43,0.797,0.875,1.602,1.332,2.402c0.117,0.207,0.227,0.41,0.348,0.617
		c0.426,0.742,0.867,1.484,1.316,2.23c0.16,0.266,0.316,0.535,0.48,0.805c0.414,0.68,0.844,1.359,1.273,2.039
		c0.215,0.336,0.422,0.672,0.637,1.008c0.398,0.613,0.809,1.23,1.219,1.844c0.266,0.402,0.527,0.805,0.801,1.203
		c0.379,0.555,0.766,1.109,1.152,1.66c0.324,0.461,0.641,0.922,0.969,1.383c0.355,0.5,0.727,1,1.094,1.5
		c0.371,0.512,0.738,1.02,1.121,1.531c0.348,0.461,0.703,0.922,1.055,1.379c0.418,0.547,0.828,1.094,1.254,1.637
		c0.344,0.438,0.695,0.875,1.047,1.309c0.449,0.566,0.891,1.129,1.352,1.691c0.359,0.438,0.73,0.875,1.094,1.313
		c0.461,0.555,0.918,1.109,1.391,1.664c0.41,0.48,0.836,0.961,1.254,1.441c0.438,0.504,0.871,1.008,1.316,1.512
		c0.52,0.586,1.051,1.164,1.582,1.75c0.355,0.395,0.707,0.789,1.07,1.18c0.781,0.848,1.578,1.688,2.383,2.527
		c0.121,0.125,0.234,0.254,0.355,0.379c0.938,0.977,1.887,1.945,2.852,2.906c0.961,0.965,1.93,1.91,2.902,2.848
		c0.152,0.145,0.305,0.285,0.457,0.43c0.813,0.777,1.629,1.551,2.449,2.309c0.402,0.371,0.805,0.73,1.207,1.094
		c0.574,0.523,1.148,1.051,1.727,1.563c0.508,0.449,1.02,0.887,1.531,1.332c0.473,0.414,0.945,0.832,1.422,1.238
		c0.551,0.465,1.102,0.918,1.648,1.375c0.445,0.371,0.887,0.746,1.332,1.109c0.551,0.449,1.102,0.883,1.652,1.324
		c0.449,0.359,0.898,0.723,1.348,1.078c0.531,0.414,1.063,0.816,1.594,1.223c0.473,0.363,0.949,0.73,1.422,1.086
		c0.496,0.371,0.992,0.727,1.484,1.09c0.52,0.375,1.035,0.758,1.551,1.129c0.441,0.316,0.883,0.617,1.324,0.926
		c0.574,0.402,1.148,0.805,1.719,1.195c0.379,0.258,0.758,0.504,1.141,0.758c0.637,0.426,1.273,0.852,1.91,1.262
		c0.313,0.203,0.625,0.395,0.938,0.594c0.703,0.445,1.406,0.891,2.109,1.316c0.25,0.152,0.496,0.297,0.746,0.445
		c0.766,0.461,1.531,0.918,2.293,1.355c0.184,0.105,0.371,0.207,0.555,0.313c0.824,0.465,1.648,0.926,2.469,1.367
		c0.125,0.066,0.254,0.133,0.383,0.199c0.871,0.469,1.742,0.918,2.609,1.352c0.086,0.043,0.172,0.086,0.254,0.125
		c0.906,0.453,1.805,0.883,2.703,1.297c0.059,0.027,0.117,0.055,0.172,0.082c0.656,0.301,1.313,0.605,1.961,0.887
		c0.238,0.102,0.469,0.188,0.703,0.289c0.039,0.016,0.078,0.035,0.117,0.051c0.023,0.012,0.051,0.016,0.074,0.027
		c3.656,1.539,7.16,2.727,10.488,3.563L342.821,250.84c-0.203-0.348-0.41-0.695-0.633-1.035c-2.414-3.734-3.145-8.34-2-12.641
		c4.039-15.219-3.988-30.977-18.676-36.652c-4.148-1.605-7.449-4.906-9.051-9.055c-5.676-14.688-21.434-22.711-36.656-18.676
		c-4.301,1.145-8.906,0.41-12.641-2c-0.328-0.215-0.664-0.414-0.996-0.609l64.371-72.645c2.75-3.102,2.461-7.84-0.637-10.59
		c-3.105-2.746-7.844-2.461-10.59,0.641l-69.352,78.262c-8.824,0.137-17.477,4.059-23.43,11.375
		c-2.805,3.449-6.961,5.57-11.402,5.813c-15.727,0.859-28.23,13.363-29.09,29.09c-0.242,4.441-2.359,8.598-5.813,11.402
		c-7.316,5.953-11.238,14.605-11.375,23.43L6.602,387.179c-0.113,0.102-0.223,0.203-0.328,0.313
		c-8.063,8.059-8.363,22.043-0.852,39.371c6.574,15.16,18.539,31.855,33.699,47.016c15.156,15.156,31.855,27.125,47.012,33.695
		c8.348,3.617,15.914,5.426,22.422,5.426c7.004,0,12.773-2.094,16.953-6.273c0.105-0.105,0.211-0.215,0.309-0.328l27.922-31.508
		c2.746-3.102,2.461-7.844-0.637-10.59c-3.105-2.75-7.844-2.461-10.59,0.637l-27.734,31.297
		c-5.902,5.434-33.098-1.012-65.051-32.965c-29.73-29.73-39.316-58.223-32.969-65.047L169.18,263.156
		c0.195,0.332,0.398,0.668,0.609,0.996c2.414,3.734,3.145,8.344,2.004,12.641c-4.043,15.223,3.984,30.98,18.676,36.656
		c4.148,1.602,7.445,4.902,9.051,9.051c5.676,14.688,21.434,22.719,36.652,18.676c4.301-1.141,8.906-0.41,12.645,2.004
		c0.344,0.219,0.695,0.414,1.043,0.621l-84.199,95.02c-2.75,3.102-2.465,7.84,0.637,10.586c1.43,1.266,3.203,1.891,4.973,1.891
		c2.07,0,4.133-0.855,5.617-2.527l77.469-87.418l15.859,51.484c1.125,3.66,4.156,6.43,7.906,7.227
		c0.727,0.152,1.461,0.227,2.188,0.227c3.02,0,5.941-1.297,7.969-3.625l20.102-23.063l27.039,8.098
		c3.742,1.117,7.777,0.09,10.531-2.688c2.75-2.773,3.746-6.816,2.594-10.551l-17.328-56.254l56.254,17.328
		c1.027,0.316,2.078,0.469,3.121,0.469c2.742,0,5.422-1.07,7.434-3.066c2.773-2.754,3.801-6.789,2.68-10.531l-8.094-27.039
		l23.066-20.098c2.887-2.52,4.188-6.41,3.395-10.16c-0.797-3.746-3.566-6.777-7.227-7.906l-51.484-15.859l145.047-128.535
		c0.063-0.055,0.117-0.113,0.176-0.172c0.051-0.047,0.105-0.09,0.152-0.137c0.035-0.035,0.066-0.074,0.102-0.113
		c0.102-0.105,0.203-0.219,0.297-0.328C513.785,117.933,513.965,104.152,506.586,87.125z M263.875,333.023
		c-0.059-0.008-0.117-0.012-0.176-0.016c-2.336-0.277-4.641-1.074-6.738-2.43c-5.023-3.246-10.859-4.93-16.746-4.93
		c-2.641,0-5.297,0.34-7.891,1.027c-7.813,2.074-15.898-2.047-18.813-9.586c-3.121-8.082-9.551-14.512-17.637-17.637
		c-7.535-2.91-11.656-11-9.582-18.809c2.223-8.379,0.801-17.359-3.902-24.637c-1.348-2.082-2.141-4.371-2.422-6.688
		c-0.008-0.074-0.016-0.148-0.023-0.223c-0.551-5.164,1.465-10.457,5.746-13.941c6.727-5.469,10.852-13.57,11.324-22.227
		c0.441-8.066,6.859-14.484,14.93-14.926c8.652-0.473,16.754-4.602,22.223-11.324c3.496-4.297,8.805-6.313,13.984-5.746
		c0.063,0.008,0.125,0.016,0.188,0.023c2.316,0.281,4.602,1.074,6.68,2.418c7.277,4.707,16.258,6.125,24.637,3.902
		c7.813-2.074,15.898,2.047,18.809,9.586c3.125,8.082,9.555,14.512,17.637,17.637c7.539,2.914,11.66,11,9.586,18.813
		c-2.227,8.375-0.805,17.355,3.902,24.637c1.355,2.094,2.152,4.402,2.426,6.738c0.008,0.059,0.012,0.117,0.02,0.176
		c0.547,5.164-1.465,10.453-5.75,13.934c-1.883,1.535-3.555,3.277-5.008,5.18c-0.168,0.199-0.332,0.41-0.48,0.633
		c-3.449,4.754-5.508,10.453-5.836,16.414c-0.168,3.086-1.215,5.93-2.895,8.293c-0.148,0.176-0.289,0.359-0.418,0.551
		c-0.809,1.035-1.742,1.969-2.781,2.773c-0.184,0.129-0.363,0.266-0.535,0.41c-2.363,1.68-5.207,2.73-8.297,2.898
		c-5.898,0.324-11.539,2.348-16.266,5.73c-0.238,0.16-0.469,0.328-0.684,0.512c-1.938,1.473-3.715,3.168-5.273,5.086
		C274.328,331.558,269.039,333.574,263.875,333.023z M282.203,400.801l-16.199-52.598l0.082-0.09
		c6.516-0.117,12.934-2.293,18.238-6.379l12.852,41.891L282.203,400.801z M331.762,384.941l-20.363-6.094l-14.469-47.176
		c1.262-0.402,2.574-0.668,3.922-0.738c4.746-0.262,9.195-1.59,13.125-3.738L331.762,384.941z M326.207,314.965
		c2.148-3.926,3.477-8.375,3.734-13.121c0.074-1.379,0.352-2.723,0.77-4.012l47.145,14.547l6.098,20.375L326.207,314.965z
		 M399.813,283.195l-17.172,14.965l-41.84-12.914c4.055-5.293,6.215-11.688,6.328-18.18l0.082-0.074L399.813,283.195z
		 M433.926,86.886c-0.066-0.059-0.129-0.117-0.191-0.18c-0.461-0.434-0.918-0.871-1.371-1.313c-0.801-0.773-1.602-1.547-2.406-2.355
		c-0.746-0.746-1.484-1.5-2.215-2.258c-0.324-0.336-0.648-0.676-0.973-1.016c-0.34-0.355-0.672-0.711-1.008-1.07
		c-8.352-8.914-15.539-18.363-20.848-27.367c8.527,2.996,20.629,10.262,33.563,23.195s20.199,25.031,23.191,33.559
		C452.543,102.699,442.949,95.386,433.926,86.886z M495.188,115.82l-0.398,0.352c-2.531,2.055-8.375,2.211-16.52-0.379
		c-0.18-15.777-13.855-36.547-29.188-51.879c-15.344-15.34-36.133-29.023-51.914-29.184c-2.465-7.656-2.629-13.801-0.313-16.555
		l0.328-0.371c1.285-1.23,3.438-1.836,6.227-1.836c4.297,0,10.09,1.43,16.496,4.207c13.469,5.84,28.52,16.688,42.375,30.543
		C494.344,82.777,500.719,110.047,495.188,115.82z"/>
</g>
</svg>
