<?xml version="1.0" encoding="utf-8"?>
<!-- Generator: Adobe Illustrator 16.0.0, SVG Export Plug-In . SVG Version: 6.00 Build 0)  -->
<!DOCTYPE svg PUBLIC "-//W3C//DTD SVG 1.1//EN" "http://www.w3.org/Graphics/SVG/1.1/DTD/svg11.dtd">
<svg version="1.1" id="Layer_1" xmlns:svgjs="http://svgjs.com/svgjs"
	 xmlns="http://www.w3.org/2000/svg" xmlns:xlink="http://www.w3.org/1999/xlink" x="0px" y="0px" width="512px" height="512px"
	 viewBox="0 0 512 512" enable-background="new 0 0 512 512" xml:space="preserve">
<g opacity="0.3">
	<g>
		<g>
			<g>
				<path fill="#37A1DA" d="M129.2,92.08l-13.761,8.24C103.36,107.6,96,120.56,96,134.64V144h-8c-8.721,0-16.32,4.561-20.48,11.521
					l-5.359-5.36C53.12,141.12,48,128.8,48,116s5.12-25.12,14.16-34.16l3.92-3.92C55.44,73.6,48,63.2,48,51.04v-6.08
					C48,28.96,60.96,16,76.96,16H195.36c25.601,0,48.801,10.4,65.521,27.12S288,83.04,288,108.64c0,7.52-0.96,15.04-2.8,22.399
					l-4.801,19.44c-4.239-4-10-6.48-16.399-6.48h-8v-8c0-13.279-10.721-24-24-24h-76.08c-7.76,0-14.72-3.12-19.76-8.16
					C132.96,100.64,130.48,96.64,129.2,92.08L129.2,92.08z"/>
			</g>
			<g>
				<path fill="#37A1DA" d="M368,192H264c6.64,0,12.64-2.72,16.96-7.04C285.28,180.64,288,174.64,288,168c0-2.8-0.48-5.52-1.44-8
					h0.08H360c4.399,0,8-3.6,8-8V80h-32l48-64l48,64h-32v80C400,177.68,385.68,192,368,192z"/>
			</g>
			<g>
				<path fill="#37A1DA" d="M360,256H211.2l-2.961-14.8c9.36-4.08,17.761-10,24.881-17.2H368c17.68,0,32,14.32,32,32v176h32l-48,64
					l-48-64h32V264C368,259.6,364.4,256,360,256z"/>
			</g>
			<g>
				<path fill="#37A1DA" d="M264,192h104h64v-32l64,48l-64,48v-32h-64H233.12c8.72-8.88,15.359-19.84,19.199-32H264z"/>
			</g>
			<g>
				<path fill="#37A1DA" d="M202.64,416L176,496l-26.641-80L160,352h32L202.64,416z"/>
			</g>
			<g>
				<path fill="#37A1DA" d="M199.6,320.881L192,352h-32l-7.601-31.119L176,304L199.6,320.881z"/>
			</g>
			<g>
				<path fill="#FFFFFF" d="M152.4,320.881L160,352l-10.641,64L136,376l-11.681-35.039L152.4,320.881z"/>
			</g>
			<g>
				<path fill="#FFFFFF" d="M227.68,340.961L216,376l-13.36,40L192,352l7.6-31.119L227.68,340.961z"/>
			</g>
			<g>
				<path fill="#37A1DA" d="M152.4,320.881l-28.08,20.08l-18.479-55.44L136,280l40,24L152.4,320.881z"/>
			</g>
			<g>
				<path fill="#37A1DA" d="M199.6,320.881L176,304l40-24l30.16,5.521l-18.48,55.44L199.6,320.881z"/>
			</g>
			<g>
				<path fill="#37A1DA" d="M64,496H16V360.801c0-16.08,5.439-31.601,15.52-44.16C42.16,303.36,57.2,294.32,74,291.28l6-1.12V360
					l31.52,9.04L96,400l80,96H64z"/>
			</g>
			<g>
				<path fill="#37A1DA" d="M288,496H176l80-96l-15.521-30.96L272,360v-69.84l6,1.12c16.8,3.04,31.84,12.08,42.479,25.36
					C330.56,329.2,336,344.72,336,360.801V432v64H288z"/>
			</g>
			<g>
				<path fill="#37A1DA" d="M149.36,416L176,496l-80-96l15.52-30.96L136,376L149.36,416z"/>
			</g>
			<g>
				<path fill="#37A1DA" d="M124.32,340.961L136,376l-24.48-6.96L80,360v-69.84l25.84-4.64L124.32,340.961z"/>
			</g>
			<g>
				<path fill="#37A1DA" d="M240.48,369.04L256,400l-80,96l26.64-80L216,376L240.48,369.04z"/>
			</g>
			<g>
				<path fill="#37A1DA" d="M272,290.16V360l-31.521,9.04L216,376l11.68-35.039l18.48-55.44L272,290.16z"/>
			</g>
			<g>
				<path fill="#FFFFFF" d="M211.2,256l4.8,24l-40,24l-40-24l7.76-38.8c9.84,4.4,20.8,6.8,32.24,6.8
					c11.439,0,22.399-2.399,32.24-6.8L211.2,256z"/>
			</g>
			<g>
				<path fill="#FFFFFF" d="M288,168c0,6.641-2.721,12.641-7.04,16.96c-4.32,4.32-10.32,7.04-16.96,7.04H252.32
					c2.4-7.6,3.681-15.6,3.681-24v-24h8c6.399,0,12.16,2.48,16.399,6.48c2.801,2.56,4.96,5.84,6.16,9.52
					C287.52,162.48,288,165.2,288,168z"/>
			</g>
			<g>
				<path fill="#FFFFFF" d="M256,144v24c0,8.4-1.28,16.4-3.681,24c-3.84,12.16-10.479,23.12-19.199,32
					c-7.12,7.2-15.521,13.12-24.88,17.2C198.4,245.6,187.44,248,176,248c-11.44,0-22.4-2.399-32.24-6.8
					c-9.12-4-17.36-9.68-24.32-16.64c-8.96-8.96-15.84-20.08-19.76-32.561c-2.4-7.6-3.68-15.6-3.68-24v-24v-9.359
					c0-14.08,7.359-27.04,19.439-34.32l13.761-8.24c1.279,4.561,3.76,8.561,6.96,11.76c5.04,5.04,12,8.16,19.76,8.16H232
					c13.279,0,24,10.721,24,24V144z"/>
			</g>
			<g>
				<path fill="#FFFFFF" d="M99.68,192H88c-6.641,0-12.641-2.72-16.96-7.04C66.72,180.64,64,174.64,64,168
					c0-4.56,1.279-8.88,3.52-12.479C71.68,148.56,79.28,144,88,144h8v24C96,176.4,97.28,184.4,99.68,192z"/>
			</g>
		</g>
		<g>
			<path fill="#03476B" d="M144,152c4.408,0,8,3.584,8,8h16c0-13.231-10.769-24-24-24c-13.232,0-24,10.769-24,24h16
				C136,155.584,139.592,152,144,152z"/>
			<path fill="#03476B" d="M208,152c4.408,0,8,3.584,8,8h16c0-13.231-10.769-24-24-24c-13.232,0-24,10.769-24,24h16
				C200,155.584,203.592,152,208,152z"/>
			<path fill="#03476B" d="M215.184,195.76l0.408-1.232l-15.184-5.048L200,190.704C196.552,201.048,186.904,208,176,208
				c-10.904,0-20.553-6.952-24-17.288l-0.408-1.231l-15.184,5.048l0.416,1.24C142.448,212.656,158.192,224,176,224
				C193.808,224,209.552,212.656,215.184,195.76L215.184,195.76z"/>
			<path fill="#03476B" d="M408,256c0-9.04-3.129-17.296-8.209-24H424v40l85.336-64L424,144v40h-24.209
				c5.08-6.704,8.209-14.96,8.209-24V88h40L384,2.664L320,88h40v64h-68.448c-0.728-1.248-1.528-2.432-2.416-3.567L292.992,133
				c2-7.983,3.008-16.184,3.008-24.399C296,53.136,250.872,8,195.4,8H76.944C56.576,8,40,24.568,40,44.944v6.112
				c0,11.456,5.352,21.584,13.567,28.367C44.816,89.616,40,102.424,40,116c0,15.032,5.855,29.168,16.487,39.8l1.496,1.496
				C56.776,160.656,56,164.224,56,168c0,17.648,14.352,32,32,32h6.111c7.696,19.616,22.168,35.824,40.601,45.664l-5.488,27.44
				L72.584,283.4c-18.672,3.399-35.488,13.432-47.353,28.248C14.12,325.536,8,342.992,8,360.784V504h336v-48l40,53.337L447.999,424
				h-40L408,256z M440,200v-24l42.663,32L440,240v-24H249.664c3.271-5,6.016-10.359,8.224-16H440z M264,168v-16
				c8.824,0,16,7.176,16,16s-7.176,16-16,16h-1.528C263.432,178.8,264,173.472,264,168z M360,168c8.824,0,16-7.176,16-16V72h-24
				l32-42.664L416,72h-24v88c0,13.232-10.769,24-24,24h-76.448c2.752-4.728,4.448-10.144,4.448-16H360z M88,184
				c-8.824,0-16-7.176-16-16s7.176-16,16-16v16c0,5.473,0.567,10.8,1.527,16H88z M88,134.648V136
				c-7.952,0-15.137,3.017-20.736,7.832C60.032,136.296,56,126.472,56,116c0-10.76,4.191-20.872,11.8-28.487l0.608-0.608
				C71.16,87.56,73.992,88,76.944,88h1.168c14.08,0,26.744-7.832,33.04-20.424l-14.312-7.16C93.272,67.56,86.096,72,78.112,72
				h-1.168C65.392,72,56,62.6,56,51.056v-6.112C56,33.4,65.392,24,76.944,24H195.4C242.048,24,280,61.952,280,108.6
				c0,6.903-0.849,13.808-2.528,20.52l-2.256,9.017C271.712,136.816,267.96,136,264,136c0-17.647-14.353-32-32-32h-76.104
				C144.928,104,136,95.072,136,84.104c0-8.576,5.472-16.16,13.6-18.864l4.928-1.64l-5.056-15.185l-4.928,1.648
				C129.864,54.944,120,68.624,120,84.104c0,1.368,0.08,2.712,0.224,4.04l-8.92,5.352C96.928,102.112,88,117.88,88,134.648z
				 M104,168v-33.352c0-11.176,5.952-21.688,15.536-27.44l6.168-3.704c6.399,9.92,17.544,16.496,30.191,16.496H232
				c8.824,0,16,7.176,16,16v32c0,39.704-32.305,72-72,72C136.304,240,104,207.704,104,168z M326.768,311.648
				c-11.864-14.824-28.68-24.849-47.352-28.24l-56.641-10.304L220.96,264H360v160.001h-16v-63.217
				C344,342.992,337.88,325.536,326.768,311.648z M246.504,398.896L197,458.304l25.256-75.769l14.056-4.016L246.504,398.896z
				 M88,296.856l12.432-2.265l23.185,69.545L88,353.969V296.856z M217.536,288.408l18.128,3.296l-12.137,36.408l-32.951-23.536
				L217.536,288.408z M166.776,360h18.448l9.224,55.353L176,470.696l-18.448-55.352L166.776,360z M205.264,382.912l-5.104-30.615
				l4.392-18.072l13.68,9.775L205.264,382.912z M190.52,324.2l-4.808,19.8h-19.424l-4.809-19.8L176,313.832L190.52,324.2z
				 M147.448,334.224l4.393,18.072l-5.104,30.615l-12.976-38.92L147.448,334.224z M115.688,378.52l14.057,4.016L155,458.304
				l-49.504-59.408L115.688,378.52z M228.384,364.136L251.56,294.6l12.44,2.264v57.104L228.384,364.136z M176,256
				c9.136,0,17.952-1.408,26.24-4l4.808,24.04L176,294.672l-31.048-18.632L149.76,252C158.048,254.592,166.864,256,176,256z
				 M134.464,288.408l26.96,16.176l-32.952,23.536l-12.136-36.416L134.464,288.408z M24,360.784
				c0-14.168,4.872-28.071,13.728-39.136C46.44,310.76,58.52,303.176,72,299.927v66.104l28.032,8.017l-13.528,27.056L158.92,488H72
				V384H56v104H24V360.784z M328,488h-32V384h-16v104h-86.92l72.416-86.896l-13.528-27.056L280,366.032v-66.096
				c13.479,3.239,25.56,10.824,34.271,21.712c8.856,11.064,13.729,24.96,13.729,39.136V488z M416,440l-32,42.664L352,440h24V264
				c0-8.824-7.176-16-16-16H217.76l-0.464-2.336c6.92-3.696,13.256-8.328,18.92-13.664H368c13.231,0,24,10.769,24,24v184H416z"/>
		</g>
	</g>
</g>
</svg>
