<svg xmlns="http://www.w3.org/2000/svg" version="1.1" xmlns:xlink="http://www.w3.org/1999/xlink" xmlns:svgjs="http://svgjs.com/svgjs" width="512" height="512" x="0" y="0" viewBox="0 0 64 64" style="enable-background:new 0 0 512 512" xml:space="preserve" class=""><g><g xmlns="http://www.w3.org/2000/svg"><g><g><path d="m16.15 11.51-1.72 1.03c-1.51.91-2.43 2.53-2.43 4.29v1.17h-1c-1.09 0-2.04.57-2.56 1.44l-.67-.67c-1.13-1.13-1.77-2.67-1.77-4.27s.64-3.14 1.77-4.27l.49-.49c-1.33-.54-2.26-1.84-2.26-3.36v-.76c0-2 1.62-3.62 3.62-3.62h14.8c3.2 0 6.1 1.3 8.19 3.39s3.39 4.99 3.39 8.19c0 .94-.12 1.88-.35 2.8l-.6 2.43c-.53-.5-1.25-.81-2.05-.81h-1v-1c0-1.66-1.34-3-3-3h-9.51c-.97 0-1.84-.39-2.47-1.02-.4-.4-.71-.9-.87-1.47z" fill="#37A1DA" data-original="#656d78" style="" class=""></path></g><g><path d="m46 24h-13c.83 0 1.58-.34 2.12-.88s.88-1.29.88-2.12c0-.35-.06-.69-.18-1h.01 9.17c.55 0 1-.45 1-1v-9h-4l6-8 6 8h-4v10c0 2.21-1.79 4-4 4z" fill="#37A1DA" data-original="#b4dd7f" style="" class=""></path></g><g><path d="m45 32h-18.6l-.37-1.85c1.17-.51 2.22-1.25 3.11-2.15h16.86c2.21 0 4 1.79 4 4v22h4l-6 8-6-8h4v-21c0-.55-.45-1-1-1z" fill="#37A1DA" data-original="#b4dd7f" style="" class=""></path></g><g><path d="m33 24h13 8v-4l8 6-8 6v-4h-8-16.86c1.09-1.11 1.92-2.48 2.4-4z" fill="#37A1DA" data-original="#b4dd7f" style="" class=""></path></g><g><path d="m25.33 52-3.33 10-3.33-10 1.33-8h4z" fill="#37A1DA" data-original="#ff826e" style="" class=""></path></g><g><path d="m24.95 40.11-.95 3.89h-4l-.95-3.89 2.95-2.11z" fill="#37A1DA" data-original="#fc6e51" style="" class=""></path></g><g><path d="m19.05 40.11.95 3.89-1.33 8-1.67-5-1.46-4.38z" fill="#FFFFFF" data-original="#ccd1d9" style="" class=""></path></g><g><path d="m28.46 42.62-1.46 4.38-1.67 5-1.33-8 .95-3.89z" fill="#FFFFFF" data-original="#ccd1d9" style="" class=""></path></g><g><path d="m19.05 40.11-3.51 2.51-2.31-6.93 3.77-.69 5 3z" fill="#37A1DA" data-original="#b4dd7f" style="" class=""></path></g><g><path d="m24.95 40.11-2.95-2.11 5-3 3.77.69-2.31 6.93z" fill="#37A1DA" data-original="#b4dd7f" style="" class=""></path></g><g><path d="m8 62h-6v-16.9c0-2.01.68-3.95 1.94-5.52 1.33-1.66 3.21-2.79 5.31-3.17l.75-.14v8.73l3.94 1.13-1.94 3.87 10 12z" fill="#37A1DA" data-original="#fcd770" style="" class=""></path></g><g><path d="m36 62h-14l10-12-1.94-3.87 3.94-1.13v-8.73l.75.14c2.1.38 3.98 1.51 5.31 3.17 1.26 1.57 1.94 3.51 1.94 5.52v8.9 8z" fill="#37A1DA" data-original="#fcd770" style="" class=""></path></g><g><path d="m18.67 52 3.33 10-10-12 1.94-3.87 3.06.87z" fill="#37A1DA" data-original="#ffc729" style="" class=""></path></g><g><path d="m15.54 42.62 1.46 4.38-3.06-.87-3.94-1.13v-8.73l3.23-.58z" fill="#37A1DA" data-original="#ffc729" style="" class=""></path></g><g><path d="m30.06 46.13 1.94 3.87-10 12 3.33-10 1.67-5z" fill="#37A1DA" data-original="#ffc729" style="" class=""></path></g><g><path d="m34 36.27v8.73l-3.94 1.13-3.06.87 1.46-4.38 2.31-6.93z" fill="#37A1DA" data-original="#ffc729" style="" class=""></path></g><g><path d="m26.4 32 .6 3-5 3-5-3 .97-4.85c1.23.55 2.6.85 4.03.85s2.8-.3 4.03-.85z" fill="#FFFFFF" data-original="#f0d0b4" style="" class=""></path></g><g><path d="m36 21c0 .83-.34 1.58-.88 2.12s-1.29.88-2.12.88h-1.46c.3-.95.46-1.95.46-3v-3h1c.8 0 1.52.31 2.05.81.35.32.62.73.77 1.19.12.31.18.65.18 1z" fill="#FFFFFF" data-original="#f0d0b4" style="" class=""></path></g><g><path d="m32 18v3c0 1.05-.16 2.05-.46 3-.48 1.52-1.31 2.89-2.4 4-.89.9-1.94 1.64-3.11 2.15-1.23.55-2.6.85-4.03.85s-2.8-.3-4.03-.85c-1.14-.5-2.17-1.21-3.04-2.08-1.12-1.12-1.98-2.51-2.47-4.07-.3-.95-.46-1.95-.46-3v-3-1.17c0-1.76.92-3.38 2.43-4.29l1.72-1.03c.16.57.47 1.07.87 1.47.63.63 1.5 1.02 2.47 1.02h9.51c1.66 0 3 1.34 3 3z" fill="#FFFFFF" data-original="#f0d0b4" style="" class=""></path></g><g><path d="m12.46 24h-1.46c-.83 0-1.58-.34-2.12-.88s-.88-1.29-.88-2.12c0-.57.16-1.11.44-1.56.52-.87 1.47-1.44 2.56-1.44h1v3c0 1.05.16 2.05.46 3z" fill="#FFFFFF" data-original="#f0d0b4" style="" class=""></path></g></g><g><path d="m18 19c.551 0 1 .448 1 1h2c0-1.654-1.346-3-3-3s-3 1.346-3 3h2c0-.552.449-1 1-1z" fill="#03476B" data-original="#000000" style="" class=""></path><path d="m26 19c.551 0 1 .448 1 1h2c0-1.654-1.346-3-3-3s-3 1.346-3 3h2c0-.552.449-1 1-1z" fill="#03476B" data-original="#000000" style="" class=""></path><path d="m26.898 24.47.051-.154-1.898-.631-.051.153c-.431 1.293-1.637 2.162-3 2.162s-2.569-.869-3-2.161l-.051-.154-1.898.631.052.155c.703 2.111 2.671 3.529 4.897 3.529s4.194-1.418 4.898-3.53z" fill="#03476B" data-original="#000000" style="" class=""></path><path d="m51 32c0-1.13-.391-2.162-1.026-3h3.026v5l10.667-8-10.667-8v5h-3.026c.635-.838 1.026-1.87 1.026-3v-9h5l-8-10.667-8 10.667h5v8h-8.556c-.091-.156-.191-.304-.302-.446l.482-1.929c.25-.998.376-2.023.376-3.05 0-6.933-5.641-12.575-12.575-12.575h-14.807c-2.546 0-4.618 2.071-4.618 4.618v.764c0 1.432.669 2.698 1.696 3.546-1.094 1.274-1.696 2.875-1.696 4.572 0 1.879.732 3.646 2.061 4.975l.187.187c-.151.42-.248.866-.248 1.338 0 2.206 1.794 4 4 4h.764c.962 2.452 2.771 4.478 5.075 5.708l-.686 3.43-7.08 1.287c-2.334.425-4.436 1.679-5.919 3.531-1.389 1.736-2.154 3.918-2.154 6.142v17.902h42v-6l5 6.667 8-10.667h-5zm4-7v-3l5.333 4-5.333 4v-3h-23.792c.409-.625.752-1.295 1.028-2zm-22-4v-2c1.103 0 2 .897 2 2s-.897 2-2 2h-.191c.12-.65.191-1.316.191-2zm12 0c1.103 0 2-.897 2-2v-10h-3l4-5.333 4 5.333h-3v11c0 1.654-1.346 3-3 3h-9.556c.344-.591.556-1.268.556-2zm-34 2c-1.103 0-2-.897-2-2s.897-2 2-2v2c0 .684.071 1.35.191 2zm0-6.169v.169c-.994 0-1.892.377-2.592.979-.904-.942-1.408-2.17-1.408-3.479 0-1.345.524-2.609 1.475-3.561l.076-.076c.344.082.698.137 1.067.137h.146c1.76 0 3.343-.979 4.13-2.553l-1.789-.895c-.446.893-1.343 1.448-2.341 1.448h-.146c-1.444 0-2.618-1.175-2.618-2.618v-.764c0-1.443 1.174-2.618 2.618-2.618h14.807c5.831 0 10.575 4.744 10.575 10.575 0 .863-.106 1.726-.316 2.565l-.282 1.127c-.438-.165-.907-.267-1.402-.267 0-2.206-1.794-4-4-4h-9.513c-1.371 0-2.487-1.116-2.487-2.487 0-1.072.684-2.02 1.7-2.358l.616-.205-.632-1.898-.616.206c-1.835.61-3.068 2.32-3.068 4.255 0 .171.01.339.028.505l-1.115.669c-1.797 1.077-2.913 3.048-2.913 5.144zm2 4.169v-4.169c0-1.397.744-2.711 1.942-3.43l.771-.463c.8 1.24 2.193 2.062 3.774 2.062h9.513c1.103 0 2 .897 2 2v4c0 4.963-4.038 9-9 9s-9-4.037-9-9zm27.846 17.956c-1.483-1.853-3.585-3.106-5.919-3.53l-7.08-1.288-.227-1.138h17.38v20h-2v-7.902c0-2.224-.765-4.406-2.154-6.142zm-10.033 10.906-6.188 7.426 3.157-9.471 1.757-.502zm-19.813-12.755 1.554-.283 2.898 8.693-4.452-1.271zm16.192-1.056 2.266.412-1.517 4.551-4.119-2.942zm-6.345 8.949h2.306l1.153 6.919-2.306 6.918-2.306-6.919zm4.811 2.864-.638-3.827.549-2.259 1.71 1.222zm-1.843-7.339-.601 2.475h-2.428l-.601-2.475 1.815-1.296zm-5.384 1.253.549 2.259-.638 3.827-1.622-4.865zm-3.97 5.537 1.757.502 3.157 9.471-6.188-7.426zm14.087-1.798 2.897-8.692 1.555.283v7.138zm-6.548-13.517c1.142 0 2.244-.176 3.28-.5l.601 3.005-3.881 2.329-3.881-2.329.601-3.005c1.036.324 2.138.5 3.28.5zm-5.192 4.051 3.37 2.022-4.119 2.942-1.517-4.552zm-13.808 9.047c0-1.771.609-3.509 1.716-4.892 1.089-1.361 2.599-2.309 4.284-2.715v8.263l3.504 1.002-1.691 3.382 9.052 10.862h-10.865v-13h-2v13h-4zm38 15.902h-4v-13h-2v13h-10.865l9.052-10.862-1.691-3.382 3.504-1.002v-8.262c1.685.405 3.195 1.353 4.284 2.714 1.107 1.383 1.716 3.12 1.716 4.892zm11-6-4 5.333-4-5.333h3v-22c0-1.103-.897-2-2-2h-17.78l-.058-.292c.865-.462 1.657-1.041 2.365-1.708h16.473c1.654 0 3 1.346 3 3v23z" fill="#03476B" data-original="#000000" style="" class=""></path></g></g></g></svg>