<?xml version="1.0" encoding="utf-8"?>
<!-- Generator: Adobe Illustrator 16.0.0, SVG Export Plug-In . SVG Version: 6.00 Build 0)  -->
<!DOCTYPE svg PUBLIC "-//W3C//DTD SVG 1.1//EN" "http://www.w3.org/Graphics/SVG/1.1/DTD/svg11.dtd">
<svg version="1.1" id="Layer_1" xmlns:svgjs="http://svgjs.com/svgjs"
	 xmlns="http://www.w3.org/2000/svg" xmlns:xlink="http://www.w3.org/1999/xlink" x="0px" y="0px" width="512px" height="512px"
	 viewBox="0 0 512 512" enable-background="new 0 0 512 512" xml:space="preserve">
<g opacity="0.3">
	<g>
		<g>
			<g id="filled_outline_33_">
				<path fill="#37A1DA" d="M171.668,162.129v136.534c33.008,0,64.888,11.98,89.729,33.716l29.738,26.019l29.739-26.019
					c24.841-21.734,56.721-33.716,89.728-33.716V162.129H171.668z"/>
				<circle fill="#37A1DA" cx="329.535" cy="413.863" r="29.867"/>
				<circle fill="#37A1DA" cx="414.867" cy="473.595" r="29.867"/>
				<path fill="#37A1DA" d="M43.669,196.262L43.669,196.262C40.75,178.76,27.037,165.048,9.535,162.13l0,0
					c17.502-2.918,31.215-16.631,34.134-34.133l0,0c2.918,17.502,16.631,31.215,34.133,34.133l0,0
					C60.3,165.048,46.587,178.76,43.669,196.262z"/>
				<polygon fill="#37A1DA" points="291.135,8.529 77.802,111.432 291.135,230.396 504.469,110.929 				"/>
				<path fill="#126099" d="M478.868,221.862h-17.066v-86.188l-165.691-17.374l1.783-16.973l173.295,18.177
					c4.377,0.443,7.705,4.14,7.68,8.533V221.862L478.868,221.862z"/>
				<polygon fill="#37A1DA" points="461.802,221.862 444.736,298.663 495.935,298.663 478.868,221.862 				"/>
				<circle fill="#37A1DA" cx="423.402" cy="379.729" r="29.867"/>
				<path fill="#37A1DA" d="M277.303,472.564l-20.301-20.302v-76.8c-0.009-48.932-32.068-92.075-78.917-106.198l27.717-53.29
					l-8.533-5.479c-10.641-6.768-24.021-7.569-35.396-2.116c-9.984,4.771-21.589,4.771-31.573,0
					c-11.384-5.462-24.78-4.658-35.431,2.116l-8.533,5.479l27.717,53.29c-46.849,14.123-78.908,57.268-78.917,106.198v76.8
					l-20.301,20.302c-7.066,7.065-7.075,18.525,0,25.6c3.396,3.389,7.995,5.3,12.8,5.3h236.868c9.992,0,18.1-8.099,18.1-18.1
					C282.611,480.559,280.699,475.961,277.303,472.564z"/>
				<path fill="#FFFFFF" d="M154.603,375.465h-17.066c-4.71,0-8.533-3.823-8.533-8.533c0-4.711,3.823-8.533,8.533-8.533h34.133
					V341.33h-17.066v-17.066h-17.066v17.066c-14.141,0-25.601,11.461-25.601,25.602c0,14.14,11.46,25.6,25.601,25.6h17.066
					c4.71,0,8.533,3.823,8.533,8.533s-3.823,8.533-8.533,8.533h-34.134v17.066h17.067v17.066h17.066v-17.066
					c14.141,0,25.601-11.461,25.601-25.601C180.202,386.924,168.742,375.465,154.603,375.465z"/>
				<circle fill="#DADDDF" cx="291.135" cy="110.929" r="17.067"/>
				<path fill="#03476B" d="M329.535,375.465c-21.205,0-38.4,17.193-38.4,38.398c0,21.206,17.195,38.4,38.4,38.4
					c21.206,0,38.399-17.194,38.399-38.4C367.91,392.658,350.733,375.48,329.535,375.465z M329.535,435.196
					c-11.776,0-21.333-9.558-21.333-21.333s9.558-21.333,21.333-21.333c11.774,0,21.333,9.549,21.333,21.333
					C350.868,425.648,341.321,435.196,329.535,435.196z"/>
				<path fill="#03476B" d="M414.867,435.196c-21.204,0-38.398,17.195-38.398,38.4c0,21.206,17.194,38.399,38.398,38.399
					c21.206,0,38.4-17.193,38.4-38.399C453.241,452.391,436.066,435.215,414.867,435.196z M414.867,494.929
					c-11.775,0-21.332-9.559-21.332-21.333c0-11.775,9.558-21.333,21.332-21.333c11.776,0,21.333,9.549,21.333,21.333
					S426.654,494.929,414.867,494.929z"/>
				<path fill="#03476B" d="M8.136,170.543c13.909,2.321,24.798,13.219,27.119,27.128c0.785,4.65,5.188,7.773,9.839,6.988
					c3.584-0.604,6.383-3.413,6.988-6.988c2.32-13.909,13.21-24.807,27.12-27.128c4.649-0.785,7.772-5.188,6.987-9.839
					c-0.604-3.584-3.414-6.384-6.987-6.989c-13.91-2.319-24.8-13.218-27.12-27.127c-0.785-4.65-5.188-7.773-9.839-6.988
					c-3.584,0.604-6.384,3.414-6.988,6.988c-2.321,13.909-13.21,24.808-27.119,27.127c-4.651,0.785-7.774,5.188-6.989,9.841
					C1.753,167.13,4.561,169.937,8.136,170.543z M43.669,149.943c3.328,4.736,7.449,8.856,12.185,12.186
					c-4.735,3.328-8.855,7.45-12.185,12.187c-3.328-4.736-7.45-8.857-12.187-12.187C36.219,158.801,40.341,154.679,43.669,149.943z"
					/>
				<path fill="#03476B" d="M508.163,103.249L294.83,0.849c-2.338-1.127-5.069-1.127-7.407,0L74.09,103.753
					c-4.241,2.048-6.024,7.15-3.978,11.393c0.761,1.579,1.997,2.885,3.533,3.746L286.98,237.863c2.586,1.441,5.734,1.441,8.32,0
					l106.769-59.811v112.323c-32.085,1.896-62.635,14.413-86.817,35.595l-24.115,21.086l-4.13-3.609l-11.238,12.8l9.754,8.532
					c3.218,2.809,8.013,2.809,11.229,0l29.738-26.01c23.286-20.369,53.18-31.59,84.112-31.573c4.71,0,8.533-3.823,8.533-8.533
					V168.495l42.666-23.894v68.728c-4.002,0-7.467,2.773-8.337,6.683l-17.067,76.801c-1.023,4.599,1.877,9.154,6.477,10.18
					c0.614,0.138,1.237,0.205,1.86,0.205h51.2c4.71,0,8.533-3.814,8.541-8.525c0-0.623-0.067-1.246-0.205-1.858l-17.066-76.801
					c-0.869-3.908-4.335-6.689-8.338-6.683v-78.285l29.766-16.665c4.112-2.305,5.581-7.501,3.276-11.613
					c-0.854-1.536-2.168-2.766-3.747-3.525v0.01h0.003V103.249z M485.294,290.13h-29.917l13.252-59.732h3.414L485.294,290.13z
					 M471.522,119.599c-0.103,0-0.188-0.076-0.299-0.095l-155.835-16.4c-4.37-13.397-18.773-20.71-32.171-16.342
					c-13.397,4.369-20.71,18.772-16.342,32.171c4.369,13.396,18.772,20.71,32.171,16.342c7.288-2.381,13.116-7.901,15.881-15.054
					l130.884,13.748l-154.676,86.646L96.311,111.978L291.135,18l194.815,93.508L471.522,119.599z M299.669,110.929
					c0,4.71-3.822,8.532-8.533,8.532c-4.71,0-8.533-3.822-8.533-8.532s3.823-8.533,8.533-8.533
					C295.847,102.396,299.669,106.21,299.669,110.929z"/>
				<path fill="#03476B" d="M423.402,341.33c-21.205,0-38.398,17.194-38.398,38.4c0,21.205,17.193,38.4,38.398,38.4
					c21.206,0,38.4-17.195,38.4-38.4C461.777,358.524,444.599,341.346,423.402,341.33z M423.402,401.063
					c-11.775,0-21.333-9.558-21.333-21.333c0-11.776,9.559-21.333,21.333-21.333c11.776,0,21.333,9.548,21.333,21.333
					C444.735,391.514,435.187,401.063,423.402,401.063z"/>
				<path fill="#03476B" d="M265.536,448.729v-73.267c-0.077-48.914-29.928-92.853-75.376-110.936l23.211-44.62
					c2.021-3.908,0.733-8.713-2.961-11.094l-8.533-5.47c-13.142-8.338-29.653-9.326-43.699-2.629c-7.654,3.636-16.546,3.636-24.2,0
					c-14.045-6.716-30.558-5.726-43.699,2.629l-8.532,5.47c-3.694,2.381-4.983,7.186-2.961,11.094l23.192,44.62
					C56.53,282.611,26.68,326.55,26.603,375.464v73.267L8.802,466.531c-10.402,10.402-10.402,27.265,0,37.666
					c4.991,4.991,11.767,7.799,18.833,7.799h236.868c14.711,0,26.632-11.921,26.632-26.632c0-7.065-2.807-13.842-7.799-18.833
					L265.536,448.729z M97.506,218.952l1.979-1.271c8.149-5.162,18.38-5.77,27.085-1.612c12.34,5.871,26.658,5.871,38.997,0
					c8.704-4.156,18.937-3.55,27.085,1.612l1.979,1.271l-21.001,40.38c-18.107-4.444-37.019-4.444-55.125,0L97.506,218.952z
					 M264.503,494.929H27.635c-5.282,0-9.566-4.283-9.566-9.565c0-2.543,1.008-4.976,2.809-6.774l20.301-20.303
					c1.596-1.595,2.492-3.763,2.492-6.023v-76.8c0-56.552,45.85-102.4,102.398-102.4c56.55,0,102.4,45.851,102.4,102.401v76.8
					c0,2.262,0.896,4.438,2.5,6.033l20.301,20.301c3.738,3.738,3.738,9.788,0.009,13.526
					C269.478,493.924,267.046,494.929,264.503,494.929z"/>
				<path fill="#03476B" d="M154.603,375.465h-17.066c-4.71,0-8.533-3.823-8.533-8.533c0-4.711,3.823-8.533,8.533-8.533h34.133
					V341.33h-17.066v-17.066h-17.066v17.066c-14.141,0-25.601,11.461-25.601,25.602c0,14.14,11.46,25.6,25.601,25.6h17.066
					c4.71,0,8.533,3.823,8.533,8.533s-3.823,8.533-8.533,8.533h-34.134v17.066h17.067v17.066h17.066v-17.066
					c14.141,0,25.601-11.461,25.601-25.601C180.202,386.924,168.742,375.465,154.603,375.465z"/>
			</g>
		</g>
	</g>
</g>
</svg>
