<?xml version="1.0" encoding="utf-8"?>
<!-- Generator: Adobe Illustrator 16.0.0, SVG Export Plug-In . SVG Version: 6.00 Build 0)  -->
<!DOCTYPE svg PUBLIC "-//W3C//DTD SVG 1.1//EN" "http://www.w3.org/Graphics/SVG/1.1/DTD/svg11.dtd">
<svg version="1.1" id="Layer_1" xmlns:svgjs="http://svgjs.com/svgjs"
	 xmlns="http://www.w3.org/2000/svg" xmlns:xlink="http://www.w3.org/1999/xlink" x="0px" y="0px" width="512px" height="512px"
	 viewBox="0 0 512 512" enable-background="new 0 0 512 512" xml:space="preserve">
<g>
	<path fill="#37A1DA" d="M16.723,96.636h386.263v107.467H16.723V96.636z"/>
</g>
<path fill="#37A1DA" d="M359.916,96.636h43.069v107.467h-43.069V96.636z"/>
<path fill="#FFF5F5" d="M238.221,96.636h122.198v107.467H238.221V96.636z"/>
<g>
	<g>
		<g>
			<path fill="#F0F5FA" d="M482.952,504.488H99.663c-31.348,0-56.76-25.412-56.76-56.759c0-31.348,25.412-56.76,56.76-56.76h383.289
				V504.488z"/>
			<path fill="#E4ECF2" d="M442.887,390.97h40.065v113.518h-40.065V390.97z"/>
			<g>
				<path fill="#03476B" d="M502.985,512H99.663c-35.438,0-64.271-28.831-64.271-64.271c0-35.44,28.831-64.271,64.271-64.271
					h403.321c4.149,0,7.513,3.363,7.513,7.512s-3.363,7.513-7.513,7.513H99.663c-27.154,0-49.247,22.092-49.247,49.247
					c0,27.153,22.092,49.247,49.247,49.247h403.321c4.149,0,7.513,3.363,7.513,7.512S507.134,512,502.985,512z"/>
			</g>
			<g>
				<g>
					<path fill="#03476B" d="M482.951,436.322H173.54c-4.149,0-7.513-3.363-7.513-7.512c0-4.149,3.363-7.513,7.513-7.513h309.411
						V436.322z"/>
				</g>
				<g>
					<path fill="#03476B" d="M482.951,474.162H255.694c-4.148,0-7.513-3.363-7.513-7.513c0-4.148,3.364-7.512,7.513-7.512h227.258
						V474.162z"/>
				</g>
			</g>
		</g>
		<g>
			<path fill="#F0F5FA" d="M418.708,375.988H45.749c-20.287,0-36.733-16.445-36.733-36.733c0-20.287,16.445-36.734,36.733-36.734
				h372.96L418.708,375.988L418.708,375.988z"/>
			<path fill="#E4ECF2" d="M378.643,302.52h40.065v73.468h-40.065V302.52z"/>
			<g>
				<path fill="#37A1DA" d="M441.69,383.501H45.749c-24.396,0-44.246-19.849-44.246-44.246s19.849-44.246,44.246-44.246h395.94
					c4.148,0,7.512,3.363,7.512,7.512c0,4.149-3.363,7.513-7.512,7.513H45.749c-16.112,0-29.222,13.108-29.222,29.222
					s13.108,29.222,29.222,29.222h395.94c4.148,0,7.512,3.363,7.512,7.512C449.201,380.137,445.838,383.501,441.69,383.501z"/>
			</g>
			<g>
				<g>
					<path fill="#03476B" d="M418.708,348.327H313.222c-4.148,0-7.512-3.363-7.512-7.512s3.363-7.513,7.512-7.513h105.486V348.327z"
						/>
				</g>
			</g>
		</g>
		<g>
			<path fill="#F0F5FA" d="M133.263,7.512h299.355c22.537,0,40.806,18.27,40.806,40.805c0,22.537-18.27,40.806-40.806,40.806
				H133.263V7.512z"/>
			<path fill="#37A1DA" d="M432.618,7.512h-40.064c22.536,0,40.805,18.27,40.805,40.805c0,22.537-18.27,40.806-40.805,40.806h40.064
				c22.537,0,40.806-18.27,40.806-40.806C473.424,25.782,455.156,7.512,432.618,7.512L432.618,7.512z"/>
			<g>
				<path fill="#03476B" d="M432.618,96.636H107.734c-4.148,0-7.512-3.364-7.512-7.513s3.363-7.512,7.512-7.512h324.885
					c18.358,0,33.293-14.936,33.293-33.294c0-18.357-14.935-33.294-33.293-33.294H107.734c-4.148,0-7.512-3.363-7.512-7.512
					c0-4.149,3.363-7.513,7.512-7.513h324.885c26.643,0,48.317,21.676,48.317,48.317C480.936,74.96,459.261,96.636,432.618,96.636
					L432.618,96.636z"/>
			</g>
		</g>
		<g>
			<g>
				<path fill="#03476B" d="M60.197,204.102h446.628v90.906H60.197V204.102z"/>
			</g>
			<path fill="#37A1DA" d="M370.436,204.102h136.389v90.906H370.436V204.102z"/>
			<path fill="#FFF5F5" d="M213.849,264.58H111.673c-8.297,0-15.024-6.727-15.024-15.024c0-8.297,6.728-15.024,15.024-15.024
				h102.176c8.297,0,15.024,6.728,15.024,15.024C228.873,257.853,222.146,264.58,213.849,264.58z"/>
			<g>
				<path fill="#FFF5F5" d="M463.42,257.068h-48.913c-4.148,0-7.512-3.364-7.512-7.513s3.363-7.512,7.512-7.512h48.913
					c4.148,0,7.512,3.363,7.512,7.512S467.57,257.068,463.42,257.068z"/>
			</g>
		</g>
		<g>
			<g>
				<path fill="#03476B" d="M326.698,167.227c-4.148,0-7.512-3.363-7.512-7.512v-18.692c0-4.148,3.363-7.513,7.512-7.513
					c4.149,0,7.513,3.364,7.513,7.513v18.692C334.21,163.864,330.848,167.227,326.698,167.227z"/>
			</g>
			<g>
				<path fill="#03476B" d="M299.321,167.227c-4.148,0-7.513-3.363-7.513-7.512v-18.692c0-4.148,3.364-7.513,7.513-7.513
					s7.512,3.364,7.512,7.513v18.692C306.832,163.864,303.47,167.227,299.321,167.227z"/>
			</g>
			<g>
				<path fill="#03476B" d="M271.943,167.227c-4.148,0-7.512-3.363-7.512-7.512v-18.692c0-4.148,3.363-7.513,7.512-7.513
					c4.149,0,7.513,3.364,7.513,7.513v18.692C279.455,163.864,276.092,167.227,271.943,167.227z"/>
			</g>
		</g>
	</g>
	<g>
		<path fill="#03476B" d="M133.05,40.805h171.417c4.148,0,7.512,3.363,7.512,7.512c0,4.149-3.363,7.513-7.512,7.513H133.05V40.805z"
			/>
	</g>
</g>
</svg>
