<?xml version="1.0" encoding="utf-8"?>
<!-- Generator: Adobe Illustrator 16.0.0, SVG Export Plug-In . SVG Version: 6.00 Build 0)  -->
<!DOCTYPE svg PUBLIC "-//W3C//DTD SVG 1.1//EN" "http://www.w3.org/Graphics/SVG/1.1/DTD/svg11.dtd">
<svg version="1.1" id="Layer_1" xmlns:svgjs="http://svgjs.com/svgjs"
	 xmlns="http://www.w3.org/2000/svg" xmlns:xlink="http://www.w3.org/1999/xlink" x="0px" y="0px" width="512px" height="512px"
	 viewBox="0 0 512 512" enable-background="new 0 0 512 512" xml:space="preserve">
<g opacity="0.3">
	<polygon fill="#37A1DA" points="6.236,169.288 255.499,62.982 256,236.621 6.236,342.714 	"/>
	<g>
		<path fill="#FFFFFF" d="M173.498,136.379l54.353-23.088c0.807-0.342,1.699,0.249,1.699,1.125v40.946
			c0,0.49-0.293,0.933-0.744,1.125l-54.353,23.088c-0.807,0.342-1.699-0.249-1.699-1.125v-40.947
			C172.754,137.013,173.046,136.57,173.498,136.379z"/>
		<path fill="#FFFFFF" d="M173.498,203.788l54.353-23.088c0.807-0.342,1.699,0.249,1.699,1.125v32.373
			c0,0.49-0.293,0.933-0.744,1.125l-54.353,23.088c-0.807,0.342-1.699-0.249-1.699-1.125v-32.373
			C172.754,204.421,173.046,203.979,173.498,203.788z"/>
	</g>
	<path fill="#FFFFFF" d="M37.163,194.29l104.469-44.375c2.201-0.935,4.642,0.682,4.642,3.072v95.152
		c0,1.357-0.822,2.581-2.081,3.092l-104.47,42.433c-2.194,0.892-4.593-0.724-4.593-3.092v-93.21
		C35.13,196.022,35.93,194.813,37.163,194.29z"/>
	<path fill="#FFFFFF" d="M35.13,290.571c0,2.369,2.398,3.984,4.593,3.092l104.469-42.433c1.259-0.511,2.081-1.733,2.081-3.092
		v-49.222L35.13,246.128V290.571z"/>
	<polygon fill="#37A1DA" points="256,236.621 255.499,62.982 505.764,168.822 505.764,342.714 	"/>
	<path fill="#FFFFFF" d="M427.511,275.213v-96.409c0-1.527,1.559-2.559,2.964-1.963l44.72,18.996
		c0.787,0.334,1.298,1.107,1.298,1.962v96.41c0,1.527-1.559,2.559-2.964,1.962l-44.72-18.996
		C428.022,276.84,427.511,276.068,427.511,275.213z"/>
	<path fill="#FFFFFF" d="M288.772,216.629v-97.551c0-1.15,1.175-1.928,2.233-1.478l113.665,48.28
		c0.593,0.252,0.978,0.834,0.978,1.479v97.551c0,1.151-1.175,1.928-2.233,1.479L289.75,218.107
		C289.158,217.855,288.772,217.274,288.772,216.629z"/>
	<path fill="#FFFFFF" d="M404.672,165.881l-64.812-27.529v101.04l63.556,26.996c1.06,0.449,2.233-0.327,2.233-1.479v-97.551
		C405.649,166.715,405.264,166.134,404.672,165.881z"/>
	<polygon fill="#37A1DA" points="6.236,342.714 256,236.621 505.764,342.714 256,448.804 	"/>
	<polygon fill="#FFFFFF" points="202.192,343.045 202.51,302.448 256,325.171 256.313,365.648 	"/>
	<polygon fill="#FFFFFF" points="256,325.171 309.49,302.448 309.267,342.488 256.313,365.648 	"/>
	<polygon fill="#FFFFFF" points="202.51,302.448 256,279.727 309.49,302.448 256,325.171 	"/>
	<path fill="#03476B" d="M507.422,162.367L258.965,56.831c-0.691-0.297-1.437-0.494-2.214-0.57
		c-0.103-0.011-0.204-0.011-0.308-0.016c-0.146-0.009-0.294-0.021-0.443-0.021c-0.15,0-0.296,0.014-0.444,0.021
		c-0.102,0.006-0.204,0.005-0.307,0.016c-0.779,0.076-1.524,0.274-2.214,0.57L4.578,162.367C1.802,163.547,0,166.272,0,169.287
		v173.426c0,0.341,0.03,0.674,0.074,1.002c0.011,0.078,0.021,0.154,0.034,0.232c0.053,0.317,0.119,0.63,0.211,0.932
		c0.004,0.009,0.005,0.018,0.008,0.026c0.097,0.321,0.221,0.629,0.357,0.93c0.027,0.06,0.058,0.117,0.085,0.177
		c0.134,0.274,0.282,0.54,0.447,0.795c0.015,0.021,0.027,0.046,0.042,0.069c0.178,0.268,0.377,0.52,0.586,0.762
		c0.052,0.059,0.105,0.116,0.158,0.174c0.198,0.214,0.406,0.418,0.627,0.607c0.027,0.022,0.051,0.049,0.079,0.07
		c0.25,0.209,0.517,0.396,0.793,0.57c0.059,0.037,0.119,0.073,0.179,0.109c0.304,0.18,0.617,0.346,0.945,0.481l248.433,105.53
		c0.94,0.398,1.94,0.598,2.94,0.598s2-0.199,2.939-0.598l248.431-105.526c0.329-0.137,0.644-0.303,0.946-0.482
		c0.06-0.036,0.12-0.072,0.179-0.109c0.276-0.174,0.542-0.362,0.793-0.57c0.028-0.022,0.053-0.049,0.08-0.071
		c0.222-0.189,0.429-0.394,0.627-0.607c0.054-0.058,0.107-0.115,0.158-0.174c0.21-0.242,0.408-0.494,0.586-0.762
		c0.016-0.022,0.027-0.047,0.042-0.069c0.165-0.255,0.313-0.521,0.447-0.795c0.029-0.06,0.058-0.116,0.085-0.176
		c0.137-0.302,0.261-0.609,0.358-0.93c0.003-0.01,0.005-0.019,0.008-0.028c0.09-0.303,0.157-0.614,0.21-0.93
		c0.013-0.077,0.024-0.153,0.036-0.232c0.044-0.329,0.073-0.662,0.073-1.002V169.287C512,166.272,510.198,163.547,507.422,162.367z
		 M256,440.092L26.75,342.713L256,245.334l229.25,97.379L256,440.092z M496.963,331.35l-233.445-99.159v-31.176
		c0-4.152-3.366-7.519-7.518-7.519l0,0c-4.152,0-7.519,3.366-7.519,7.519v31.176L15.037,331.35V174.262l233.444-99.16v82.144
		c0,4.152,3.366,7.519,7.519,7.519l0,0c4.151,0,7.518-3.366,7.518-7.519V75.102l233.445,99.16V331.35L496.963,331.35z"/>
	<path fill="#03476B" d="M31.432,301.02c1.259,0.848,2.726,1.28,4.199,1.28c0.955,0,1.917-0.182,2.828-0.552L148.6,257.013
		c2.835-1.151,4.689-3.906,4.689-6.967V148.699c0-2.522-1.267-4.878-3.369-6.27c-2.104-1.392-4.766-1.639-7.088-0.65L32.691,188.564
		c-2.776,1.179-4.578,3.904-4.578,6.92v99.3C28.113,297.285,29.357,299.624,31.432,301.02z M43.15,200.46l95.104-40.396v84.924
		L43.15,283.616V200.46z"/>
	<path fill="#03476B" d="M169.106,185.81c1.249,0.826,2.695,1.248,4.15,1.248c0.995,0,1.995-0.197,2.938-0.599l55.794-23.699
		c2.777-1.18,4.578-3.904,4.578-6.921v-42.513c0-2.522-1.266-4.878-3.369-6.27c-2.104-1.393-4.766-1.638-7.088-0.65l-55.794,23.699
		c-2.776,1.18-4.578,3.905-4.578,6.92v42.513C165.737,182.062,167.003,184.417,169.106,185.81z M180.773,142.001l40.757-17.312
		v26.175l-40.757,17.313V142.001z"/>
	<path fill="#03476B" d="M169.106,244.644c1.249,0.826,2.695,1.248,4.15,1.248c0.995,0,1.995-0.197,2.938-0.599l55.794-23.699
		c2.777-1.18,4.578-3.904,4.578-6.921v-33.938c0-2.523-1.266-4.878-3.369-6.271c-2.104-1.392-4.766-1.637-7.088-0.649l-55.794,23.7
		c-2.776,1.179-4.578,3.903-4.578,6.92v33.938C165.737,240.897,167.003,243.252,169.106,244.644z M180.773,209.41l40.757-17.312
		V209.7l-40.757,17.313V209.41z"/>
	<path fill="#03476B" d="M286.334,224.28l115.873,49.22c0.943,0.4,1.943,0.599,2.939,0.599c1.455,0,2.901-0.423,4.15-1.248
		c2.104-1.393,3.368-3.747,3.368-6.271v-99.952c0-3.016-1.802-5.74-4.577-6.92l-115.874-49.22c-2.323-0.986-4.985-0.742-7.088,0.65
		c-2.104,1.392-3.369,3.747-3.369,6.27v99.952C281.755,220.377,283.558,223.101,286.334,224.28z M296.792,128.771l100.837,42.832
		v83.613l-100.837-42.831V128.771z"/>
	<path fill="#03476B" d="M425.072,283.212l47.979,20.38c0.942,0.401,1.942,0.599,2.938,0.599c1.455,0,2.901-0.422,4.15-1.248
		c2.104-1.393,3.369-3.747,3.369-6.271V196.72c0-3.017-1.803-5.741-4.578-6.921l-47.979-20.38c-2.321-0.985-4.984-0.742-7.088,0.65
		c-2.104,1.392-3.369,3.747-3.369,6.27v99.952C420.493,279.308,422.296,282.033,425.072,283.212z M435.53,187.702l32.942,13.992
		v83.614l-32.942-13.992V187.702L435.53,187.702z"/>
	<path fill="#03476B" d="M312.224,296.099c-0.059-0.037-0.119-0.073-0.179-0.109c-0.304-0.18-0.616-0.346-0.946-0.483
		l-52.159-22.154c-1.88-0.797-4-0.797-5.879,0l-52.159,22.154c-0.328,0.138-0.643,0.304-0.944,0.482
		c-0.061,0.036-0.12,0.072-0.18,0.109c-0.275,0.175-0.543,0.361-0.793,0.569c-0.026,0.023-0.052,0.048-0.079,0.071
		c-0.222,0.189-0.429,0.394-0.627,0.607c-0.053,0.058-0.106,0.114-0.157,0.174c-0.21,0.242-0.408,0.494-0.586,0.762
		c-0.016,0.022-0.027,0.046-0.042,0.069c-0.165,0.254-0.313,0.52-0.447,0.795c-0.029,0.059-0.059,0.117-0.085,0.177
		c-0.137,0.301-0.261,0.609-0.358,0.929c-0.002,0.01-0.004,0.019-0.007,0.027c-0.091,0.303-0.157,0.615-0.211,0.931
		c-0.013,0.077-0.025,0.154-0.035,0.233c-0.044,0.329-0.074,0.662-0.074,1.002v40.266c0,3.016,1.803,5.74,4.578,6.92l52.185,22.166
		c0.69,0.297,1.434,0.493,2.212,0.57c0.251,0.025,0.501,0.038,0.753,0.038s0.502-0.013,0.753-0.038
		c0.779-0.076,1.522-0.274,2.212-0.57l52.183-22.166c2.777-1.18,4.578-3.904,4.578-6.92v-40.266c0-0.341-0.031-0.674-0.074-1.002
		c-0.011-0.078-0.022-0.155-0.035-0.233c-0.053-0.316-0.119-0.628-0.211-0.929c-0.003-0.01-0.005-0.019-0.008-0.029
		c-0.097-0.32-0.221-0.629-0.357-0.929c-0.027-0.06-0.057-0.117-0.085-0.176c-0.135-0.275-0.282-0.54-0.447-0.795
		c-0.015-0.022-0.027-0.046-0.042-0.069c-0.178-0.268-0.377-0.52-0.586-0.762c-0.052-0.061-0.105-0.116-0.158-0.174
		c-0.197-0.215-0.405-0.417-0.627-0.607c-0.027-0.023-0.052-0.049-0.08-0.072C312.766,296.461,312.5,296.274,312.224,296.099z
		 M256,288.441l32.978,14.008L256,316.457l-32.979-14.008L256,288.441z M211.309,313.811l37.172,15.79v23.928l-37.172-15.79V313.811
		L211.309,313.811z M263.518,353.527V329.6l37.172-15.79v23.927L263.518,353.527z"/>
</g>
</svg>
