<?xml version="1.0" encoding="utf-8"?>
<!-- Generator: Adobe Illustrator 16.0.0, SVG Export Plug-In . SVG Version: 6.00 Build 0)  -->
<!DOCTYPE svg PUBLIC "-//W3C//DTD SVG 1.1//EN" "http://www.w3.org/Graphics/SVG/1.1/DTD/svg11.dtd">
<svg version="1.1" id="Layer_1" xmlns:svgjs="http://svgjs.com/svgjs"
	 xmlns="http://www.w3.org/2000/svg" xmlns:xlink="http://www.w3.org/1999/xlink" x="0px" y="0px" width="512px" height="512px"
	 viewBox="0 0 512 512" enable-background="new 0 0 512 512" xml:space="preserve">
<g>
	<path fill="#37A1DA" d="M448,16H64c-26.51,0-48,21.49-48,48v232h480V64C496,37.49,474.509,16,448,16z"/>
	<path fill="#B3BEC4" d="M96,152v-24H64v32h32.8C96.265,157.367,95.996,154.687,96,152z"/>
	<path fill="#B3BEC4" d="M176,128v24c0.003,2.688-0.265,5.367-0.8,8H208v-32H176z"/>
	<path fill="#FFFFFF" d="M160,96c0,17.674-14.327,32-32,32H96v24c0,22.092,17.908,40,40,40c22.091,0,40-17.908,40-40V123.56
		C166.124,117.893,160.025,107.385,160,96z"/>
	<path fill="#37A1DA" d="M112,192h48c26.51,0,48,21.49,48,48v32l0,0H64l0,0v-32C64,213.49,85.49,192,112,192z"/>
	<path fill="#FFFFFF" d="M112,192c0,13.255,10.745,24,24,24s24-10.745,24-24H112z"/>
	<path fill="#FFFFFF" d="M288,192c-17.674,0-32-14.326-32-32V80c0-17.673,14.326-32,32-32h128c17.673,0,32,14.327,32,32v80
		c0,17.674-14.327,32-32,32h-48l-32,32v-32H288z"/>
	<path fill="#37A1DA" d="M328,80v80l64-40L328,80z"/>
	<circle fill="#94A4AD" cx="448" cy="336" r="16"/>
	<path fill="#37A1DA" d="M160,96c0,17.674,14.326,32,32,32v-8c0-30.928-25.072-56-56-56s-56,25.072-56,56v8h48
		C145.673,128,160,113.674,160,96z"/>
	<path fill="#03476B" d="M64,280h144c4.418,0,8-3.581,8-8v-32c-0.041-26.775-19.006-49.787-45.28-54.943
		c4.653-4.886,8.225-10.697,10.48-17.057H208c4.418,0,8-3.581,8-8v-48c0-44.183-35.817-80-80-80s-80,35.817-80,80v48
		c0,4.419,3.581,8,8,8h26.8c2.256,6.359,5.827,12.171,10.479,17.057C75.005,190.213,56.041,213.224,56,240v32
		C56,276.419,59.581,280,64,280z M149.776,200c-4.345,7.608-14.034,10.254-21.643,5.909c-2.462-1.406-4.503-3.446-5.909-5.909
		H149.776z M136,184c-17.674,0-32-14.326-32-32v-16h24c12.59,0,24.445-5.928,32-16c2.283,3.004,4.976,5.672,8,7.929V152h-16v16
		h11.552C157.88,177.867,147.381,183.964,136,184z M168,96c0-4.418-3.582-8-8-8c-4.419,0-8,3.582-8,8c0,13.255-10.745,24-24,24H88
		c-0.38-26.51,20.802-48.308,47.312-48.688S183.62,92.114,184,118.624C174.419,115.224,168.013,106.166,168,96z M200,152h-16v-16h16
		V152z M72,112c0-35.346,28.653-64,64-64c35.346,0,64,28.654,64,64v8c0-35.346-28.654-64-64-64c-35.347,0-64,28.654-64,64V112z
		 M72,152v-16h16v16H72z M72,240c0.056-19.479,14.136-36.086,33.344-39.328c4.685,16.932,22.208,26.858,39.139,22.174
		c10.774-2.981,19.192-11.399,22.173-22.174C185.865,203.914,199.945,220.52,200,240v24h-16v-32h-16v32h-64v-32H88v32H72V240z"/>
	<path fill="#03476B" d="M288,200h40v24c0.001,4.419,3.583,7.999,8.001,7.999c2.121-0.001,4.155-0.844,5.654-2.343L371.312,200H416
		c22.08-0.026,39.973-17.919,40-40V80c-0.027-22.08-17.92-39.974-40-40H288c-22.081,0.026-39.974,17.92-40,40v80
		C248.027,182.081,265.919,199.973,288,200z M264,80c0-13.255,10.745-24,24-24h128c13.254,0,24,10.745,24,24v80
		c0,13.255-10.746,24-24,24h-48c-2.122,0.001-4.156,0.844-5.656,2.345L344,204.688V192c0-4.418-3.582-8-8-8h-48
		c-13.255,0-24-10.745-24-24V80z"/>
	<path fill="#03476B" d="M324.12,167c2.544,1.41,5.653,1.327,8.119-0.216l64-40c3.756-2.327,4.913-7.259,2.586-11.015
		c-0.65-1.05-1.536-1.935-2.586-2.585l-64-40c-3.746-2.342-8.682-1.203-11.023,2.544c-0.801,1.28-1.222,2.762-1.216,4.271v80
		C319.998,162.909,321.576,165.59,324.12,167z M336,94.4l40.903,25.6L336,145.6V94.4z"/>
	<path fill="#03476B" d="M296,216h16v16h-16V216z"/>
	<path fill="#03476B" d="M264,216h16v16h-16V216z"/>
	<path fill="#03476B" d="M232,216h16v16h-16V216z"/>
	<path fill="#03476B" d="M448,8H64C33.087,8.035,8.035,33.087,8,64v272c0.035,30.914,25.087,55.965,56,56h128v48h-16
		c-17.674,0-32,14.327-32,32v24c0,4.419,3.581,8,8,8h208c4.418,0,8-3.581,8-8v-24c0-17.673-14.327-32-32-32h-16v-48h128
		c30.913-0.035,55.964-25.086,56-56V64C503.964,33.087,478.913,8.035,448,8z M64,24h384c22.08,0.026,39.973,17.92,40,40v224H24V64
		C24.027,41.92,41.919,24.026,64,24z M352,472v16H160v-16c0-8.836,7.163-16,16-16h160C344.836,456,352,463.164,352,472z M304,440
		h-96v-48h96V440z M448,376H64c-22.081-0.026-39.974-17.919-40-40v-32h464v32C487.973,358.081,470.08,375.973,448,376z"/>
	<path fill="#03476B" d="M448,312c-13.255,0-24,10.746-24,24c0,13.255,10.745,24,24,24c13.254,0,24-10.745,24-24
		C472,322.746,461.254,312,448,312z M448,344c-4.419,0-8-3.581-8-8c0-4.418,3.581-8,8-8c4.418,0,8,3.582,8,8
		C456,340.419,452.418,344,448,344z"/>
</g>
</svg>
