<?xml version="1.0" encoding="utf-8"?>
<!-- Generator: Adobe Illustrator 16.0.0, SVG Export Plug-In . SVG Version: 6.00 Build 0)  -->
<!DOCTYPE svg PUBLIC "-//W3C//DTD SVG 1.1//EN" "http://www.w3.org/Graphics/SVG/1.1/DTD/svg11.dtd">
<svg version="1.1" id="Layer_1" xmlns:svgjs="http://svgjs.com/svgjs"
	 xmlns="http://www.w3.org/2000/svg" xmlns:xlink="http://www.w3.org/1999/xlink" x="0px" y="0px" width="512px" height="512px"
	 viewBox="0 0 512 512" enable-background="new 0 0 512 512" xml:space="preserve">
<g>
	<path fill="#37A1DA" d="M432,384h-16V232c0-13.255-10.746-24-24-24h-24v-16h24c22.091,0,40,17.909,40,40V384z"/>
	<path fill="#3B5892" d="M400,432V327.352c0.002-22.882-16.147-42.584-38.584-47.072L280,264l-40-16h-48l-40,16l-81.416,16.28
		C48.147,284.768,31.997,304.47,32,327.352V432H400z"/>
	<path fill="#37A1DA" d="M216,376h16l16-16h16l16,16h16c8.836,0,16,7.164,16,16v40h-96V376z"/>
	<path fill="#03476B" d="M280,128h16l15.632-27.357c6.849-11.979,2.688-27.241-9.288-34.093c-1.987-1.137-4.122-1.992-6.344-2.55
		c10.245-10.242,16.001-24.137,16-38.624V16c-21.045,10.521-44.249,15.999-67.776,16h-46.952c-19.248,0-38.229,4.481-55.445,13.088
		C128.448,51.776,120,65.446,120,80.4c0.001,5.021,0.96,9.994,2.824,14.656L136,128h16v-16c0-8.836,7.163-16,16-16h96
		c8.836,0,16,7.164,16,16V128z"/>
	<path fill="#37A1DA" d="M168,96h96c8.836,0,16,7.164,16,16v80c0,17.674-14.327,32-32,32h-64c-17.674,0-32-14.326-32-32v-80
		C152,103.164,159.163,96,168,96z"/>
	<path fill="#37A1DA" d="M152,128h-16c-8.837,0-16,7.164-16,16c0,8.837,7.163,16,16,16h16"/>
	<path fill="#37A1DA" d="M280,128h16c8.836,0,16,7.164,16,16c0,8.837-7.164,16-16,16h-16"/>
	<path fill="#172E50" d="M208,264h16v72h-16V264z"/>
	<path fill="#37A1DA" d="M192,224v24l24,16l24-16v-24"/>
	<path fill="#213D68" d="M192,248l-40,16l32,40l32-40"/>
	<path fill="#213D68" d="M240,248l40,16l-32,40l-32-40"/>
	<path fill="#37A1DA" d="M16,432h480v64H16V432z"/>
	<path fill="#03476B" d="M16,432h480v32H16V432z"/>
	<path fill="#03476B" d="M224,432h-16v-48h-96c-4.419,0-8-3.579-8-8v-40h16v32h96c4.418,0,8,3.582,8,8V432z"/>
	<path fill="#03476B" d="M376,432v-16c0-17.673,14.326-32,32-32h32c17.673,0,32,14.327,32,32v16"/>
	<path fill="#03476B" d="M328,184h32c8.836,0,16,7.164,16,16l0,0c0,8.837-7.164,16-16,16h-32c-8.837,0-16-7.163-16-16l0,0
		C312,191.164,319.163,184,328,184z"/>
	<path fill="#03476B" d="M204.259,155.258h8.806c0-11.93-9.876-21.636-22.015-21.636s-22.014,9.706-22.014,21.636h8.806
		c0-7.155,5.926-12.979,13.208-12.979C198.333,142.276,204.259,148.1,204.259,155.258z"/>
	<path fill="#03476B" d="M243.884,142.276c7.282,0,13.209,5.824,13.209,12.979h8.806c0-11.93-9.876-21.636-22.015-21.636
		c-12.138,0-22.014,9.706-22.014,21.636h8.806C230.676,148.1,236.602,142.276,243.884,142.276z"/>
	<path fill="#03476B" d="M215.885,191.603c-7.282,0-13.209-5.824-13.209-12.981h-8.806c0,11.932,9.876,21.636,22.015,21.636
		c12.138,0,22.014-9.704,22.014-21.636h-8.806C229.093,185.779,223.166,191.603,215.885,191.603z"/>
</g>
</svg>
