<?xml version="1.0" encoding="utf-8"?>
<!-- Generator: Adobe Illustrator 16.0.0, SVG Export Plug-In . SVG Version: 6.00 Build 0)  -->
<!DOCTYPE svg PUBLIC "-//W3C//DTD SVG 1.1//EN" "http://www.w3.org/Graphics/SVG/1.1/DTD/svg11.dtd">
<svg version="1.1" id="Layer_1" xmlns:svgjs="http://svgjs.com/svgjs"
	 xmlns="http://www.w3.org/2000/svg" xmlns:xlink="http://www.w3.org/1999/xlink" x="0px" y="0px" width="512px" height="512px"
	 viewBox="0 0 512 512" enable-background="new 0 0 512 512" xml:space="preserve">
<g>
	<g>
		<path fill="#03476B" d="M249.79,237.154c-43.65,0-79.162,35.51-79.162,79.165c0,43.65,35.512,79.162,79.162,79.162
			c43.653,0,79.165-35.512,79.165-79.162C328.955,272.664,293.444,237.154,249.79,237.154z M184.889,288.818l1.728-2.013
			l2.873-2.589l0.861,1.725l-2.012,2.155l0.576,2.876l0.718,4.455l1.006,5.753l-4.746-0.146l-1.582-3.161l1.151-3.019
			L184.889,288.818z M181.398,286.785l-0.257,3.415l-2.124,1.029l2.189,1.095v2.961l-1.61,1.352l-1.995,0.063l-1.545,0.967
			l-0.388-0.037c0.761-3.016,1.713-5.961,2.822-8.825L181.398,286.785z M173.422,313.398c0.108-2.888,0.362-5.738,0.784-8.535
			l2.063-0.088l-0.293,5.028l-2.297,3.595H173.422z M299.356,374.45l1.752-3.004v-2.301l-4.389,5.505l-1.463,0.676v-2.207
			l0.348-1.322l1.674-1.465l-2.648-1.531l-2.576,1.949l-0.771,0.979l-1.949,1.391l-1.186-1.183l-1.254-0.071
			c0,0-2.576,2.996-2.855,3.461c-0.281,0.467-1.463,0-1.463,0l-2.232,0.997l-2.018,2.229l-3.764,1.114l-5.364,1.882l-1.741,3.138
			l-4.98,5.502l2.264-0.624l5.017-1.115l3.971-0.279l0.511,0.567c-7.683,2.6-15.895,4.03-24.443,4.03
			c-19.033,0-36.45-7.009-49.847-18.557v-0.507l-0.73-2.845l-2.925-3.008l-5.362-5.932l-0.487-3.737l-0.083-2.274l0.65-3.008
			l1.137-2.438v-4.552l-0.083-4.063l-0.813-1.79l-3.17,0.893h-2.845l-3.495-5.199l-1.867-1.38l-0.57-2.765l-1.788-1.787v-3.495
			l-1.058-1.223l-0.245-1.705l-1.055-4.228v-1.949l1.867,4.39l2.033,2.845v3.087l1.217,1.788l1.95,4.064l2.683,4.387l5.607-3.494
			l1.058-2.033l4.712-3.004l0.085-1.953l1.705-3.332l-0.732-2.029l-3.007-0.896l-2.03-2.112l-1.379,2.357h-2.683l-0.408-1.87
			l-1.217,0.487l-0.408-1.866l-2.517-3.253l0.567-1.87h1.87l1.95,2.683l2.195,1.217l2.112-0.493l2.438,2.201l3.657,0.325
			l7.072,0.324l2.112,1.708l2.195,0.975l2.357,0.083l-1.87,0.975l1.87,2.274l2.437,0.813l1.217-2.68v4.875l6.419,10.969l5.04,5.853
			c0,0,2.032-2.355,2.357-2.763c0.325-0.405,0-2.763,0-2.763v-4.145l1.379-2.845l5.772-5.526l2.438-2.846l5.199-1.946l2.192-0.328
			l3.119,3.087l2.736,4.391l1.055,2.924l3.495-1.462l1.303,2.357l1.949,5.524l-0.732,4.874l0.813,0.57l1.137,0.975l1.545,2.277
			l0.976,3.82l4.55,2.762l-0.647-4.307l-0.815-2.357l-3.332-1.787l-0.404-1.91l-1.463-1.26l-0.408-1.058l1.334-4.311l2.267,1.221
			l5.581,5.407l1.047-1.745l4.01-0.872l2.617-2.439l-2.092-5.93l-4.533-3.138v-3.837l3.66-1.919l3.66,1.919l0.873-2.617l6.453-1.22
			l6.273-5.474l1.922-7.778l-4.014-8.021l-2.965-2.965l5.057-2.092l-2.092-1.047l-4.357,1.571l-3.139-3.142l3.486-5.057l2.268,2.616
			l3.139-0.177l1.221,3.837l3.488,1.568l2.094,4.883l1.744-1.568v-3.663l-4.014-4.184l0.523-3.313l0.348-2.44h3.838l1.047-4.532
			l-2.441-10.29l-6.277-6.976l-7.584-2.092l-1.834-7.498l3.664-2.617l-1.037-1.901c23.508,13.056,39.459,38.132,39.459,66.874
			C326.239,339.571,315.789,360.417,299.356,374.45z"/>
		<polygon fill="#03476B" points="231.082,342.667 230.666,343.642 230.874,346.848 232.197,348.103 233.662,346.361 
			233.314,344.896 		"/>
		<polygon fill="#03476B" points="269.755,358.693 267.176,356.116 265.155,353.747 261.392,350.682 257.977,348.103 
			257.629,348.103 255.189,348.103 257.002,350.052 257.977,350.751 260.486,353.26 261.531,355.557 264.108,360.158 
			267.383,362.734 269.755,361.201 		"/>
		<polygon fill="#03476B" points="277.629,364.408 274.354,363.781 272.609,363.781 270.727,363.222 269.197,363.573 
			269.197,364.337 272.261,365.659 274.77,365.032 278.252,365.659 280.761,366.498 284.664,366.914 282.643,365.069 		"/>
		<path fill="#03476B" d="M287.59,367.333c0,0,0.488,0.767,0.697,0.835c0.207,0.071,4.113-2.09,4.113-2.09h-1.883L287.59,367.333z"
			/>
		<polygon fill="#03476B" points="276.93,360.158 282.924,360.714 284.176,358.065 285.846,355.001 287.59,354.442 287.59,352.425 
			287.59,350.195 289.332,348.73 289.332,347.336 287.59,346.15 285.498,348.103 282.781,349.497 278.951,352.98 276.443,352.98 
			274.981,355.42 275.536,357.302 		"/>
		<polygon fill="#03476B" points="291.213,354.582 295.604,354.582 290.41,353.433 288.985,356.116 285.223,360.018 
			285.989,363.222 288.01,360.366 289.332,362.734 290.518,361.412 290.518,357.997 293.024,356.116 289.994,356.116 		"/>
		<polygon fill="#03476B" points="304.172,357.196 303.129,355.976 301.108,355.42 301.108,357.438 302.85,358.972 		"/>
		<path fill="#03476B" d="M305.252,358.328l-1.08,0.645l-3.064,0.348v0.698l2.158,0.695c0,0,0.348,1.254,0.348,1.673
			c0,0.42-0.973,2.09-0.973,2.09l0.973,2.44l2.023-0.839l1.324-1.009l2.436-1.359v-3.902l-1.529-1.479H305.252z"/>
		<polygon fill="#03476B" points="293.791,360.714 295.604,360.503 295.951,358.972 294.836,358.972 		"/>
		<polygon fill="#03476B" points="296.998,359.842 297.346,360.714 298.739,360.434 299.643,358.972 298.389,358.972 		"/>
		<path fill="#03476B" d="M298.321,343.228l-2.369,0.904l-1.08,1.257v1.251l2.127-0.487v1.325l2.369,0.627
			c0,0,0.348-0.487,0.275-0.698c-0.07-0.208,0.008-3.063,0.008-3.063l0.482-1.115l-0.486-0.698L298.321,343.228z"/>
		<polygon fill="#03476B" points="294.871,336.328 296.787,336.328 297.502,337.51 298.807,337.51 298.389,335.632 296.715,334.805 
			295.604,334.378 295.604,333.192 296.371,332.077 296.51,331.661 296.578,330.615 296.787,329.29 296.16,328.873 294.871,328.873 
			293.723,330.615 292.887,332.217 292.887,334.238 294.524,335.144 		"/>
		<polygon fill="#03476B" points="297.502,339.463 297.502,341.344 298.807,341.344 299.295,340.055 299.295,338.767 
			297.502,338.767 		"/>
		<polygon fill="#03476B" points="293.791,339.183 294.871,340.369 295.604,339.671 295.604,338.767 295.324,337.861 
			293.791,337.094 		"/>
		<polygon fill="#03476B" points="290.727,343.017 291.774,341.971 291.774,340.997 291.352,340.369 291.002,340.718 
			288.846,342.53 288.01,343.086 289.332,344.552 		"/>
		<polygon fill="#03476B" points="280.621,329.22 280.621,327.861 280.063,327.271 277.418,326.154 276.722,327.759 
			277.768,329.569 279.158,329.569 		"/>
		<path fill="#03476B" d="M293.791,323.018c0.348,0,0.906-0.835,0.906-0.835l0.174-2.577c0,0,0.664-0.63,0.732-0.838
			c0.072-0.208,0-2.09,0-2.09l-0.906,0.556l-0.906,1.534l-0.352,2.439C293.444,321.208,293.444,323.018,293.791,323.018z"/>
		<path fill="#03476B" d="M205.439,372.389l-0.359-1.425l-2.258-1.665l0.356,1.604l-0.356,2.378l1.961,2.853
			c0,0,2.377,2.614,2.676,2.794c0.296,0.18,2.674,1.665,2.674,1.665h1.665l-3.925-4.878L205.439,372.389z"/>
		<path fill="#03476B" d="M305.264,277.459c0,0,0.527-0.847,0.527-1.163c0-0.319-2.326-4.339-2.326-4.339l-0.58-3.592l-2.908-1.061
			l1.268,3.07l1.48,5.394L305.264,277.459z"/>
		<path fill="#03476B" d="M306.533,283.698c0,0.741,0.211,2.221,0.211,2.221h1.799c0,0,0.211,0.211,0.529,0
			c0.316-0.211,2.643-2.432,2.643-2.432l-0.527-1.166v-5.92l-1.691,2.961c0,0-0.211,0.952-0.475,0.952
			c-0.266,0-2.064-0.952-2.064-0.952l-0.635,0.316l0.424,1.799C306.744,281.477,306.533,282.957,306.533,283.698z"/>
		<path fill="#03476B" d="M312.801,294.729l-0.039-2.604c0,0-1.723-4.646-1.926-4.646c-0.201,0-1.818,0.562-1.818,0.562l0.457,1.322
			l1.203,3.403l-0.83,2.805l-1.576,0.242v2.643h-2.48l-1.727,1.888l0.561,2.083l2.287-1.682l1.602-0.481l1.16,1.882
			c0,0,0.883-0.563,1.004-1.081c0.119-0.521,1.119-1.765,1.24-1.765s1.564-1.322,1.564-1.322L312.801,294.729z"/>
		<polygon fill="#03476B" points="304.227,306.919 305.828,306.75 305.828,304.829 305.348,303.227 302.944,303.467 
			304.065,304.789 		"/>
		<polygon fill="#03476B" points="308.434,302.424 307.633,301.745 306.549,302.623 307.092,303.869 308.434,303.869 		"/>
		<path fill="#03476B" d="M251.392,338.73c0-0.456-0.599-2.163-0.599-2.163l-1.003-1.309v4.024l0.596,2.062h1.408
			C251.794,341.344,251.392,339.186,251.392,338.73z"/>
		<polygon fill="#03476B" points="252.398,347.131 253.806,346.15 251.794,343.308 		"/>
	</g>
	<path fill="#03476B" d="M477.795,353.542l-0.422-0.245l0.377-208.269c0.016-9.104-6.414-20.285-14.287-24.851L281.3,14.565v-0.296
		h-0.517l-10.025-5.815c-7.875-4.563-20.774-4.589-28.664-0.052l-10.199,5.867h-1.237v0.709L48.988,119.43
		c-7.89,4.535-14.361,15.695-14.375,24.793l-0.408,222.752c-0.014,9.102,6.414,20.281,14.287,24.848l192.707,111.721
		c7.874,4.566,20.772,4.59,28.662,0.052l193.108-111.022c7.891-4.535,14.359-15.692,14.375-24.794l0.027-13.5L477.795,353.542z
		 M118.487,208.173l-0.183,100.684l-45.585,26.318l0.279-153.262L118.487,208.173z M143.523,349.83l87.135,50.518v52.638
		l-132.626-76.89L143.523,349.83z M356.537,255.999c0,55.54-45.025,100.561-100.562,100.561
		c-55.534,0-100.555-45.021-100.555-100.561c0-55.534,45.021-100.559,100.555-100.559
		C311.512,155.441,356.537,200.465,356.537,255.999z M281.3,400.139l88.142-50.677l45.586,26.318L281.3,452.666V400.139z
		 M393.469,304.854l0.184-103.534l45.59-26.322l-0.285,156.119L393.469,304.854z M409.805,133.518l-45.494,26.265L281.3,111.654
		V59.016L409.805,133.518z M230.657,111.865l-89.033,51.19l-45.586-26.322l134.619-77.395V111.865z"/>
	<g>
		<g>
			<path fill="#03476B" d="M186.372,228.567c0.416-0.195,0.812-0.429,1.186-0.694c0.017-0.011,0.029-0.023,0.043-0.033
				c0.185-0.134,0.365-0.275,0.539-0.423c0.065-0.058,0.125-0.121,0.188-0.178c0.117-0.109,0.234-0.215,0.342-0.331
				c0.068-0.071,0.128-0.147,0.194-0.221c0.097-0.109,0.194-0.221,0.285-0.339c0.063-0.08,0.125-0.166,0.182-0.251
				c0.057-0.077,0.108-0.155,0.163-0.236c-0.054-0.077-0.111-0.154-0.168-0.231c-0.074-0.099-0.151-0.198-0.228-0.298
				c-0.097-0.122-0.194-0.244-0.296-0.367c-0.086-0.104-0.166-0.204-0.257-0.309c-0.105-0.125-0.222-0.252-0.331-0.38
				c-0.097-0.107-0.188-0.209-0.282-0.316c-0.12-0.131-0.245-0.264-0.371-0.395c-0.1-0.107-0.197-0.212-0.299-0.321
				c-0.137-0.135-0.273-0.273-0.413-0.413c-0.105-0.105-0.206-0.209-0.314-0.315c-0.148-0.144-0.302-0.29-0.453-0.433
				c-0.108-0.102-0.211-0.2-0.316-0.3c-0.174-0.159-0.351-0.317-0.527-0.477c-0.094-0.085-0.188-0.171-0.279-0.255
				c-0.279-0.242-0.559-0.484-0.844-0.726c-0.291-0.239-0.576-0.476-0.867-0.704c-0.094-0.077-0.188-0.148-0.285-0.225
				c-0.194-0.151-0.385-0.302-0.576-0.446c-0.114-0.086-0.228-0.168-0.339-0.251c-0.171-0.128-0.345-0.258-0.516-0.379
				c-0.12-0.087-0.239-0.17-0.362-0.255c-0.16-0.111-0.319-0.225-0.479-0.332c-0.123-0.085-0.248-0.163-0.368-0.244
				c-0.154-0.099-0.302-0.198-0.451-0.292c-0.125-0.078-0.245-0.149-0.365-0.225c-0.146-0.088-0.288-0.177-0.43-0.259
				c-0.12-0.07-0.237-0.135-0.354-0.2c-0.137-0.078-0.271-0.154-0.402-0.225c-0.12-0.063-0.23-0.118-0.342-0.177
				c-0.085-0.042-0.171-0.084-0.251-0.124c-0.068,0.064-0.137,0.13-0.205,0.198c-0.074,0.074-0.146,0.147-0.217,0.224
				c-0.097,0.11-0.188,0.224-0.279,0.341c-0.06,0.076-0.125,0.149-0.183,0.227c-0.097,0.131-0.185,0.269-0.273,0.408
				c-0.045,0.067-0.094,0.134-0.137,0.204c-0.125,0.214-0.242,0.429-0.348,0.654c-0.2,0.412-0.359,0.842-0.479,1.286
				c-0.434,1.545-0.365,3.187,0.188,4.693c1.465,4.012,5.901,6.082,9.914,4.624C185.938,228.761,186.155,228.67,186.372,228.567z"/>
			<path fill="#03476B" d="M173.088,213.198c-0.673,0.798,0.1,2.866,1.979,5.364c0.057-0.154,0.12-0.305,0.185-0.453
				c-0.054-0.077-0.1-0.148-0.146-0.225c-0.057-0.084-0.117-0.171-0.168-0.253c-0.068-0.11-0.128-0.212-0.191-0.321
				c-0.04-0.074-0.085-0.15-0.123-0.221c-0.054-0.104-0.1-0.204-0.146-0.302c-0.031-0.064-0.065-0.131-0.091-0.194
				c-0.04-0.097-0.068-0.188-0.103-0.281c-0.017-0.056-0.04-0.113-0.057-0.17c-0.025-0.09-0.04-0.171-0.051-0.255
				c-0.011-0.049-0.022-0.1-0.028-0.147c-0.006-0.079-0.006-0.155-0.003-0.232c0.003-0.04-0.003-0.085,0.003-0.124
				c0.008-0.074,0.025-0.145,0.051-0.213c0.008-0.032,0.011-0.066,0.023-0.094c0.04-0.094,0.091-0.181,0.157-0.259
				c0.524-0.623,1.65-0.522,3.44,0.306c1.34,0.653,2.623,1.418,3.831,2.288c0.391,0.273,0.784,0.555,1.18,0.855
				c0.599,0.453,1.203,0.932,1.802,1.437c2.132,1.73,4.042,3.717,5.689,5.917l0.006,0.009c0.128,0.179,0.242,0.353,0.348,0.523
				c0.034,0.056,0.063,0.107,0.097,0.161c0.068,0.115,0.131,0.228,0.191,0.335c0.032,0.061,0.06,0.118,0.088,0.177
				c0.052,0.098,0.097,0.195,0.137,0.291c0.025,0.053,0.045,0.107,0.068,0.161c0.011,0.03,0.028,0.061,0.04,0.09
				c0.034,0.095,0.06,0.187,0.085,0.272l0.008,0.042c0.029,0.11,0.051,0.224,0.065,0.339c0,0.014,0,0.027,0.006,0.041
				c0.006,0.102,0.006,0.203-0.006,0.305c0,0.019,0,0.037-0.005,0.054c-0.012,0.091-0.034,0.18-0.068,0.262
				c-0.006,0.014-0.012,0.027-0.017,0.04c-0.08,0.178-0.208,0.328-0.371,0.43c-0.032,0.017-0.063,0.033-0.097,0.046
				c-0.063,0.033-0.125,0.061-0.191,0.083c-0.042,0.016-0.094,0.017-0.14,0.027c-0.068,0.016-0.137,0.027-0.211,0.033
				c-0.051,0.003-0.114-0.001-0.171-0.001c-0.077-0.001-0.154,0.001-0.234-0.007c-0.068-0.006-0.137-0.021-0.208-0.031
				c-0.085-0.012-0.168-0.026-0.262-0.047c-0.074-0.015-0.157-0.04-0.24-0.062c-0.094-0.025-0.188-0.05-0.288-0.083
				c-0.088-0.029-0.183-0.062-0.271-0.094c-0.105-0.039-0.208-0.075-0.316-0.118c-0.097-0.04-0.199-0.084-0.302-0.13
				c-0.08-0.034-0.154-0.061-0.233-0.1c-0.131,0.093-0.274,0.178-0.417,0.264c2.788,1.415,4.96,1.814,5.633,1.016
				c0.724-0.861-0.239-3.206-2.452-5.967c-0.92-1.145-1.918-2.227-2.981-3.241c-0.011-0.01-0.02-0.021-0.034-0.031
				c-0.45-0.439-0.924-0.874-1.414-1.302c-0.245-0.215-0.493-0.429-0.747-0.64c-1.87-1.591-3.888-2.995-6.029-4.196
				C176.286,212.875,173.812,212.335,173.088,213.198z"/>
			<path fill="#03476B" d="M180.522,214.276c0.037,0.023,0.074,0.046,0.111,0.067c0.203,0.118,0.408,0.242,0.61,0.369
				c0.083,0.051,0.168,0.105,0.254,0.158c0.157,0.101,0.316,0.202,0.476,0.306c0.094,0.063,0.191,0.127,0.288,0.19
				c0.148,0.101,0.297,0.201,0.448,0.305c0.1,0.07,0.197,0.14,0.299,0.209c0.148,0.103,0.296,0.208,0.445,0.313
				c0.097,0.074,0.194,0.146,0.293,0.218c0.151,0.112,0.302,0.225,0.453,0.341c0.094,0.071,0.188,0.143,0.285,0.215
				c0.166,0.128,0.328,0.258,0.493,0.388c0.08,0.064,0.16,0.125,0.236,0.191c0.246,0.193,0.491,0.393,0.73,0.596
				c0.239,0.202,0.479,0.407,0.718,0.615c0.074,0.067,0.148,0.136,0.228,0.201c0.157,0.143,0.313,0.282,0.468,0.423
				c0.088,0.08,0.177,0.161,0.262,0.241c0.14,0.13,0.279,0.26,0.416,0.392c0.091,0.083,0.177,0.167,0.262,0.251
				c0.131,0.128,0.265,0.256,0.394,0.388c0.085,0.083,0.171,0.167,0.25,0.252c0.131,0.133,0.26,0.265,0.388,0.399
				c0.074,0.078,0.151,0.16,0.228,0.236c0.137,0.146,0.268,0.291,0.399,0.435c0.06,0.065,0.123,0.134,0.182,0.201
				c0.183,0.203,0.359,0.405,0.527,0.606l0.02,0.025l0.012,0.012c0.216-1.307,0.091-2.648-0.365-3.893
				c-1.448-3.977-5.823-6.049-9.82-4.656L180.522,214.276z"/>
			<path fill="#03476B" d="M188.658,228.042c-0.026,0.021-0.049,0.044-0.074,0.067l0.008,0.003c0.148,0.058,0.282,0.109,0.408,0.155
				l0.071,0.024c0.12,0.044,0.231,0.077,0.336,0.107c0.02,0.006,0.043,0.013,0.065,0.019c0.103,0.028,0.2,0.051,0.285,0.068
				l0.043,0.007c0.088,0.016,0.168,0.028,0.242,0.036l0.006-0.001c0.063,0.005,0.128,0.008,0.194,0.005h0.025
				c0.048-0.001,0.094-0.007,0.143-0.016l0.02-0.002c0.034-0.009,0.068-0.02,0.097-0.035l0.012-0.004
				c0.022-0.012,0.045-0.026,0.063-0.046c0.014-0.019,0.026-0.041,0.034-0.064l0.003-0.011c0.008-0.031,0.014-0.065,0.014-0.099
				l0.003-0.021c0.003-0.045-0.003-0.089-0.006-0.138l-0.003-0.021c-0.008-0.064-0.022-0.125-0.04-0.187v-0.001
				c-0.017-0.07-0.04-0.148-0.071-0.232l-0.009-0.024c-0.028-0.081-0.068-0.172-0.111-0.267l-0.02-0.044
				c-0.046-0.097-0.097-0.201-0.157-0.311l-0.026-0.05c-0.065-0.114-0.137-0.237-0.217-0.368l-0.002-0.006
				c-0.032,0.042-0.066,0.081-0.094,0.123c-0.034,0.043-0.065,0.085-0.097,0.127c-0.154,0.198-0.313,0.391-0.484,0.575
				c-0.014,0.013-0.028,0.027-0.04,0.041c-0.165,0.172-0.336,0.338-0.513,0.495C188.726,227.978,188.692,228.011,188.658,228.042z"
				/>
			<path fill="#03476B" d="M175.807,217.062c0.125-0.204,0.257-0.396,0.399-0.59c0.011-0.016,0.022-0.031,0.031-0.047
				c0.151-0.199,0.311-0.389,0.479-0.573c0.034-0.039,0.071-0.08,0.108-0.117c0.037-0.04,0.065-0.077,0.1-0.113h-0.006
				c-0.143-0.06-0.273-0.107-0.399-0.15l-0.051-0.019c-0.12-0.04-0.231-0.075-0.331-0.101l-0.051-0.014
				c-0.1-0.024-0.194-0.047-0.28-0.063l-0.028-0.006c-0.085-0.014-0.165-0.027-0.234-0.031l-0.005,0.001
				c-0.063-0.005-0.125-0.007-0.186-0.004c-0.008,0-0.02,0-0.025,0c-0.046,0.001-0.091,0.007-0.137,0.019l-0.02,0.004
				c-0.032,0.007-0.066,0.019-0.094,0.034l-0.011,0.006c-0.023,0.012-0.043,0.026-0.06,0.046c-0.014,0.021-0.025,0.044-0.034,0.068
				c-0.003,0.003-0.003,0.006-0.009,0.01c-0.005,0.033-0.011,0.067-0.011,0.1c0,0.01-0.003,0.018-0.003,0.026
				c0,0.047,0.003,0.094,0.009,0.14l0.005,0.031c0.009,0.062,0.023,0.123,0.037,0.184l0.009,0.017
				c0.017,0.065,0.04,0.14,0.071,0.219l0.017,0.049c0.031,0.08,0.071,0.169,0.114,0.264l0.032,0.064
				c0.048,0.098,0.103,0.203,0.165,0.313l0.034,0.066c0.068,0.117,0.143,0.241,0.228,0.375l0.003,0.007
				c0.014-0.029,0.037-0.056,0.054-0.087C175.756,217.146,175.785,217.104,175.807,217.062z"/>
		</g>
		<path fill="#03476B" d="M311.703,206.681c1.346,0,2.443,1.093,2.443,2.442c0,1.352-1.098,2.446-2.443,2.446
			c-1.352,0-2.445-1.094-2.445-2.446C309.258,207.774,310.352,206.681,311.703,206.681z"/>
		<circle fill="#03476B" cx="216.924" cy="233.711" r="2.446"/>
		<path fill="#03476B" d="M293.803,212.794h2.445v-2.446h2.445v-2.446h-2.445v-2.446h-2.445v2.446h-2.447v2.446h2.447V212.794z"/>
		<path fill="#03476B" d="M332.164,216.056h2.445v2.446h-2.445V216.056z"/>
		<path fill="#03476B" d="M320.824,244.161h2.447v2.446h-2.447V244.161z"/>
		<path fill="#03476B" d="M309.258,226.336h2.445v2.447h-2.445V226.336z"/>
		<path fill="#03476B" d="M231.456,201.79h-2.446v2.444h-2.446v2.446h2.446v2.442h2.446v-2.442h2.445v-2.446h-2.445V201.79z"/>
		<path fill="#03476B" d="M213.794,169.548h-2.446v2.446h-2.446v2.444h2.446v2.444h2.446v-2.444h2.446v-2.444h-2.446V169.548z"/>
		<path fill="#03476B" d="M279.133,185.099h2.443v2.444h-2.443V185.099z"/>
		<path fill="#03476B" d="M336.705,233.625h2.445v2.446h-2.445V233.625z"/>
		<path fill="#03476B" d="M246.124,189.639h2.446v2.444h-2.446V189.639z"/>
		<path fill="#03476B" d="M255.346,198.501h2.443v2.443h-2.443V198.501z"/>
		<path fill="#03476B" d="M218.007,198.501h2.446v2.443h-2.446V198.501z"/>
		<path fill="#03476B" d="M248.57,194.072h2.446v2.444h-2.446V194.072z"/>
		<path fill="#03476B" d="M204.695,217.278h2.443v2.445h-2.443V217.278z"/>
		<circle fill="#03476B" cx="284.612" cy="223.365" r="1.258"/>
		<circle fill="#03476B" cx="253.884" cy="168.642" r="1.259"/>
		<circle fill="#03476B" cx="329.891" cy="266.967" r="1.258"/>
		<path fill="#03476B" d="M265.733,220.561c0,0.696,0.563,1.26,1.258,1.26s1.26-0.564,1.26-1.26v-1.996l3.039-3.039h1.995
			c0.695,0,1.257-0.563,1.257-1.257c0-0.696-0.562-1.259-1.257-1.259h-1.995l-3.039-3.037v-1.997c0-0.696-0.564-1.259-1.26-1.259
			s-1.258,0.563-1.258,1.259v1.997l-3.038,3.036h-1.995c-0.693,0-1.258,0.564-1.258,1.26c0,0.694,0.564,1.257,1.258,1.257h1.995
			l3.038,3.039V220.561z M264.994,214.27l1.996-1.997l1.995,1.997l-1.995,1.995L264.994,214.27z"/>
	</g>
</g>
</svg>
