<?xml version="1.0" encoding="utf-8"?>
<!-- Generator: Adobe Illustrator 16.0.0, SVG Export Plug-In . SVG Version: 6.00 Build 0)  -->
<!DOCTYPE svg PUBLIC "-//W3C//DTD SVG 1.1//EN" "http://www.w3.org/Graphics/SVG/1.1/DTD/svg11.dtd">
<svg version="1.1" id="Layer_1" xmlns:svgjs="http://svgjs.com/svgjs"
	 xmlns="http://www.w3.org/2000/svg" xmlns:xlink="http://www.w3.org/1999/xlink" x="0px" y="0px" width="512px" height="512px"
	 viewBox="0 0 512 512" enable-background="new 0 0 512 512" xml:space="preserve">
<g opacity="0.3">
	<g>
		<g>
			<g>
				<g>
					<g>
						<g>
							<path fill="#FFFFFF" d="M487.228,109.294l-1.308-25.891l-25.779-3.263c-1.973-6.26-4.808-12.122-8.355-17.466l13.759-21.914
								L446.18,23.385l-20.574,15.8c-5.712-2.966-11.874-5.175-18.346-6.492l-5.869-25.134l-26.079,1.32l-3.305,25.597
								c-6.307,1.964-12.214,4.782-17.598,8.31L332.347,29.14L314.832,48.38l15.898,20.414c-2.992,5.673-5.221,11.793-6.553,18.22
								l-25.318,5.845l1.308,25.891l25.779,3.262c1.973,6.261,4.808,12.123,8.356,17.466l-13.76,21.915l19.365,17.375l20.573-15.799
								c5.713,2.966,11.874,5.175,18.347,6.492l5.868,25.134l26.077-1.318l3.305-25.598c6.307-1.963,12.215-4.781,17.599-8.309
								l22.063,13.645l17.514-19.239l-15.898-20.415c2.992-5.673,5.222-11.792,6.553-18.219L487.228,109.294z M394.86,137.03
								c-20.001,1.011-37.029-14.268-38.032-34.124s14.397-36.773,34.398-37.784c20-1.011,37.029,14.268,38.032,34.124
								S414.862,136.019,394.86,137.03z"/>
						</g>
						<g>
							<g>
								<path fill="#C0E9FF" d="M183.934,289.263l163.463,71.669l72.782-166.002l-30.046-77.134L280.238,69.613L183.934,289.263z"/>
								<g>
									<path fill="#C0E9FF" d="M379.867,194.93l-66.283,151.178l33.813,14.824l72.782-166.002l-18.894-48.505L379.867,194.93z"/>
								</g>
								<path fill="#FFFFFF" d="M390.133,117.797l-23.604,53.437l53.649,23.697L390.133,117.797z"/>
							</g>
						</g>
					</g>
					<g>
						<g>
							<path fill="#96E1FF" d="M338.993,271.487h129.195V400.27H338.993V271.487z"/>
							<path fill="#37A1DA" d="M499.957,366.492l-31.769,33.779V271.487l31.769-33.779V366.492z"/>
							<path fill="#37A1DA" d="M468.189,271.487H338.993l31.771-33.779h129.193L468.189,271.487z"/>
						</g>
					</g>
					<path fill="#FFFFFF" d="M386.256,489.781l14.929-14.942l-12.12-17.36c2.705-4.613,4.698-9.531,5.986-14.596l20.763-3.664
						l-0.087-21.199l-20.792-3.796c-1.33-5.073-3.363-10.004-6.105-14.635l11.979-17.283l-15.051-15.037l-17.273,11.994
						c-4.634-2.738-9.565-4.767-14.64-6.092l-3.814-20.79l-21.199-0.067l-3.646,20.766c-5.063,1.293-9.979,3.29-14.591,5.999
						l-17.371-12.104l-14.929,14.942l12.12,17.36c-2.705,4.614-4.697,9.532-5.986,14.597l-20.763,3.664l0.087,21.199l20.793,3.796
						c1.33,5.073,3.362,10.003,6.104,14.634l-11.979,17.284l15.052,15.037l17.273-11.995c4.634,2.738,9.566,4.768,14.641,6.093
						l3.814,20.79l21.198,0.067l3.646-20.766c5.063-1.293,9.979-3.291,14.591-6L386.256,489.781z M320.982,447.152
						c-10.478-10.468-10.546-27.384-0.154-37.786c10.392-10.401,27.309-10.347,37.785,0.12s10.546,27.384,0.154,37.785
						S331.458,457.619,320.982,447.152z"/>
				</g>
				<g>
					<path fill="#37A1DA" d="M234.99,58.21c-1.234,0-2.471,0.01-3.712,0.04c-82.361,1.949-149.165,70.013-149.944,152.702
						c-0.561,59.475,32.429,111.256,81.119,137.478v25.915c0,10.582,8.546,19.16,19.089,19.16h53.448V58.21z"/>
					<path fill="#FFFFFF" d="M234.99,393.504h-53.448v42.265c0,18.985,15.39,34.375,34.375,34.375h19.073V393.504z"/>
				</g>
			</g>
			<g>
				<path fill="#FFFFFF" d="M395.051,442.882l20.763-3.664l-0.087-21.199l-20.792-3.796c-1.33-5.073-3.363-10.004-6.105-14.635
					l11.979-17.283l-15.052-15.037l-17.273,11.993c-4.454-2.632-9.186-4.602-14.054-5.928c16.542,13.49,27.112,34.026,27.112,57.036
					c0,19.924-7.934,37.984-20.796,51.233c2.791-1.081,5.516-2.385,8.139-3.926l17.371,12.104l14.929-14.942l-12.12-17.36
					C391.77,452.864,393.762,447.947,395.051,442.882L395.051,442.882z"/>
			</g>
		</g>
		<g>
			<path fill="#03476B" d="M507.488,237.331c-0.195-3.942-3.563-7.182-7.53-7.182H412.99l14.111-32.184
				c0.793-1.809,0.838-3.939,0.121-5.779l-7.225-18.546c4.021-1.477,7.921-3.279,11.653-5.403l18.114,11.203
				c3.349,1.867,6.537,1.42,9.564-1.341l17.515-19.238c2.477-2.721,2.635-6.829,0.375-9.732l-13.007-16.701
				c1.595-3.559,2.912-7.228,3.945-10.976l20.771-4.795c3.57-0.823,6.034-4.088,5.849-7.747l-1.309-25.889
				c-0.184-3.658-2.966-6.656-6.599-7.117l-21.148-2.677c-1.405-3.624-3.087-7.14-5.032-10.521l11.256-17.927
				c1.956-3.116,1.386-7.188-1.354-9.645L451.228,17.76c-2.709-2.431-6.766-2.585-9.651-0.369l-16.892,12.972
				c-3.609-1.596-7.328-2.914-11.129-3.941l-4.805-20.579c-0.832-3.561-4.103-6.036-7.742-5.83L374.93,1.329
				c-3.651,0.185-6.646,2.956-7.115,6.581l-2.706,20.959c-3.677,1.407-7.245,3.093-10.673,5.045l-18.114-11.203
				c-3.096-1.913-7.115-1.352-9.565,1.341L309.241,43.29c-2.477,2.72-2.635,6.829-0.374,9.732l13.006,16.7
				c-1.239,2.768-2.296,5.605-3.197,8.49l-35.403-15.521c-4.393-1.453-7.711-0.157-9.957,3.887l-30.05,68.539V17.702
				c0-9.772-15.117-9.772-15.117,0v33.107c-51.805,2.189-99.584,29.562-128.268,73.68c-5.149,7.92,7.08,16.843,12.675,8.239
				c25.894-39.829,68.916-64.61,115.593-66.791v320.008h-46.605c-6.358,0-11.53-5.204-11.53-11.602v-25.915
				c0-2.781-1.526-5.337-3.975-6.656c-48.102-25.904-77.662-76.005-77.146-130.751c0.135-14.308,2.357-28.459,6.604-42.062
				c2.913-9.328-11.517-13.836-14.43-4.506c-4.688,15.016-7.142,30.635-7.29,46.425c-0.555,58.853,30.413,112.84,81.119,141.992
				v21.473c0,12.1,8.066,22.341,19.089,25.617v35.807c0,23.122,18.812,41.934,41.934,41.934h12.23v26.74
				c0,9.772,15.117,9.772,15.117,0v-180.91l77.016,33.767l-1.732,9.872c-2.543,0.864-5.025,1.885-7.433,3.058l-13.572-9.456
				c-3.004-2.094-7.078-1.733-9.668,0.86l-14.928,14.941c-2.59,2.591-2.947,6.665-0.851,9.669l9.469,13.563
				c-1.171,2.41-2.189,4.892-3.052,7.437l-16.162,2.853c-3.624,0.64-6.259,3.795-6.245,7.474l0.087,21.198
				c0.015,3.64,2.621,6.752,6.201,7.405l16.26,2.969c0.888,2.577,1.937,5.094,3.14,7.535l-9.336,13.47
				c-2.082,3.004-1.716,7.07,0.871,9.652l15.05,15.038c2.585,2.583,6.649,2.946,9.654,0.86l13.462-9.348
				c2.441,1.201,4.959,2.248,7.537,3.134l2.983,16.258c0.657,3.579,3.771,6.183,7.41,6.193l21.199,0.066h0.023
				c3.669,0,6.811-2.635,7.445-6.251l2.838-16.165c2.543-0.863,5.024-1.885,7.433-3.058l13.57,9.456
				c3.006,2.096,7.08,1.734,9.668-0.859l14.929-14.941c2.589-2.592,2.946-6.666,0.851-9.669l-9.47-13.563
				c1.171-2.409,2.19-4.892,3.052-7.437l16.162-2.852c3.623-0.64,6.259-3.795,6.245-7.474l-0.086-21.199
				c-0.015-3.639-2.621-6.751-6.201-7.405l-15.284-2.789c21.633-0.098,43.603-0.101,64.964-0.101c2.501,0.47,4.812-0.278,6.93-2.244
				l31.769-33.78c1.318-1.402,2.053-3.254,2.053-5.179V237.708C507.516,237.581,507.494,237.458,507.488,237.331L507.488,237.331z
				 M482.472,245.266l-17.222,18.313H356.808l17.223-18.313H482.472z M397.176,115.052c-0.713-1.83-2.207-3.39-4.008-4.178
				L364.48,98.297c1.37-13.776,12.765-24.9,27.128-25.626c15.827-0.769,29.311,11.296,30.103,26.957
				c0.649,12.839-7.512,24.385-19.483,28.393L397.176,115.052z M389.694,137.497l8.164,20.957l8.636,22.169l-29.995-13.249
				L389.694,137.497z M336.693,64.148l-11.985-15.39l9.002-9.889l16.724,10.343c2.497,1.543,5.661,1.503,8.118-0.105
				c4.875-3.195,10.158-5.689,15.702-7.415c2.821-0.877,4.871-3.319,5.25-6.249l2.496-19.335l13.467-0.68l4.432,18.983
				c0.672,2.878,2.959,5.1,5.854,5.689c5.687,1.156,11.194,3.105,16.369,5.794c2.605,1.353,5.76,1.073,8.087-0.714l15.596-11.977
				l9.953,8.93l-10.374,16.522c-1.58,2.517-1.538,5.726,0.105,8.201c3.209,4.832,5.713,10.065,7.443,15.557
				c0.887,2.815,3.332,4.856,6.261,5.228l19.498,2.468l0.67,13.245l-19.151,4.421c-2.876,0.664-5.103,2.942-5.701,5.832
				c-1.167,5.637-3.131,11.097-5.837,16.226c-1.386,2.629-1.104,5.825,0.722,8.171l11.986,15.391l-9.003,9.889l-16.724-10.343
				c-2.497-1.543-5.661-1.503-8.117,0.104c-4.087,2.678-8.459,4.854-13.027,6.507l-6.795-17.442
				c17.923-6.338,30.074-23.819,29.092-43.245c-1.212-23.987-21.828-42.512-45.962-41.291c-20.243,1.023-36.619,15.62-40.658,34.456
				l-17.575-7.706c1.171-4.143,2.779-8.165,4.804-12.005C338.801,69.69,338.519,66.493,336.693,64.148L336.693,64.148z
				 M215.917,462.585c-14.787,0-26.816-12.029-26.816-26.816v-34.706h39.047v61.522H215.917z M243.266,172.764l40.859-93.193
				l96.031,42.105l-20.541,46.502c-1.467,4.39-0.18,7.711,3.859,9.969L410.23,198.8l-13.745,31.351h-25.722
				c-2.086,0-4.078,0.86-5.506,2.379l-31.769,33.78c-1.559,1.656-2.377,6.073-2.184,8.455v69.998l-1.982-0.006l-86.057-37.73
				V172.764z M408.23,432.881l-14.491,2.558c-2.927,0.517-5.279,2.7-6.012,5.579c-1.133,4.453-2.876,8.705-5.182,12.638
				c-1.493,2.547-1.367,5.729,0.323,8.149l8.495,12.17l-5.979,5.985l-12.179-8.486c-2.422-1.688-5.605-1.81-8.15-0.315
				c-3.928,2.31-8.179,4.056-12.631,5.193c-2.88,0.734-5.061,3.089-5.574,6.017l-2.545,14.495l-8.554-0.027l-2.683-14.615
				c-0.529-2.887-2.684-5.207-5.523-5.948c-4.472-1.168-8.745-2.947-12.705-5.286c-2.543-1.503-5.729-1.386-8.156,0.299
				l-12.087,8.393l-6.118-6.11l8.382-12.095c1.683-2.428,1.797-5.613,0.292-8.156c-2.344-3.959-4.126-8.232-5.298-12.702
				c-0.745-2.839-3.066-4.99-5.954-5.519l-14.617-2.669l-0.035-8.553l14.49-2.558c2.927-0.518,5.279-2.7,6.012-5.579
				c1.133-4.454,2.877-8.706,5.183-12.638c1.492-2.547,1.366-5.729-0.323-8.149l-8.496-12.17l5.98-5.985l12.177,8.485
				c2.421,1.689,5.604,1.812,8.149,0.315c3.932-2.309,8.182-4.057,12.634-5.193c2.879-0.734,5.06-3.089,5.573-6.017l2.544-14.495
				l8.555,0.027l2.682,14.615c0.53,2.888,2.684,5.207,5.523,5.949c4.473,1.168,8.747,2.946,12.705,5.286
				c2.544,1.503,5.73,1.387,8.156-0.3l12.087-8.392l6.117,6.11l-8.382,12.094c-1.684,2.429-1.797,5.614-0.293,8.156
				c2.344,3.96,4.126,8.233,5.299,12.702c0.744,2.839,3.065,4.991,5.954,5.52l14.617,2.668L408.23,432.881z M475.769,381.179
				c-0.003-7.442-0.021-25.83-0.021-25.83c0-9.772-15.117-9.772-15.117,0v37.228c-19.082,0.001-38.565,0.015-57.813,0.099
				l4.203-6.066c2.082-3.004,1.716-7.069-0.87-9.652L391.1,361.92c-2.586-2.583-6.65-2.947-9.653-0.861l-13.462,9.348
				c-2.441-1.201-4.959-2.247-7.537-3.133l-2.982-16.258c-0.953-5.19-6.433-6.868-10.938-6.206c-0.123-8.396,0.786-52.292,0-65.763
				h114.104v36.84c0,9.772,15.117,9.772,15.117,0c0,0,0.023-28.419,0.023-41.427l16.629-17.681v106.718L475.769,381.179z"/>
			<path fill="#03476B" d="M339.712,394.043c-0.037-0.001-0.074-0.001-0.111-0.001c-9.124,0-17.687,3.544-24.12,9.982
				c-6.46,6.466-9.997,15.074-9.96,24.24c0.037,9.146,3.631,17.753,10.119,24.234c6.488,6.482,15.097,10.068,24.243,10.098h0.111
				c9.124,0,17.687-3.544,24.121-9.982c6.46-6.466,9.997-15.075,9.96-24.24c-0.037-9.146-3.632-17.752-10.118-24.233
				C357.467,397.658,348.857,394.072,339.712,394.043L339.712,394.043z M353.419,441.929c-3.592,3.595-8.387,5.605-13.49,5.55
				c-5.128-0.017-9.96-2.032-13.605-5.674c-3.646-3.644-5.665-8.474-5.687-13.602c-0.021-5.107,1.946-9.899,5.538-13.495
				c3.591-3.595,8.404-5.583,13.489-5.55c5.128,0.017,9.96,2.031,13.606,5.675c3.646,3.643,5.665,8.473,5.686,13.601
				C358.978,433.543,357.011,438.334,353.419,441.929L353.419,441.929z"/>
			<path fill="#03476B" d="M102.488,87c6.345,0,9.832-8.415,5.346-12.902L82.06,48.32c-6.909-6.912-17.601,3.778-10.689,10.688
				l25.771,25.778C98.618,86.262,100.554,87,102.488,87z"/>
			<path fill="#03476B" d="M48.261,206.081H11.814c-9.772,0-9.772,15.117,0,15.117h36.448
				C58.034,221.198,58.034,206.081,48.261,206.081z"/>
			<path fill="#03476B" d="M99.448,341.539l-25.772,25.777c-6.91,6.91,3.78,17.601,10.689,10.688l25.772-25.777
				C117.048,345.316,106.358,334.628,99.448,341.539z"/>
		</g>
	</g>
</g>
</svg>
