<?xml version="1.0" encoding="utf-8"?>
<!-- Generator: Adobe Illustrator 16.0.0, SVG Export Plug-In . SVG Version: 6.00 Build 0)  -->
<!DOCTYPE svg PUBLIC "-//W3C//DTD SVG 1.1//EN" "http://www.w3.org/Graphics/SVG/1.1/DTD/svg11.dtd">
<svg version="1.1" id="Layer_1" xmlns:svgjs="http://svgjs.com/svgjs"
	 xmlns="http://www.w3.org/2000/svg" xmlns:xlink="http://www.w3.org/1999/xlink" x="0px" y="0px" width="512px" height="512px"
	 viewBox="0 0 512 512" enable-background="new 0 0 512 512" xml:space="preserve">
<g opacity="0.3">
	<g>
		<g>
			<path fill="#37A1DA" d="M499.142,280.546l-51.672-64.391c-10.489-13.071-30.383-13.071-40.872,0l-51.671,64.391
				c-12.824,15.133-0.949,40.126,18.971,39.548h22.469c-23.534,65.187-86.364,111.576-159.905,110.553
				c-92.015-1.28-166.219-77.6-165.035-169.616c1.177-91.467,75.676-165.237,167.421-165.237c15.086,0,29.705,1.994,43.606,5.735
				c7.293,1.963,15.074-0.113,20.414-5.453l26.82-26.82c6.367-6.367,4.2-17.194-4.146-20.571
				c-26.472-10.711-55.371-16.665-85.652-16.799C112.05,31.32,7.499,135.388,7.499,263.228
				c0,127.771,103.576,231.346,231.347,231.346c108.142,0,198.944-74.209,224.286-174.48h17.038
				C500.094,320.671,511.961,295.677,499.142,280.546L499.142,280.546z"/>
			<g>
				<path fill="#37A1DA" d="M71.425,261.03c1.115-86.658,68.051-157.422,153.108-164.622c-4.679-0.394-9.405-0.615-14.186-0.615
					c-91.745,0-166.245,73.772-167.421,165.237c-1.185,92.016,73.02,168.336,165.034,169.616c5.634,0.078,11.204-0.123,16.698-0.59
					C138.187,422.743,70.292,349.077,71.425,261.03L71.425,261.03z"/>
				<path fill="#37A1DA" d="M297.041,48.682c8.347,3.378,10.515,14.204,4.147,20.571l-26.82,26.821
					c-1.066,1.065-2.233,1.996-3.472,2.796c3.901,0.756,7.757,1.635,11.556,2.657c7.293,1.963,15.074-0.113,20.414-5.453
					l26.82-26.82c6.368-6.367,4.2-17.194-4.146-20.571c-26.472-10.711-55.371-16.665-85.652-16.799
					c-5.119-0.023-10.194,0.141-15.233,0.449C250.116,33.887,274.464,39.547,297.041,48.682z"/>
				<path fill="#37A1DA" d="M499.142,280.546l-51.672-64.391c-9.617-11.985-27.136-12.972-38.068-2.979
					c5.896,1.095,11.484,4.205,15.613,9.351l45.628,58.02c12.82,15.132,0.953,40.126-18.971,39.548h-17.038
					C410.42,415.9,326.446,487.907,224.685,494.131c4.686,0.282,9.404,0.443,14.161,0.443c108.142,0,198.945-74.209,224.286-174.48
					h17.038C500.094,320.671,511.962,295.677,499.142,280.546L499.142,280.546z"/>
			</g>
			<g>
				<path fill="#37A1DA" d="M481.017,67.229l-210.711,210.71c-3.952,3.952-8.904,6.765-14.333,8.131l-47.103,11.921l11.912-47.11
					c1.367-5.429,4.179-10.382,8.132-14.334l210.709-210.71c11.429-11.429,29.965-11.436,41.4,0
					c5.709,5.71,8.568,13.209,8.568,20.691C489.593,54.028,486.734,61.51,481.017,67.229L481.017,67.229z"/>
				<path fill="#37A1DA" d="M481.024,25.837c-9.471-9.471-23.809-11.084-34.949-4.871c2.311,1.289,4.486,2.907,6.45,4.871
					c5.71,5.71,8.57,13.209,8.57,20.691c0,7.499-2.859,14.982-8.577,20.7l-210.71,210.711c-3.953,3.952-8.904,6.765-14.333,8.131
					l-16.655,4.215l-1.948,7.706l47.103-11.921c5.429-1.366,10.382-4.179,14.333-8.131l210.709-210.71
					c5.717-5.718,8.576-13.201,8.576-20.7C489.593,39.046,486.734,31.548,481.024,25.837L481.024,25.837z"/>
				<path fill="#F07281" d="M481.017,67.229l-34.043,34.042L405.582,59.88l34.042-34.042c11.429-11.429,29.965-11.436,41.4,0
					c5.709,5.71,8.568,13.209,8.568,20.691C489.593,54.028,486.734,61.51,481.017,67.229z"/>
				<path fill="#EB5569" d="M481.024,25.837c-9.471-9.471-23.809-11.084-34.949-4.871c2.311,1.289,4.486,2.907,6.45,4.871
					c5.71,5.71,8.57,13.209,8.57,20.691c0,7.499-2.859,14.982-8.577,20.7l-19.792,19.793l14.249,14.249l34.042-34.042
					c5.717-5.718,8.576-13.201,8.576-20.7C489.593,39.046,486.734,31.548,481.024,25.837z"/>
				<path fill="#FFFFFF" d="M282.124,266.121l-11.818,11.818c-3.952,3.952-8.904,6.765-14.333,8.131l-47.103,11.921l11.912-47.11
					c1.367-5.429,4.18-10.382,8.132-14.334l11.818-11.818L282.124,266.121z"/>
				<path fill="#FFFFFF" d="M241.808,277.939c-3.953,3.952-8.904,6.765-14.333,8.131l-16.655,4.215l-1.948,7.706l47.103-11.921
					c5.429-1.366,10.382-4.179,14.333-8.131l11.818-11.818l-14.249-14.25L241.808,277.939z"/>
			</g>
		</g>
		<g>
			<path fill="#03476B" d="M504.931,275.778l-51.612-64.316c-6.431-8.014-16.011-12.609-26.284-12.609c0,0,0,0-0.001,0
				c-10.273,0-19.854,4.596-26.285,12.609l-51.612,64.317c-7.838,9.315-9.27,22.234-3.73,33.746
				c5.513,11.46,16.459,18.354,28.593,18.068h11.3c-25.388,57.782-82.792,95.569-146.489,95.569
				c-90.659,0.213-161.44-76.032-159.884-162.036c0.544-42.28,17.42-81.942,47.52-111.68
				c30.126-29.764,70.045-46.154,112.402-46.154c14.137,0,28.151,1.843,41.657,5.479c9.852,2.651,20.454-0.182,27.665-7.393
				l26.821-26.82c4.782-4.783,6.833-11.598,5.485-18.229c-1.345-6.612-5.876-12.07-12.123-14.598
				c-28.111-11.376-57.864-17.212-88.433-17.348c-49.201-0.188-96.537,14.508-136.944,42.583c-3.401,2.362-4.243,7.036-1.88,10.438
				s7.035,4.244,10.437,1.88c37.589-26.117,81.591-39.904,127.315-39.904c0.335,0,0.67,0.001,1.005,0.002
				c28.653,0.126,56.536,5.595,82.873,16.251c2.265,0.917,2.888,2.88,3.051,3.682c0.164,0.811,0.357,2.885-1.394,4.636
				l-26.821,26.82c-3.431,3.431-8.475,4.775-13.161,3.515c-14.776-3.978-30.103-5.994-45.556-5.994
				c-46.33,0-89.993,17.93-122.944,50.483c-32.922,32.526-51.381,75.909-51.977,122.157c-1.31,99.11,80.119,177.526,174.884,177.229
				c73.623-0.001,139.571-46.166,164.61-115.521c1.214-3.587-0.606-9.497-7.055-10.046h-22.469c-0.072,0-0.146,0.001-0.218,0.003
				c-7.397,0.207-12.464-4.807-14.759-9.576c-2.313-4.808-3.073-11.962,1.728-17.628c0.044-0.051,0.086-0.103,0.128-0.155
				l51.671-64.39c3.568-4.448,8.886-6.999,14.588-6.998c5.702,0,11.019,2.551,14.586,6.998l51.673,64.39
				c0.041,0.053,0.084,0.104,0.127,0.154c4.802,5.667,4.039,12.822,1.728,17.63c-2.294,4.77-7.388,9.79-14.759,9.575
				c-0.073-0.002-0.146-0.003-0.219-0.003h-7.185l4.021-14.554c1.103-3.993-1.239-8.123-5.232-9.226
				c-3.99-1.104-8.122,1.239-9.227,5.231c-24.03,116.624-110.992,191.787-223.701,193.028c-59.793,0-116.006-23.284-158.284-65.563
				c-42.278-42.279-65.562-98.491-65.562-158.283c0-31.212,6.35-61.441,18.871-89.847c12.094-27.434,29.328-51.858,51.226-72.595
				c3.007-2.849,3.138-7.595,0.288-10.603c-2.848-3.007-7.594-3.136-10.602-0.289c-23.354,22.115-41.735,48.168-54.639,77.436
				C6.778,197.655,0,229.92,0,263.228c0,63.799,24.845,123.778,69.956,168.89s105.092,69.955,168.89,69.955
				c104.493,1.847,203.066-73.626,230.049-174.48h11.174c12.151,0.296,23.081-6.608,28.594-18.067
				C514.2,298.014,512.77,285.094,504.931,275.778L504.931,275.778z"/>
			<path fill="#03476B" d="M235.434,219.421c-8.201,8.409-18.924,16.693-21.923,29.622l-10.481,41.449h-77.344
				c-4.143,0-7.499,3.358-7.499,7.5s3.356,7.499,7.499,7.499h83.184c0.225-0.009,0.819-0.006,1.84-0.229l47.094-11.919
				c6.736-1.695,12.895-5.188,17.807-10.101l127.688-127.689c2.929-2.929,2.929-7.678,0-10.605c-2.931-2.929-7.678-2.929-10.606,0
				L282.124,255.515l-30.785-30.787L381.516,94.552l36.088,36.09c2.682,1.854,6.58,3.796,10.606,0l58.109-58.108
				c13.641-13.051,14.605-37.956,0.008-51.998c-13.188-13.462-37.517-14.896-52.008,0L235.434,219.421z M271.518,266.121
				l-6.515,6.516c-2.996,2.996-6.753,5.127-10.871,6.164l-34.908,8.835l8.832-34.924c0.818-5.679,8.026-13.075,12.677-17.377
				L271.518,266.121z M405.582,70.485l30.785,30.785l-13.46,13.461l-30.785-30.786L405.582,70.485z M444.927,31.139
				c8.489-8.49,22.306-8.49,30.794,0c7.698,7.442,8.874,22.128-0.008,30.786l-28.738,28.738l-30.786-30.785L444.927,31.139z"/>
			<path fill="#03476B" d="M286.124,323.682c-4.143,0-7.5,3.358-7.5,7.5s3.357,7.499,7.5,7.499h18.313
				c4.143,0,7.499-3.357,7.499-7.499s-3.356-7.5-7.499-7.5H286.124z"/>
			<path fill="#03476B" d="M250.981,323.682H147.166c-4.144,0-7.5,3.358-7.5,7.5s3.356,7.499,7.5,7.499h103.814
				c4.143,0,7.499-3.357,7.499-7.499S255.123,323.682,250.981,323.682z"/>
		</g>
	</g>
</g>
</svg>
