<svg xmlns="http://www.w3.org/2000/svg" version="1.1" xmlns:xlink="http://www.w3.org/1999/xlink" xmlns:svgjs="http://svgjs.com/svgjs" width="512" height="512" x="0" y="0" viewBox="0 0 512.028 512.028" style="enable-background:new 0 0 512 512" xml:space="preserve" class=""><g><g xmlns="http://www.w3.org/2000/svg"><g><path d="m499.169 280.561-51.674-64.394c-10.49-13.072-30.385-13.072-40.875 0l-51.674 64.394c-12.824 15.134-.949 40.128 18.972 39.55h22.47c-23.535 65.19-86.369 111.582-159.914 110.559-92.02-1.281-166.228-77.604-165.044-169.626 1.177-91.471 75.68-165.246 167.43-165.246 15.087 0 29.707 1.994 43.609 5.736 7.293 1.963 15.075-.114 20.415-5.454l26.822-26.822c6.367-6.367 4.2-17.195-4.147-20.572-26.473-10.712-55.374-16.666-85.657-16.8-127.846-.564-232.402 103.51-232.402 231.357 0 127.777 103.582 231.358 231.359 231.358 108.148 0 198.956-74.213 224.299-174.49h17.039c19.925.577 31.793-24.417 18.972-39.55z" fill="#37A1DA" data-original="#bbec6c" style="" class=""></path><g fill="#A2E62E"><path d="m71.429 261.044c1.115-86.663 68.054-157.43 153.117-164.631-4.679-.393-9.406-.615-14.187-.615-91.75 0-166.254 73.776-167.43 165.246-1.184 92.021 73.024 168.345 165.044 169.626 5.634.078 11.204-.124 16.699-.59-86.478-7.314-154.376-80.984-153.243-169.036z" fill="#37A1DA" data-original="#a2e62e" style="" class=""></path><path d="m297.058 48.685c8.347 3.378 10.515 14.205 4.147 20.572l-26.822 26.823c-1.066 1.066-2.233 1.996-3.471 2.796 3.901.756 7.757 1.635 11.556 2.658 7.293 1.963 15.075-.114 20.415-5.454l26.822-26.822c6.368-6.367 4.2-17.195-4.147-20.572-26.473-10.712-55.374-16.666-85.657-16.8-5.119-.023-10.195.141-15.234.449 25.463 1.554 49.812 7.214 72.391 16.35z" fill="#37A1DA" data-original="#a2e62e" style="" class=""></path><path d="m499.169 280.561-51.674-64.394c-9.618-11.986-27.138-12.973-38.071-2.98 5.897 1.095 11.485 4.205 15.614 9.351l45.631 58.023c12.821 15.133.953 40.128-18.972 39.55h-17.039c-24.215 95.812-108.195 167.822-209.961 174.046 4.686.283 9.405.444 14.162.444 108.148 0 198.956-74.213 224.299-174.49h17.039c19.925.577 31.793-24.418 18.972-39.55z" fill="#37A1DA" data-original="#a2e62e" style="" class=""></path></g><g><path d="m481.043 67.233-210.722 210.721c-3.953 3.953-8.905 6.765-14.334 8.132l-47.105 11.921 11.913-47.113c1.367-5.429 4.179-10.382 8.132-14.334l210.721-210.722c11.429-11.429 29.966-11.436 41.402 0 5.71 5.71 8.569 13.21 8.569 20.693.001 7.5-2.858 14.983-8.576 20.702z" fill="#37A1DA" data-original="#0593fc" style="" class=""></path><path d="m481.05 25.838c-9.471-9.471-23.81-11.085-34.951-4.871 2.311 1.289 4.487 2.907 6.451 4.871 5.71 5.71 8.57 13.21 8.57 20.693 0 7.499-2.859 14.983-8.577 20.701l-210.722 210.722c-3.953 3.953-8.905 6.765-14.334 8.132l-16.656 4.215-1.948 7.706 47.105-11.921c5.429-1.367 10.382-4.179 14.334-8.132l210.72-210.721c5.718-5.718 8.577-13.202 8.577-20.701.001-7.484-2.858-14.983-8.569-20.694z" fill="#37A1DA" data-original="#0181fa" style="" class=""></path><path d="m481.043 67.233-34.044 34.044-41.394-41.394 34.044-34.044c11.429-11.429 29.966-11.436 41.402 0 5.71 5.71 8.569 13.21 8.569 20.693 0 7.499-2.859 14.982-8.577 20.701z" fill="#F07281" data-original="#f07281" style="" class=""></path><path d="m481.05 25.838c-9.471-9.471-23.81-11.085-34.951-4.871 2.311 1.289 4.487 2.907 6.451 4.871 5.71 5.71 8.57 13.21 8.57 20.693 0 7.499-2.859 14.983-8.577 20.701l-19.793 19.794 14.25 14.25 34.043-34.044c5.718-5.718 8.577-13.202 8.577-20.701 0-7.483-2.859-14.982-8.57-20.693z" fill="#EB5569" data-original="#eb5569" style="" class=""></path><path d="m282.14 266.135-11.819 11.819c-3.953 3.953-8.905 6.765-14.334 8.132l-47.105 11.921 11.913-47.113c1.367-5.429 4.179-10.382 8.132-14.334l11.819-11.819z" fill="#FFFFFF" data-original="#fff3be" style="" class=""></path><path d="m241.821 277.954c-3.953 3.953-8.905 6.765-14.334 8.132l-16.656 4.215-1.948 7.706 47.105-11.921c5.429-1.367 10.382-4.179 14.334-8.132l11.819-11.819-14.25-14.25z" fill="#FFFFFF" data-original="#ffec9c" style="" class=""></path></g></g><g><path d="m504.959 275.793-51.615-64.32c-6.431-8.014-16.012-12.61-26.286-12.61 0 0 0 0-.001 0-10.274 0-19.856 4.596-26.287 12.61l-51.615 64.321c-7.838 9.316-9.27 22.236-3.731 33.748 5.513 11.46 16.46 18.355 28.595 18.069h11.3c-25.389 57.786-82.796 95.575-146.497 95.575-90.664.213-161.449-76.037-159.893-162.045.544-42.283 17.421-81.947 47.522-111.686 30.128-29.765 70.049-46.157 112.409-46.157 14.137 0 28.153 1.843 41.659 5.479 9.853 2.652 20.456-.181 27.667-7.393l26.823-26.822c4.782-4.783 6.833-11.598 5.485-18.229-1.344-6.613-5.876-12.071-12.123-14.599-28.113-11.376-57.868-17.212-88.438-17.348-49.204-.188-96.542 14.508-136.952 42.585-3.401 2.363-4.243 7.037-1.88 10.438 2.364 3.402 7.036 4.245 10.438 1.88 37.59-26.118 81.595-39.906 127.322-39.906.335 0 .67.001 1.005.002 28.655.126 56.539 5.595 82.877 16.252 2.265.917 2.888 2.88 3.051 3.681.164.811.358 2.885-1.393 4.636l-26.823 26.822c-3.431 3.431-8.475 4.776-13.162 3.515-14.777-3.978-30.104-5.994-45.558-5.994-46.333 0-89.998 17.93-122.951 50.486-32.924 32.528-51.384 75.913-51.979 122.164-1.31 99.115 80.123 177.536 174.893 177.238 73.627-.001 139.579-46.169 164.619-115.528 1.214-3.587-.606-9.498-7.055-10.047h-22.47c-.072 0-.146.001-.218.003-7.397.207-12.464-4.807-14.759-9.576-2.313-4.808-3.074-11.963 1.727-17.629.044-.051.086-.103.128-.155l51.674-64.394c3.569-4.448 8.887-6.999 14.589-6.998 5.702 0 11.019 2.551 14.587 6.998l51.675 64.394c.042.052.084.104.127.154 4.802 5.667 4.04 12.823 1.728 17.631-2.294 4.769-7.388 9.79-14.76 9.575-.073-.002-.146-.003-.218-.003h-7.185l4.021-14.554c1.103-3.993-1.239-8.123-5.232-9.226-3.991-1.104-8.123 1.239-9.227 5.232-24.032 116.63-110.999 191.797-223.714 193.038-59.796 0-116.012-23.285-158.293-65.566s-65.565-98.496-65.565-158.291c0-31.214 6.35-61.445 18.872-89.852 12.095-27.435 29.33-51.861 51.229-72.599 3.007-2.848 3.137-7.595.288-10.603-2.848-3.007-7.595-3.136-10.603-.289-23.354 22.117-41.737 48.171-54.641 77.44-13.367 30.326-20.145 62.592-20.145 95.903 0 63.802 24.846 123.785 69.96 168.898 45.114 45.114 105.098 69.959 168.899 69.959 104.499 1.847 203.078-73.63 230.062-174.49h11.174c12.152.296 23.082-6.609 28.595-18.068 5.539-11.511 4.108-24.433-3.731-33.749z" fill="#03476B" data-original="#000000" style="" class=""></path><path d="m235.447 219.433c-8.202 8.409-18.925 16.694-21.924 29.623l-10.482 41.452h-77.348c-4.143 0-7.5 3.358-7.5 7.5s3.357 7.5 7.5 7.5h83.188c.224-.009.819-.006 1.84-.229l47.096-11.919c6.737-1.696 12.895-5.189 17.808-10.102l127.695-127.696c2.929-2.929 2.929-7.678 0-10.606-2.93-2.929-7.678-2.929-10.607 0l-110.573 110.573-30.787-30.788 130.184-130.184 36.09 36.091c2.682 1.854 6.58 3.797 10.607 0l58.112-58.111c13.642-13.052 14.607-37.958.008-52.001-13.188-13.463-37.518-14.896-52.01 0zm36.086 46.702-6.515 6.516c-2.997 2.997-6.754 5.128-10.872 6.165l-34.91 8.835 8.832-34.926c.819-5.679 8.027-13.075 12.678-17.377zm134.072-195.646 30.787 30.787-13.461 13.461-30.787-30.787zm39.347-39.348c8.489-8.491 22.306-8.491 30.795 0 7.699 7.443 8.875 22.129-.008 30.788l-28.74 28.74-30.787-30.787z" fill="#03476B" data-original="#000000" style="" class=""></path><path d="m286.14 323.7c-4.143 0-7.5 3.358-7.5 7.5s3.357 7.5 7.5 7.5h18.314c4.143 0 7.5-3.358 7.5-7.5s-3.357-7.5-7.5-7.5z" fill="#03476B" data-original="#000000" style="" class=""></path><path d="m250.994 323.7h-103.82c-4.143 0-7.5 3.358-7.5 7.5s3.357 7.5 7.5 7.5h103.82c4.143 0 7.5-3.358 7.5-7.5s-3.357-7.5-7.5-7.5z" fill="#03476B" data-original="#000000" style="" class=""></path></g></g></g></svg>