<?xml version="1.0" encoding="utf-8"?>
<!-- Generator: Adobe Illustrator 16.0.0, SVG Export Plug-In . SVG Version: 6.00 Build 0)  -->
<!DOCTYPE svg PUBLIC "-//W3C//DTD SVG 1.1//EN" "http://www.w3.org/Graphics/SVG/1.1/DTD/svg11.dtd">
<svg version="1.1" id="Layer_1" xmlns:svgjs="http://svgjs.com/svgjs"
	 xmlns="http://www.w3.org/2000/svg" xmlns:xlink="http://www.w3.org/1999/xlink" x="0px" y="0px" width="512px" height="512px"
	 viewBox="0 0 512 512" enable-background="new 0 0 512 512" xml:space="preserve">
<g>
	<path fill="#37A1DA" d="M333.952,512H64c-8.832,0-16-7.168-16-16c0-8.83,7.168-16,16-16h269.952c3.028,0,4.373-1.854,4.971-3.412
		c0.597-1.558,0.853-3.841-1.387-5.846L195.648,342.338c-11.541-10.411-15.381-26.539-9.792-41.067
		c5.611-14.549,19.285-23.937,34.859-23.937h184.617c8.832,0,16,7.168,16,16s-7.168,16.001-16,16.001H220.715
		c-3.029,0-4.374,1.854-4.971,3.412c-0.599,1.559-0.854,3.841,1.387,5.847l141.888,128.404c11.521,10.41,15.381,26.538,9.792,41.066
		C363.199,502.614,349.526,512,333.952,512L333.952,512z"/>
	<path fill="#03476B" d="M79,479.668c-3.861,0-7.724-1.388-10.795-4.182C66.051,473.503,15,426.312,15,376.99
		C15,339.508,43.715,309,79,309s64,30.508,64,68.012c0,49.322-51.051,96.491-53.206,98.476C86.723,478.28,82.862,479.668,79,479.668
		z"/>
	<path fill="#03476B" d="M405.332,277.334c-3.712,0-7.402-1.279-10.39-3.841c-3.945-3.37-96.276-83.307-96.276-165.504
		C298.666,48.469,346.517,0,405.332,0C464.149,0,512,48.448,512,107.989c0,82.197-92.331,162.134-96.277,165.504
		C412.736,276.053,409.045,277.334,405.332,277.334z"/>
	<path fill="#FFFFFF" d="M405.332,149.334c-23.529,0-42.666-19.137-42.666-42.667c0-23.529,19.137-42.667,42.666-42.667
		C428.863,64,448,83.136,448,106.667C448,130.198,428.864,149.334,405.332,149.334z"/>
	<path fill="#FFFFFF" d="M78,405.334c-16.72,0-30.316-13.598-30.316-30.316S61.282,344.702,78,344.702s30.315,13.598,30.315,30.315
		C108.317,391.736,94.719,405.334,78,405.334z"/>
</g>
</svg>
