<?xml version="1.0" encoding="utf-8"?>
<!-- Generator: Adobe Illustrator 16.0.0, SVG Export Plug-In . SVG Version: 6.00 Build 0)  -->
<!DOCTYPE svg PUBLIC "-//W3C//DTD SVG 1.1//EN" "http://www.w3.org/Graphics/SVG/1.1/DTD/svg11.dtd">
<svg version="1.1" id="Layer_1" xmlns:svgjs="http://svgjs.com/svgjs"
	 xmlns="http://www.w3.org/2000/svg" xmlns:xlink="http://www.w3.org/1999/xlink" x="0px" y="0px" width="512px" height="512px"
	 viewBox="0 0 512 512" enable-background="new 0 0 512 512" xml:space="preserve">
<g opacity="0.3">
	<g>
		<g>
			<circle fill="#FFFFFF" cx="160" cy="352" r="150"/>
			<path fill="#FFFFFF" d="M502,179.71c-2.097,2.096,11.002-10.999-42.431,42.42l-63.63-63.63l42.42-42.43L502,179.71z"/>
			<path fill="#37A1DA" d="M353.51,200.92l-42.43-42.43C323.716,145.854,425.737,43.833,438.36,31.21l42.43,42.431
				C277.723,276.731,518.153,36.278,353.51,200.92z"/>
			<path fill="#FFFFFF" d="M395.93,73.64l-42.42,42.43l-63.64-63.64c0.11-0.111,42.185-42.195,42.42-42.431L395.93,73.64z"/>
			<path fill="#37A1DA" d="M304.2,310.56c3.779,13.16,5.8,27.06,5.8,41.439c0,80.171-62.9,145.65-142.04,149.79
				C144.69,394.5,94.65,450.58,74.27,397.86c-12.45-32.21,26.41-57.51,26.41-87.27c0-16.721-11.4-34.83-54.45-56.341
				c26.32-30.609,64.78-50.479,107.91-52.14c-7.33,72.63,49.44,34.55,49.44,73.09c0,31.28-44.471,3.25-44.471,39.391
				c0,19.92,44.67,95.76,68.7,95.76C252.92,410.35,264.04,347.66,304.2,310.56L304.2,310.56z"/>
		</g>
		<g>
			<path fill="#03476B" d="M490.789,73.64c0-2.652-1.054-5.196-2.929-7.071l-42.43-42.43c-1.875-1.875-4.419-2.93-7.071-2.93
				s-5.196,1.055-7.071,2.93L395.93,59.498L339.361,2.929C337.485,1.053,334.942,0,332.289,0s-5.196,1.055-7.071,2.931
				l-42.419,42.429c-3.905,3.905-3.905,10.237,0,14.142l56.563,56.564l-28.282,28.283l-14.14-14.14
				c-3.905-3.904-10.236-3.904-14.142,0c-3.905,3.905-3.906,10.237,0,14.143c13.776,13.776,1.312,1.313,84.851,84.851
				c3.905,3.905,10.237,3.905,14.143,0c3.904-3.905,3.904-10.237,0-14.142l-14.14-14.14l28.283-28.282l56.563,56.563
				c3.904,3.903,10.232,3.906,14.141,0.003l1.843-1.842c0.558,1.445,1.105,2.892,1.639,4.338c1.912,5.182,7.663,7.831,12.845,5.919
				c5.181-1.912,7.831-7.663,5.919-12.844c-1.578-4.274-3.266-8.551-5.026-12.785l25.215-25.209c3.905-3.905,3.905-10.237,0-14.143
				l-56.568-56.569l35.357-35.358C489.736,78.836,490.789,76.292,490.789,73.64L490.789,73.64z M304.012,52.43l28.279-28.287
				l49.497,49.497l-28.282,28.282L304.012,52.43z M487.858,179.71l-28.285,28.281l-49.496-49.496l28.283-28.282L487.858,179.71z
				 M353.511,186.779l-28.288-28.288c0.675-0.675,109.46-109.462,113.137-113.139l28.288,28.288
				C461.494,78.793,358.486,181.804,353.511,186.779z"/>
			<path fill="#03476B" d="M472.599,440.624c-2.061,6.085-4.323,12.234-6.729,18.278c-2.042,5.132,0.464,10.947,5.596,12.988
				c5.113,2.034,10.939-0.446,12.987-5.595c2.533-6.366,4.918-12.847,7.09-19.261c1.771-5.23-1.035-10.906-6.267-12.678
				C480.044,432.587,474.368,435.393,472.599,440.624L472.599,440.624z"/>
			<path fill="#03476B" d="M486.547,384.132c-0.962,6.278-2.152,12.689-3.536,19.053c-1.173,5.396,2.251,10.723,7.646,11.896
				c5.396,1.174,10.724-2.25,11.896-7.646c1.471-6.766,2.735-13.586,3.761-20.272c0.837-5.459-2.91-10.563-8.369-11.398
				C492.49,374.923,487.385,378.674,486.547,384.132z"/>
			<path fill="#03476B" d="M500.761,264.216c-1.268-5.375-6.649-8.705-12.028-7.438c-5.375,1.267-8.706,6.652-7.438,12.028
				c1.476,6.259,2.776,12.648,3.869,18.991c0.938,5.442,6.106,9.095,11.553,8.158c5.442-0.937,9.095-6.108,8.157-11.552
				C503.713,277.661,502.328,270.869,500.761,264.216L500.761,264.216z"/>
			<path fill="#03476B" d="M509.797,345.947c0.076-6.094-0.043-13.36-0.403-20.615c-0.274-5.517-4.976-9.763-10.484-9.49
				c-5.516,0.273-9.765,4.968-9.491,10.483c0.342,6.851,0.453,13.752,0.382,19.367c-0.071,5.522,4.349,10.056,9.872,10.126
				c0.043,0,0.086,0.001,0.13,0.001C505.264,355.82,509.728,351.427,509.797,345.947L509.797,345.947z"/>
			<path fill="#03476B" d="M135.241,24.336c6.388-0.687,12.894-1.188,19.336-1.488c5.517-0.26,9.778-4.94,9.521-10.458
				c-0.259-5.518-4.92-9.779-10.458-9.521c-6.842,0.321-13.751,0.854-20.537,1.582c-5.491,0.59-9.464,5.521-8.875,11.011
				C124.822,20.977,129.774,24.925,135.241,24.336L135.241,24.336z"/>
			<path fill="#03476B" d="M269.295,38.251c5.215,1.705,10.886-1.117,12.61-6.398c1.716-5.25-1.149-10.896-6.398-12.611
				c-6.502-2.125-13.156-4.076-19.778-5.799c-5.346-1.394-10.806,1.813-12.196,7.158c-1.393,5.345,1.813,10.806,7.157,12.196
				C256.919,34.417,263.179,36.253,269.295,38.251z"/>
			<path fill="#03476B" d="M78.288,35.769c6.167-1.837,12.472-3.508,18.737-4.965c5.379-1.251,8.727-6.626,7.476-12.007
				c-1.251-5.379-6.63-8.722-12.006-7.475c-6.661,1.549-13.362,3.325-19.917,5.278c-5.293,1.577-8.307,7.146-6.729,12.438
				C67.43,34.346,73.011,37.344,78.288,35.769z"/>
			<path fill="#03476B" d="M24.371,57.375c5.729-2.928,11.625-5.719,17.522-8.294c5.063-2.209,7.374-8.104,5.164-13.166
				c-2.209-5.061-8.104-7.374-13.166-5.164c-6.269,2.736-12.534,5.702-18.624,8.814c-4.917,2.514-6.867,8.538-4.353,13.456
				C13.429,57.94,19.454,59.887,24.371,57.375z"/>
			<path fill="#03476B" d="M212.654,25.332c5.484,0.732,10.507-3.119,11.238-8.585c0.732-5.474-3.111-10.505-8.585-11.238
				c-6.767-0.904-13.663-1.616-20.496-2.112c-5.507-0.399-10.299,3.74-10.699,9.249c-0.399,5.508,3.74,10.298,9.249,10.699
				C199.793,23.811,206.284,24.48,212.654,25.332L212.654,25.332z"/>
			<circle fill="#03476B" cx="266" cy="458" r="10"/>
			<path fill="#03476B" d="M160,512c25.704,0,51.032-6,74.515-18.381c4.886-2.575,6.758-8.624,4.182-13.509
				c-2.575-4.886-8.625-6.758-13.509-4.182c-15.504,8.173-32.104,13.264-49.453,15.191c-15.472-61.755-41.826-68.688-63.184-74.299
				c-13.559-3.563-22.517-5.916-28.953-22.565c-5.36-13.867,2.393-26.841,11.368-41.861c7.726-12.929,15.715-26.298,15.715-41.803
				c0-21.967-14.974-40.464-48.162-59.042c22.021-21.333,50.589-34.959,80.97-38.575c-0.192,15.65,3.005,27.057,9.823,35.37
				c7.763,9.465,18.256,12.34,26.688,14.649c11.703,3.207,13.582,4.297,13.582,12.207c0,5.421,0,6.254-12.28,7.798
				c-11.25,1.415-32.19,4.048-32.19,31.592c0,13.816,13.559,40.523,26.995,60.861c13.532,20.482,33.487,44.898,51.705,44.898
				c19.212,0,30.305-20.655,43.146-44.573c7.774-14.479,16.326-30.394,27.527-44.357C299.483,338.204,300,345.08,300,352
				c0,22.706-5.558,45.249-16.071,65.189c-2.576,4.886-0.704,10.934,4.182,13.51c4.889,2.578,10.936,0.704,13.511-4.182
				C313.645,403.713,320,377.944,320,352c0-88.065-71.296-160-160-160C73.449,192,0,261.949,0,352C0,440.224,71.776,512,160,512
				L160,512z M90.68,310.591c0,9.984-6.258,20.457-12.883,31.544C67.611,359.18,56.066,378.5,64.943,401.466
				c10.122,26.185,27.337,30.708,42.526,34.697c18.187,4.778,35.439,9.318,47.831,55.749C80.272,489.425,20,427.623,20,352
				c0-30.852,10.203-60.779,28.863-85.125C86.15,286.863,90.68,301.299,90.68,310.591L90.68,310.591z M292.84,307.682
				c-17.679,18.027-29.704,40.383-39.504,58.633c-8.985,16.732-18.275,34.034-25.526,34.034c-4.363,0-17.729-9.752-35.018-35.922
				c-15.452-23.39-23.683-43.973-23.683-49.838c0-9.229,2.032-10.156,14.687-11.749c10.409-1.309,29.784-3.745,29.784-27.642
				c0-23.743-17.029-28.409-28.297-31.496c-6.86-1.879-12.785-3.502-16.509-8.042c-3.765-4.591-5.521-12.52-5.259-23.612
				C222.244,213.537,274.318,252.16,292.84,307.682z"/>
		</g>
	</g>
</g>
</svg>
