<svg xmlns="http://www.w3.org/2000/svg" version="1.1" xmlns:xlink="http://www.w3.org/1999/xlink" xmlns:svgjs="http://svgjs.com/svgjs" width="512" height="512" x="0" y="0" viewBox="0 0 512 512" style="enable-background:new 0 0 512 512" xml:space="preserve" class=""><g><g xmlns="http://www.w3.org/2000/svg"><g><circle cx="160" cy="352" fill="#FFFFFF" r="150" data-original="#aaf9dd" style="" class=""></circle><path d="m502 179.71c-2.096 2.095 11.002-10.999-42.43 42.42l-63.63-63.63 42.42-42.43z" fill="#FFFFFF" data-original="#eceeff" style="" class=""></path><path d="m353.51 200.92-42.43-42.43c12.636-12.636 114.657-114.657 127.28-127.28l42.43 42.43c-203.067 203.091 37.363-37.362-127.28 127.28z" fill="#37A1DA" data-original="#acb8ff" style="" class=""></path><path d="m395.93 73.64-42.42 42.43-63.64-63.64c.111-.111 42.185-42.195 42.42-42.43z" fill="#FFFFFF" data-original="#eceeff" style="" class=""></path><path d="m304.2 310.56c3.78 13.16 5.8 27.06 5.8 41.44 0 80.17-62.9 145.65-142.04 149.79-23.27-107.29-73.31-51.21-93.69-103.93-12.45-32.21 26.41-57.51 26.41-87.27 0-16.72-11.4-34.83-54.45-56.34 26.32-30.61 64.78-50.48 107.91-52.14-7.33 72.63 49.44 34.55 49.44 73.09 0 31.28-44.47 3.25-44.47 39.39 0 19.92 44.67 95.76 68.7 95.76 25.11 0 36.23-62.69 76.39-99.79z" fill="#37A1DA" data-original="#acb8ff" style="" class=""></path></g><g><path d="m490.79 73.64c0-2.652-1.054-5.196-2.929-7.071l-42.43-42.43c-1.875-1.875-4.419-2.929-7.071-2.929s-5.196 1.054-7.071 2.929l-35.359 35.359-56.569-56.569c-1.876-1.876-4.419-2.929-7.072-2.929-2.652 0-5.196 1.054-7.071 2.93l-42.419 42.429c-3.905 3.905-3.905 10.237 0 14.142l56.564 56.564-28.283 28.283-14.139-14.139c-3.906-3.905-10.237-3.905-14.142 0s-3.906 10.237 0 14.142c13.776 13.777 1.312 1.313 84.851 84.851 3.905 3.905 10.237 3.905 14.142 0s3.905-10.237 0-14.142l-14.139-14.139 28.283-28.283 56.564 56.564c3.904 3.903 10.232 3.906 14.14.003l1.843-1.842c.558 1.445 1.105 2.892 1.639 4.338 1.912 5.182 7.663 7.831 12.844 5.919s7.831-7.663 5.919-12.844c-1.578-4.274-3.265-8.551-5.026-12.785l25.215-25.209c3.905-3.905 3.905-10.237 0-14.143l-56.569-56.569 35.358-35.358c1.873-1.876 2.927-4.42 2.927-7.072zm-186.778-21.21 28.279-28.287 49.497 49.497-28.282 28.283zm183.846 127.28-28.285 28.281-49.496-49.496 28.283-28.282zm-134.347 7.069-28.288-28.288c.675-.675 109.46-109.462 113.137-113.139l28.288 28.288c-5.153 5.153-108.162 108.164-113.137 113.139z" fill="#03476B" data-original="#000000" style="" class=""></path><path d="m472.599 440.624c-2.06 6.084-4.323 12.234-6.728 18.278-2.042 5.132.463 10.947 5.595 12.988 5.114 2.034 10.94-.446 12.988-5.595 2.533-6.366 4.918-12.846 7.089-19.26 1.771-5.231-1.035-10.907-6.266-12.678-5.233-1.771-10.908 1.036-12.678 6.267z" fill="#03476B" data-original="#000000" style="" class=""></path><path d="m486.547 384.131c-.962 6.279-2.152 12.69-3.536 19.053-1.173 5.397 2.251 10.723 7.647 11.896s10.723-2.25 11.896-7.647c1.471-6.766 2.736-13.586 3.761-20.272.837-5.459-2.91-10.563-8.369-11.399-5.456-.84-10.561 2.911-11.399 8.369z" fill="#03476B" data-original="#000000" style="" class=""></path><path d="m500.761 264.216c-1.267-5.375-6.649-8.706-12.028-7.439-5.375 1.267-8.706 6.652-7.439 12.028 1.476 6.259 2.777 12.649 3.87 18.992.937 5.442 6.106 9.094 11.552 8.158 5.443-.937 9.095-6.109 8.158-11.552-1.161-6.742-2.545-13.534-4.113-20.187z" fill="#03476B" data-original="#000000" style="" class=""></path><path d="m509.797 345.947c.077-6.094-.043-13.361-.403-20.615-.274-5.517-4.975-9.763-10.484-9.491-5.516.274-9.765 4.968-9.491 10.484.341 6.85.453 13.752.381 19.367-.071 5.522 4.349 10.056 9.872 10.126.043 0 .086.001.13.001 5.462.001 9.926-4.393 9.995-9.872z" fill="#03476B" data-original="#000000" style="" class=""></path><path d="m135.241 24.336c6.388-.687 12.894-1.188 19.336-1.489 5.517-.259 9.779-4.94 9.521-10.458-.259-5.517-4.92-9.779-10.458-9.521-6.842.321-13.751.853-20.537 1.582-5.491.59-9.464 5.52-8.875 11.011.594 5.516 5.546 9.464 11.013 8.875z" fill="#03476B" data-original="#000000" style="" class=""></path><path d="m269.295 38.251c5.215 1.705 10.886-1.117 12.611-6.399 1.715-5.25-1.15-10.896-6.399-12.611-6.502-2.125-13.156-4.076-19.778-5.799-5.346-1.393-10.806 1.813-12.197 7.158-1.392 5.345 1.813 10.806 7.158 12.197 6.229 1.62 12.489 3.456 18.605 5.454z" fill="#03476B" data-original="#000000" style="" class=""></path><path d="m78.288 35.769c6.167-1.837 12.472-3.508 18.738-4.965 5.379-1.251 8.726-6.626 7.475-12.006-1.251-5.379-6.63-8.722-12.006-7.475-6.661 1.549-13.362 3.325-19.917 5.278-5.293 1.577-8.306 7.146-6.729 12.439 1.581 5.306 7.162 8.304 12.439 6.729z" fill="#03476B" data-original="#000000" style="" class=""></path><path d="m24.371 57.375c5.729-2.928 11.625-5.719 17.523-8.294 5.062-2.209 7.374-8.104 5.164-13.166-2.209-5.061-8.104-7.374-13.166-5.164-6.269 2.736-12.534 5.702-18.624 8.814-4.917 2.514-6.867 8.538-4.353 13.456 2.514 4.919 8.539 6.866 13.456 4.354z" fill="#03476B" data-original="#000000" style="" class=""></path><path d="m212.654 25.332c5.484.732 10.506-3.119 11.238-8.585.732-5.474-3.111-10.505-8.585-11.238-6.767-.905-13.663-1.617-20.496-2.113-5.507-.399-10.299 3.74-10.699 9.249-.4 5.508 3.74 10.298 9.249 10.699 6.432.467 12.923 1.136 19.293 1.988z" fill="#03476B" data-original="#000000" style="" class=""></path><circle cx="266" cy="458" r="10" fill="#03476B" data-original="#000000" style="" class=""></circle><path d="m160 512c25.704 0 51.032-6 74.515-18.381 4.886-2.576 6.758-8.624 4.182-13.509-2.576-4.886-8.625-6.758-13.509-4.182-15.504 8.173-32.104 13.264-49.453 15.192-15.472-61.755-41.827-68.688-63.184-74.299-13.559-3.563-22.517-5.916-28.953-22.566-5.36-13.867 2.392-26.84 11.368-41.861 7.726-12.929 15.715-26.298 15.715-41.803 0-21.966-14.974-40.463-48.162-59.041 22.021-21.333 50.589-34.959 80.97-38.576-.193 15.651 3.004 27.057 9.823 35.371 7.762 9.464 18.256 12.339 26.688 14.649 11.703 3.207 13.582 4.297 13.582 12.207 0 5.421 0 6.254-12.28 7.798-11.25 1.415-32.19 4.048-32.19 31.591 0 13.817 13.558 40.524 26.995 60.862 13.532 20.482 33.487 44.898 51.705 44.898 19.212 0 30.304-20.655 43.146-44.573 7.775-14.479 16.326-30.394 27.528-44.358.997 6.785 1.514 13.661 1.514 20.581 0 22.706-5.557 45.249-16.071 65.189-2.576 4.886-.704 10.934 4.182 13.51 4.888 2.578 10.935.704 13.51-4.182 12.024-22.805 18.379-48.573 18.379-74.517 0-88.066-71.296-160-160-160-86.551 0-160 69.949-160 160 0 88.224 71.776 160 160 160zm-69.32-201.41c0 9.985-6.258 20.457-12.883 31.544-10.186 17.046-21.731 36.366-12.854 59.331 10.122 26.185 27.337 30.708 42.526 34.698 18.187 4.778 35.439 9.318 47.831 55.749-75.028-2.488-135.3-64.289-135.3-139.912 0-30.852 10.203-60.78 28.864-85.125 37.286 19.988 41.816 34.424 41.816 43.715zm202.16-2.908c-17.679 18.027-29.704 40.383-39.504 58.633-8.985 16.732-18.275 34.034-25.526 34.034-4.363 0-17.729-9.752-35.018-35.922-15.452-23.389-23.682-43.972-23.682-49.838 0-9.229 2.032-10.156 14.686-11.748 10.409-1.309 29.784-3.746 29.784-27.642 0-23.743-17.029-28.409-28.297-31.496-6.86-1.879-12.785-3.502-16.508-8.042-3.765-4.591-5.521-12.52-5.259-23.612 58.728 1.488 110.802 40.111 129.324 95.633z" fill="#03476B" data-original="#000000" style="" class=""></path></g></g></g></svg>