<?xml version="1.0" encoding="utf-8"?>
<!-- Generator: Adobe Illustrator 16.0.0, SVG Export Plug-In . SVG Version: 6.00 Build 0)  -->
<!DOCTYPE svg PUBLIC "-//W3C//DTD SVG 1.1//EN" "http://www.w3.org/Graphics/SVG/1.1/DTD/svg11.dtd">
<svg version="1.1" id="Layer_1" xmlns:svgjs="http://svgjs.com/svgjs"
	 xmlns="http://www.w3.org/2000/svg" xmlns:xlink="http://www.w3.org/1999/xlink" x="0px" y="0px" width="512px" height="512px"
	 viewBox="0 0 512 512" enable-background="new 0 0 512 512" xml:space="preserve">
<g opacity="0.3">
	<path fill="#37A1DA" d="M326.452,512H56.5c-8.832,0-16-7.168-16-16c0-8.83,7.168-16,16-16h269.952c3.028,0,4.373-1.854,4.971-3.412
		c0.597-1.558,0.853-3.841-1.387-5.846L188.148,342.338c-11.541-10.411-15.381-26.539-9.792-41.067
		c5.611-14.549,19.285-23.937,34.859-23.937h184.617c8.832,0,16,7.168,16,16s-7.168,16.001-16,16.001H213.215
		c-3.029,0-4.374,1.854-4.971,3.412c-0.599,1.559-0.854,3.841,1.387,5.847l141.888,128.404c11.521,10.41,15.381,26.538,9.792,41.066
		C355.699,502.614,342.026,512,326.452,512L326.452,512z"/>
	<path fill="#03476B" d="M71.5,479.668c-3.861,0-7.724-1.388-10.795-4.182C58.551,473.503,7.5,426.312,7.5,376.99
		c0-37.482,28.715-67.99,64-67.99s64,30.508,64,68.012c0,49.322-51.051,96.491-53.206,98.476
		C79.223,478.28,75.362,479.668,71.5,479.668z"/>
	<path fill="#03476B" d="M397.832,277.334c-3.712,0-7.402-1.279-10.39-3.841c-3.945-3.37-96.276-83.307-96.276-165.504
		C291.166,48.469,339.017,0,397.832,0C456.649,0,504.5,48.448,504.5,107.989c0,82.197-92.331,162.134-96.277,165.504
		C405.236,276.053,401.545,277.334,397.832,277.334z"/>
	<path fill="#FFFFFF" d="M397.832,149.334c-23.529,0-42.666-19.137-42.666-42.667c0-23.529,19.137-42.667,42.666-42.667
		c23.53,0,42.668,19.137,42.668,42.667C440.5,130.198,421.364,149.334,397.832,149.334z"/>
	<path fill="#FFFFFF" d="M70.5,405.334c-16.72,0-30.316-13.598-30.316-30.316s13.599-30.315,30.316-30.315
		s30.315,13.598,30.315,30.315C100.817,391.736,87.219,405.334,70.5,405.334z"/>
</g>
</svg>
