<?xml version="1.0" encoding="utf-8"?>
<!-- Generator: Adobe Illustrator 16.0.0, SVG Export Plug-In . SVG Version: 6.00 Build 0)  -->
<!DOCTYPE svg PUBLIC "-//W3C//DTD SVG 1.1//EN" "http://www.w3.org/Graphics/SVG/1.1/DTD/svg11.dtd">
<svg version="1.1" id="Layer_1" xmlns:svgjs="http://svgjs.com/svgjs"
	 xmlns="http://www.w3.org/2000/svg" xmlns:xlink="http://www.w3.org/1999/xlink" x="0px" y="0px" width="512px" height="512px"
	 viewBox="0 0 512 512" enable-background="new 0 0 512 512" xml:space="preserve">
<g>
	<g>
		<g>
			<path fill="#03476B" d="M419.892,32.071c-6.751,0-355.861,0-357.817,0c-18.639,0-33.802,15.163-33.802,33.801v253.536
				c0,16.484,12.216,30.771,28.473,33.375l6.088,4.86h351.048l11.341-4.86c16.256-2.604,28.472-16.891,28.472-33.375
				c0-8.436,0-245.906,0-253.536C453.693,47.234,438.53,32.071,419.892,32.071L419.892,32.071z"/>
			<path fill="#E4F6FF" d="M419.214,63.377H64.772l-6.134,7.189v245.316c0,3.761,2.715,6.811,6.064,6.811h352.561
				c3.349,0,6.063-3.05,6.063-6.811c0-6.432,0-237.873,0-245.316L419.214,63.377z"/>
			<path fill="#16526D" d="M476.322,352.784H5.644c-3.117,0-5.644,2.552-5.644,5.699v19.603c0,14.544,11.785,26.443,26.188,26.443
				h429.589c14.403,0,26.188-11.899,26.188-26.443v-19.603C481.966,355.336,479.439,352.784,476.322,352.784L476.322,352.784z"/>
		</g>
		<path fill="#03476B" d="M506.634,423.428V222.2l5.366-5.078c0-12.703,0-20.99,0-22.606c0-11.609-9.411-21.021-21.021-21.021
			H361.968c-11.609,0-21.02,9.411-21.02,21.021v22.606l6.009,5.422V425.32l-6.009,3.72v29.87c0,11.609,9.41,21.021,21.02,21.021
			H490.98c11.609,0,21.021-9.411,21.021-21.021c0-1.907,0-13.095,0-29.87L506.634,423.428z"/>
		<circle fill="#03476B" cx="235.832" cy="210.434" r="64.61"/>
		<path fill="#F4FBFF" d="M262.124,203.743l-33.155-22.607c-5.376-3.666-12.661,0.184-12.661,6.69v45.216
			c0,6.507,7.285,10.357,12.661,6.691l33.155-22.608C266.839,213.91,266.839,206.958,262.124,203.743z"/>
		<path fill="#37A1DA" d="M340.948,246.581H512v182.458H340.948V246.581z"/>
		<g>
			<path fill="#F4FBFF" d="M434.686,460.586h-16.424c-4.268,0-7.727-3.459-7.727-7.727c0-4.267,3.459-7.726,7.727-7.726h16.424
				c4.267,0,7.726,3.459,7.726,7.726C442.411,457.127,438.952,460.586,434.686,460.586z"/>
		</g>
		<circle fill="#03476B" cx="426.474" cy="337.513" r="56.232"/>
		<path fill="#37A1DA" d="M340.948,217.122h31.506v30.924h-31.506V217.122z"/>
		<path fill="#37A1DA" d="M371.936,217.122v30.924H512v-30.924C494.975,217.122,389.158,217.122,371.936,217.122z"/>
		<path fill="#F4FBFF" d="M449.356,331.689L420.5,312.013c-4.68-3.19-11.021,0.161-11.021,5.824v39.353
			c0,5.663,6.341,9.014,11.021,5.824l28.855-19.677C453.46,340.538,453.46,334.487,449.356,331.689z"/>
	</g>
</g>
</svg>
